<svg width="585" height="180" viewBox="0 0 585 180" fill="none" xmlns="http://www.w3.org/2000/svg">
<path d="M336.471 1.88V15.44L309.231 32.36H336.471V44H289.551H289.491H288.771V30.56L316.491 13.58H288.771V1.88H336.471ZM365.088 8.42C369.208 8.42 372.788 8.78 375.828 9.5C378.868 10.22 381.508 11.4 383.748 13.04C385.988 14.68 387.628 16.92 388.668 19.76C389.708 22.56 390.068 25.94 389.748 29.9H354.108C354.308 30.98 355.288 31.86 357.048 32.54C358.808 33.22 361.448 33.56 364.968 33.56C368.048 33.56 371.108 33.36 374.148 32.96C377.228 32.56 379.548 32.16 381.108 31.76L383.388 31.16L389.388 40.88C389.268 40.96 389.048 41.08 388.728 41.24C388.408 41.36 387.588 41.6 386.268 41.96C384.988 42.32 383.528 42.64 381.888 42.92C380.248 43.2 377.968 43.46 375.048 43.7C372.128 43.9 368.928 44 365.448 44C361.368 44 357.808 43.72 354.768 43.16C351.768 42.6 349.308 41.82 347.388 40.82C345.508 39.82 343.988 38.56 342.828 37.04C341.668 35.52 340.868 33.9 340.428 32.18C339.988 30.46 339.768 28.46 339.768 26.18C339.768 20.58 341.888 16.22 346.128 13.1C350.408 9.98 356.728 8.42 365.088 8.42ZM365.208 19.16C363.008 19.16 361.128 19.32 359.568 19.64C358.008 19.96 356.868 20.38 356.148 20.9C355.428 21.38 354.908 21.86 354.588 22.34C354.268 22.82 354.108 23.3 354.108 23.78H375.588C375.588 22.46 374.788 21.36 373.188 20.48C371.628 19.6 368.968 19.16 365.208 19.16ZM392.624 9.26H406.604V44H392.624V9.26ZM392.624 -0.220003H406.604V6.56H392.624V-0.220003ZM435.761 32.6C436.761 32.6 437.841 32.54 439.001 32.42C440.161 32.26 441.201 32.08 442.121 31.88C443.041 31.68 443.881 31.48 444.641 31.28C445.441 31.04 446.061 30.86 446.501 30.74C446.981 30.58 447.201 30.5 447.161 30.5L452.141 41.3C451.541 41.54 450.661 41.82 449.501 42.14C448.341 42.42 445.841 42.84 442.001 43.4C438.201 43.92 434.241 44.18 430.121 44.18C428.161 44.18 426.541 44.12 425.261 44C424.021 43.84 422.881 43.52 421.841 43.04C420.801 42.52 420.001 41.9 419.441 41.18C418.881 40.42 418.401 39.34 418.001 37.94C417.601 36.54 417.341 34.96 417.221 33.2C417.101 31.44 417.041 29.2 417.041 26.48V19.52H410.081V9.08H417.041V1.82H430.961V9.08H447.941V19.52H430.961V26.48C430.961 26.56 430.961 26.68 430.961 26.84C430.961 26.96 430.981 27.24 431.021 27.68C431.061 28.12 431.121 28.54 431.201 28.94C431.321 29.3 431.481 29.72 431.681 30.2C431.921 30.68 432.201 31.1 432.521 31.46C432.881 31.78 433.341 32.06 433.901 32.3C434.461 32.5 435.081 32.6 435.761 32.6ZM529.569 16.34C530.529 18.5 531.109 21.28 531.309 24.68C531.549 28.04 531.669 33.56 531.669 41.24V44H517.689V32.54C517.689 32.42 517.689 32.24 517.689 32C517.689 31.24 517.689 30.66 517.689 30.26C517.689 29.82 517.649 29.2 517.569 28.4C517.529 27.6 517.449 26.98 517.329 26.54C517.249 26.06 517.089 25.48 516.849 24.8C516.649 24.08 516.389 23.52 516.069 23.12C515.789 22.68 515.409 22.22 514.929 21.74C514.489 21.26 513.969 20.88 513.369 20.6C512.769 20.32 512.049 20.1 511.209 19.94C510.369 19.74 509.449 19.64 508.449 19.64C505.889 19.64 503.829 20.02 502.269 20.78C500.749 21.5 499.329 22.54 498.009 23.9V44H483.909V9.26H498.009V14.06C499.289 13.14 500.269 12.48 500.949 12.08C501.669 11.64 502.649 11.14 503.889 10.58C505.169 9.98 506.549 9.56 508.029 9.32C509.509 9.08 511.209 8.96 513.129 8.96C515.009 8.96 516.669 9.04 518.109 9.2C519.549 9.36 521.049 9.68 522.609 10.16C524.209 10.64 525.589 11.4 526.749 12.44C527.949 13.48 528.889 14.78 529.569 16.34ZM584.326 44.06H570.526C570.526 43.06 570.506 42 570.466 40.88C566.226 43.4 561.326 44.66 555.766 44.66C554.126 44.66 552.726 44.64 551.566 44.6C550.446 44.56 549.046 44.46 547.366 44.3C545.686 44.14 544.266 43.92 543.106 43.64C541.946 43.36 540.726 42.94 539.446 42.38C538.166 41.82 537.126 41.16 536.326 40.4C535.526 39.6 534.866 38.6 534.346 37.4C533.826 36.16 533.566 34.8 533.566 33.32C533.566 31.44 534.166 29.82 535.366 28.46C536.606 27.06 538.286 25.96 540.406 25.16C542.526 24.36 544.846 23.78 547.366 23.42C549.886 23.02 552.606 22.82 555.526 22.82C560.486 22.82 564.966 23.56 568.966 25.04C568.166 22.64 566.806 21.08 564.886 20.36C563.006 19.6 560.006 19.22 555.886 19.22C552.526 19.22 549.286 19.46 546.166 19.94C543.086 20.38 541.106 20.74 540.226 21.02C539.386 21.26 538.666 21.48 538.066 21.68L534.946 12.2C541.746 9.68 549.006 8.42 556.726 8.42C558.406 8.42 560.046 8.48 561.646 8.6C563.246 8.68 565.146 8.92 567.346 9.32C569.546 9.68 571.506 10.18 573.226 10.82C574.986 11.46 576.646 12.4 578.206 13.64C579.766 14.84 580.906 16.24 581.626 17.84C582.786 20.48 583.526 23.82 583.846 27.86C584.166 31.86 584.326 37.26 584.326 44.06ZM557.326 35.84C560.246 35.84 562.926 35.54 565.366 34.94C567.806 34.3 569.206 33.72 569.566 33.2C569.566 32.84 569.566 32.62 569.566 32.54C568.446 31.5 564.606 30.98 558.046 30.98C554.726 30.98 552.346 31.18 550.906 31.58C549.466 31.94 548.746 32.52 548.746 33.32C548.746 35 551.606 35.84 557.326 35.84ZM80.2188 47.52C85.4988 47.52 90.0388 47.98 93.8388 48.9C97.6388 49.78 100.639 51.08 102.839 52.8C105.039 54.48 106.639 56.44 107.639 58.68C108.639 60.92 109.139 63.52 109.139 66.48H94.7988C94.7588 66.28 94.6788 66.02 94.5588 65.7C94.4788 65.38 94.1388 64.84 93.5388 64.08C92.9388 63.28 92.1588 62.58 91.1988 61.98C90.2388 61.34 88.7788 60.78 86.8188 60.3C84.8988 59.78 82.6588 59.52 80.0988 59.52C77.8188 59.52 75.8188 59.7 74.0988 60.06C72.4188 60.42 71.0788 60.88 70.0788 61.44C69.1188 62 68.3388 62.72 67.7388 63.6C67.1788 64.44 66.7988 65.28 66.5988 66.12C66.3988 66.92 66.2988 67.82 66.2988 68.82C66.2988 70.22 66.5188 71.46 66.9588 72.54C67.3988 73.62 68.1188 74.62 69.1188 75.54C70.1188 76.42 71.5388 77.1 73.3788 77.58C75.2188 78.06 77.4588 78.3 80.0988 78.3C82.8188 78.3 85.1788 78.1 87.1788 77.7C89.1788 77.3 90.6388 76.82 91.5588 76.26C92.4788 75.7 93.1988 75.14 93.7188 74.58C94.2788 73.98 94.5988 73.48 94.6788 73.08L94.7988 72.48H109.139C109.139 74.52 108.879 76.38 108.359 78.06C107.839 79.7 106.919 81.3 105.599 82.86C104.279 84.42 102.559 85.72 100.439 86.76C98.3588 87.8 95.6388 88.64 92.2788 89.28C88.9188 89.88 85.0188 90.18 80.5788 90.18C75.1388 90.18 70.5788 89.78 66.8988 88.98C63.2188 88.14 60.2588 86.84 58.0188 85.08C55.8188 83.28 54.2388 81.12 53.2788 78.6C52.3188 76.08 51.8388 72.98 51.8388 69.3C51.8388 65.34 52.4388 61.96 53.6388 59.16C54.8788 56.32 56.7188 54.06 59.1588 52.38C61.5988 50.66 64.5388 49.42 67.9788 48.66C71.4188 47.9 75.4988 47.52 80.2188 47.52ZM137.686 55.02C140.646 55.02 143.306 55.16 145.666 55.44C148.026 55.68 150.386 56.2 152.746 57C155.106 57.76 157.066 58.78 158.626 60.06C160.186 61.34 161.446 63.06 162.406 65.22C163.366 67.34 163.846 69.84 163.846 72.72C163.846 76 163.246 78.8 162.046 81.12C160.886 83.44 159.146 85.28 156.826 86.64C154.506 87.96 151.826 88.92 148.786 89.52C145.746 90.08 142.166 90.36 138.046 90.36C133.846 90.36 130.226 90.06 127.186 89.46C124.146 88.86 121.506 87.9 119.266 86.58C117.026 85.22 115.346 83.4 114.226 81.12C113.146 78.8 112.606 76 112.606 72.72C112.606 69.92 113.046 67.46 113.926 65.34C114.846 63.22 116.046 61.52 117.526 60.24C119.006 58.96 120.846 57.92 123.046 57.12C125.246 56.32 127.506 55.78 129.826 55.5C132.186 55.18 134.806 55.02 137.686 55.02ZM138.166 80.52C141.686 80.52 144.366 79.94 146.206 78.78C148.086 77.58 149.026 75.56 149.026 72.72C149.026 71.16 148.666 69.84 147.946 68.76C147.226 67.64 146.266 66.82 145.066 66.3C143.906 65.78 142.746 65.42 141.586 65.22C140.466 64.98 139.266 64.86 137.986 64.86C137.066 64.86 136.146 64.94 135.226 65.1C134.306 65.22 133.366 65.46 132.406 65.82C131.446 66.18 130.606 66.64 129.886 67.2C129.206 67.76 128.626 68.5 128.146 69.42C127.706 70.3 127.486 71.3 127.486 72.42C127.486 75.18 128.346 77.22 130.066 78.54C131.826 79.86 134.526 80.52 138.166 80.52ZM194.837 55.26C200.517 55.26 205.097 56.4 208.577 58.68C208.857 58.84 209.017 58.94 209.057 58.98L203.837 69.66C203.477 69.46 202.957 69.22 202.277 68.94C201.597 68.62 200.317 68.2 198.437 67.68C196.557 67.16 194.777 66.84 193.097 66.72C191.617 66.64 190.217 66.72 188.897 66.96C187.577 67.2 186.537 67.46 185.777 67.74C185.017 67.98 184.157 68.44 183.197 69.12C182.277 69.76 181.697 70.2 181.457 70.44C181.257 70.64 180.797 71.08 180.077 71.76V90H166.097V55.2H167.117H180.077V60.06C182.637 56.86 187.557 55.26 194.837 55.26ZM232.256 55.02C235.216 55.02 237.876 55.16 240.236 55.44C242.596 55.68 244.956 56.2 247.316 57C249.676 57.76 251.636 58.78 253.196 60.06C254.756 61.34 256.016 63.06 256.976 65.22C257.936 67.34 258.416 69.84 258.416 72.72C258.416 76 257.816 78.8 256.616 81.12C255.456 83.44 253.716 85.28 251.396 86.64C249.076 87.96 246.396 88.92 243.356 89.52C240.316 90.08 236.736 90.36 232.616 90.36C228.416 90.36 224.796 90.06 221.756 89.46C218.716 88.86 216.076 87.9 213.836 86.58C211.596 85.22 209.916 83.4 208.796 81.12C207.716 78.8 207.176 76 207.176 72.72C207.176 69.92 207.616 67.46 208.496 65.34C209.416 63.22 210.616 61.52 212.096 60.24C213.576 58.96 215.416 57.92 217.616 57.12C219.816 56.32 222.076 55.78 224.396 55.5C226.756 55.18 229.376 55.02 232.256 55.02ZM232.736 80.52C236.256 80.52 238.936 79.94 240.776 78.78C242.656 77.58 243.596 75.56 243.596 72.72C243.596 71.16 243.236 69.84 242.516 68.76C241.796 67.64 240.836 66.82 239.636 66.3C238.476 65.78 237.316 65.42 236.156 65.22C235.036 64.98 233.836 64.86 232.556 64.86C231.636 64.86 230.716 64.94 229.796 65.1C228.876 65.22 227.936 65.46 226.976 65.82C226.016 66.18 225.176 66.64 224.456 67.2C223.776 67.76 223.196 68.5 222.716 69.42C222.276 70.3 222.056 71.3 222.056 72.42C222.056 75.18 222.916 77.22 224.636 78.54C226.396 79.86 229.096 80.52 232.736 80.52ZM306.854 62.34C307.814 64.5 308.394 67.28 308.594 70.68C308.834 74.04 308.954 79.56 308.954 87.24V90H294.974V78.54C294.974 78.42 294.974 78.24 294.974 78C294.974 77.24 294.974 76.66 294.974 76.26C294.974 75.82 294.934 75.2 294.854 74.4C294.814 73.6 294.734 72.98 294.614 72.54C294.534 72.06 294.374 71.48 294.134 70.8C293.934 70.08 293.674 69.52 293.354 69.12C293.074 68.68 292.694 68.22 292.214 67.74C291.774 67.26 291.254 66.88 290.654 66.6C290.054 66.32 289.334 66.1 288.494 65.94C287.654 65.74 286.734 65.64 285.734 65.64C283.174 65.64 281.114 66.02 279.554 66.78C278.034 67.5 276.614 68.54 275.294 69.9V90H261.194V55.26H275.294V60.06C276.574 59.14 277.554 58.48 278.234 58.08C278.954 57.64 279.934 57.14 281.174 56.58C282.454 55.98 283.834 55.56 285.314 55.32C286.794 55.08 288.494 54.96 290.414 54.96C292.294 54.96 293.954 55.04 295.394 55.2C296.834 55.36 298.334 55.68 299.894 56.16C301.494 56.64 302.874 57.4 304.034 58.44C305.234 59.48 306.174 60.78 306.854 62.34ZM361.611 90.06H347.811C347.811 89.06 347.791 88 347.751 86.88C343.511 89.4 338.611 90.66 333.051 90.66C331.411 90.66 330.011 90.64 328.851 90.6C327.731 90.56 326.331 90.46 324.651 90.3C322.971 90.14 321.551 89.92 320.391 89.64C319.231 89.36 318.011 88.94 316.731 88.38C315.451 87.82 314.411 87.16 313.611 86.4C312.811 85.6 312.151 84.6 311.631 83.4C311.111 82.16 310.851 80.8 310.851 79.32C310.851 77.44 311.451 75.82 312.651 74.46C313.891 73.06 315.571 71.96 317.691 71.16C319.811 70.36 322.131 69.78 324.651 69.42C327.171 69.02 329.891 68.82 332.811 68.82C337.771 68.82 342.251 69.56 346.251 71.04C345.451 68.64 344.091 67.08 342.171 66.36C340.291 65.6 337.291 65.22 333.171 65.22C329.811 65.22 326.571 65.46 323.451 65.94C320.371 66.38 318.391 66.74 317.511 67.02C316.671 67.26 315.951 67.48 315.351 67.68L312.231 58.2C319.031 55.68 326.291 54.42 334.011 54.42C335.691 54.42 337.331 54.48 338.931 54.6C340.531 54.68 342.431 54.92 344.631 55.32C346.831 55.68 348.791 56.18 350.511 56.82C352.271 57.46 353.931 58.4 355.491 59.64C357.051 60.84 358.191 62.24 358.911 63.84C360.071 66.48 360.811 69.82 361.131 73.86C361.451 77.86 361.611 83.26 361.611 90.06ZM334.611 81.84C337.531 81.84 340.211 81.54 342.651 80.94C345.091 80.3 346.491 79.72 346.851 79.2C346.851 78.84 346.851 78.62 346.851 78.54C345.731 77.5 341.891 76.98 335.331 76.98C332.011 76.98 329.631 77.18 328.191 77.58C326.751 77.94 326.031 78.52 326.031 79.32C326.031 81 328.891 81.84 334.611 81.84ZM440.182 47.88V61.44L412.942 78.36H440.182V90H393.262H393.202H392.482V76.56L420.202 59.58H392.482V47.88H440.182ZM468.799 54.42C472.919 54.42 476.499 54.78 479.539 55.5C482.579 56.22 485.219 57.4 487.459 59.04C489.699 60.68 491.339 62.92 492.379 65.76C493.419 68.56 493.779 71.94 493.459 75.9H457.819C458.019 76.98 458.999 77.86 460.759 78.54C462.519 79.22 465.159 79.56 468.679 79.56C471.759 79.56 474.819 79.36 477.859 78.96C480.939 78.56 483.259 78.16 484.819 77.76L487.099 77.16L493.099 86.88C492.979 86.96 492.759 87.08 492.439 87.24C492.119 87.36 491.299 87.6 489.979 87.96C488.699 88.32 487.239 88.64 485.599 88.92C483.959 89.2 481.679 89.46 478.759 89.7C475.839 89.9 472.639 90 469.159 90C465.079 90 461.519 89.72 458.479 89.16C455.479 88.6 453.019 87.82 451.099 86.82C449.219 85.82 447.699 84.56 446.539 83.04C445.379 81.52 444.579 79.9 444.139 78.18C443.699 76.46 443.479 74.46 443.479 72.18C443.479 66.58 445.599 62.22 449.839 59.1C454.119 55.98 460.439 54.42 468.799 54.42ZM468.919 65.16C466.719 65.16 464.839 65.32 463.279 65.64C461.719 65.96 460.579 66.38 459.859 66.9C459.139 67.38 458.619 67.86 458.299 68.34C457.979 68.82 457.819 69.3 457.819 69.78H479.299C479.299 68.46 478.499 67.36 476.899 66.48C475.339 65.6 472.679 65.16 468.919 65.16ZM496.335 55.26H510.315V90H496.335V55.26ZM496.335 45.78H510.315V52.56H496.335V45.78ZM539.472 78.6C540.472 78.6 541.552 78.54 542.712 78.42C543.872 78.26 544.912 78.08 545.832 77.88C546.752 77.68 547.592 77.48 548.352 77.28C549.152 77.04 549.772 76.86 550.212 76.74C550.692 76.58 550.912 76.5 550.872 76.5L555.852 87.3C555.252 87.54 554.372 87.82 553.212 88.14C552.052 88.42 549.552 88.84 545.712 89.4C541.912 89.92 537.952 90.18 533.832 90.18C531.872 90.18 530.252 90.12 528.972 90C527.732 89.84 526.592 89.52 525.552 89.04C524.512 88.52 523.712 87.9 523.152 87.18C522.592 86.42 522.112 85.34 521.712 83.94C521.312 82.54 521.052 80.96 520.932 79.2C520.812 77.44 520.752 75.2 520.752 72.48V65.52H513.792V55.08H520.752V47.82H534.672V55.08H551.652V65.52H534.672V72.48C534.672 72.56 534.672 72.68 534.672 72.84C534.672 72.96 534.692 73.24 534.732 73.68C534.772 74.12 534.832 74.54 534.912 74.94C535.032 75.3 535.192 75.72 535.392 76.2C535.632 76.68 535.912 77.1 536.232 77.46C536.592 77.78 537.052 78.06 537.612 78.3C538.172 78.5 538.792 78.6 539.472 78.6ZM233.111 93.88V107.44L205.871 124.36H233.111V136H186.191H186.131H185.411V122.56L213.131 105.58H185.411V93.88H233.111ZM261.729 100.42C265.849 100.42 269.429 100.78 272.469 101.5C275.509 102.22 278.149 103.4 280.389 105.04C282.629 106.68 284.269 108.92 285.309 111.76C286.349 114.56 286.709 117.94 286.389 121.9H250.749C250.949 122.98 251.929 123.86 253.689 124.54C255.449 125.22 258.089 125.56 261.609 125.56C264.689 125.56 267.749 125.36 270.789 124.96C273.869 124.56 276.189 124.16 277.749 123.76L280.029 123.16L286.029 132.88C285.909 132.96 285.689 133.08 285.369 133.24C285.049 133.36 284.229 133.6 282.909 133.96C281.629 134.32 280.169 134.64 278.529 134.92C276.889 135.2 274.609 135.46 271.689 135.7C268.769 135.9 265.569 136 262.089 136C258.009 136 254.449 135.72 251.409 135.16C248.409 134.6 245.949 133.82 244.029 132.82C242.149 131.82 240.629 130.56 239.469 129.04C238.309 127.52 237.509 125.9 237.069 124.18C236.629 122.46 236.409 120.46 236.409 118.18C236.409 112.58 238.529 108.22 242.769 105.1C247.049 101.98 253.369 100.42 261.729 100.42ZM261.849 111.16C259.649 111.16 257.769 111.32 256.209 111.64C254.649 111.96 253.509 112.38 252.789 112.9C252.069 113.38 251.549 113.86 251.229 114.34C250.909 114.82 250.749 115.3 250.749 115.78H272.229C272.229 114.46 271.429 113.36 269.829 112.48C268.269 111.6 265.609 111.16 261.849 111.16ZM289.265 101.26H303.245V136H289.265V101.26ZM289.265 91.78H303.245V98.56H289.265V91.78ZM332.402 124.6C333.402 124.6 334.482 124.54 335.642 124.42C336.802 124.26 337.842 124.08 338.762 123.88C339.682 123.68 340.522 123.48 341.282 123.28C342.082 123.04 342.702 122.86 343.142 122.74C343.622 122.58 343.842 122.5 343.802 122.5L348.782 133.3C348.182 133.54 347.302 133.82 346.142 134.14C344.982 134.42 342.482 134.84 338.642 135.4C334.842 135.92 330.882 136.18 326.762 136.18C324.802 136.18 323.182 136.12 321.902 136C320.662 135.84 319.522 135.52 318.482 135.04C317.442 134.52 316.642 133.9 316.082 133.18C315.522 132.42 315.042 131.34 314.642 129.94C314.242 128.54 313.982 126.96 313.862 125.2C313.742 123.44 313.682 121.2 313.682 118.48V111.52H306.722V101.08H313.682V93.82H327.602V101.08H344.582V111.52H327.602V118.48C327.602 118.56 327.602 118.68 327.602 118.84C327.602 118.96 327.622 119.24 327.662 119.68C327.702 120.12 327.762 120.54 327.842 120.94C327.962 121.3 328.122 121.72 328.322 122.2C328.562 122.68 328.842 123.1 329.162 123.46C329.522 123.78 329.982 124.06 330.542 124.3C331.102 124.5 331.722 124.6 332.402 124.6ZM426.21 108.34C427.17 110.5 427.75 113.28 427.95 116.68C428.19 120.04 428.31 125.56 428.31 133.24V136H414.33V124.54C414.33 124.42 414.33 124.24 414.33 124C414.33 123.24 414.33 122.66 414.33 122.26C414.33 121.82 414.29 121.2 414.21 120.4C414.17 119.6 414.09 118.98 413.97 118.54C413.89 118.06 413.73 117.48 413.49 116.8C413.29 116.08 413.03 115.52 412.71 115.12C412.43 114.68 412.05 114.22 411.57 113.74C411.13 113.26 410.61 112.88 410.01 112.6C409.41 112.32 408.69 112.1 407.85 111.94C407.01 111.74 406.09 111.64 405.09 111.64C402.53 111.64 400.47 112.02 398.91 112.78C397.39 113.5 395.97 114.54 394.65 115.9V136H380.55V101.26H394.65V106.06C395.93 105.14 396.91 104.48 397.59 104.08C398.31 103.64 399.29 103.14 400.53 102.58C401.81 101.98 403.19 101.56 404.67 101.32C406.15 101.08 407.85 100.96 409.77 100.96C411.65 100.96 413.31 101.04 414.75 101.2C416.19 101.36 417.69 101.68 419.25 102.16C420.85 102.64 422.23 103.4 423.39 104.44C424.59 105.48 425.53 106.78 426.21 108.34ZM480.966 136.06H467.166C467.166 135.06 467.146 134 467.106 132.88C462.866 135.4 457.966 136.66 452.406 136.66C450.766 136.66 449.366 136.64 448.206 136.6C447.086 136.56 445.686 136.46 444.006 136.3C442.326 136.14 440.906 135.92 439.746 135.64C438.586 135.36 437.366 134.94 436.086 134.38C434.806 133.82 433.766 133.16 432.966 132.4C432.166 131.6 431.506 130.6 430.986 129.4C430.466 128.16 430.206 126.8 430.206 125.32C430.206 123.44 430.806 121.82 432.006 120.46C433.246 119.06 434.926 117.96 437.046 117.16C439.166 116.36 441.486 115.78 444.006 115.42C446.526 115.02 449.246 114.82 452.166 114.82C457.126 114.82 461.606 115.56 465.606 117.04C464.806 114.64 463.446 113.08 461.526 112.36C459.646 111.6 456.646 111.22 452.526 111.22C449.166 111.22 445.926 111.46 442.806 111.94C439.726 112.38 437.746 112.74 436.866 113.02C436.026 113.26 435.306 113.48 434.706 113.68L431.586 104.2C438.386 101.68 445.646 100.42 453.366 100.42C455.046 100.42 456.686 100.48 458.286 100.6C459.886 100.68 461.786 100.92 463.986 101.32C466.186 101.68 468.146 102.18 469.866 102.82C471.626 103.46 473.286 104.4 474.846 105.64C476.406 106.84 477.546 108.24 478.266 109.84C479.426 112.48 480.166 115.82 480.486 119.86C480.806 123.86 480.966 129.26 480.966 136.06ZM453.966 127.84C456.886 127.84 459.566 127.54 462.006 126.94C464.446 126.3 465.846 125.72 466.206 125.2C466.206 124.84 466.206 124.62 466.206 124.54C465.086 123.5 461.246 122.98 454.686 122.98C451.366 122.98 448.986 123.18 447.546 123.58C446.106 123.94 445.386 124.52 445.386 125.32C445.386 127 448.246 127.84 453.966 127.84ZM507.329 101.02C511.089 101.02 514.469 101.28 517.469 101.8C520.469 102.32 522.929 103.02 524.849 103.9C526.809 104.74 528.429 105.74 529.709 106.9C531.029 108.06 531.969 109.26 532.529 110.5C533.089 111.7 533.369 112.94 533.369 114.22L519.329 116.32C519.329 116.2 519.269 116.04 519.149 115.84C519.069 115.64 518.789 115.28 518.309 114.76C517.829 114.24 517.229 113.78 516.509 113.38C515.789 112.98 514.689 112.62 513.209 112.3C511.769 111.94 510.109 111.76 508.229 111.76C506.349 111.76 504.709 111.92 503.309 112.24C501.909 112.52 500.829 112.88 500.069 113.32C499.349 113.76 498.769 114.32 498.329 115C497.889 115.64 497.609 116.24 497.489 116.8C497.369 117.32 497.309 117.94 497.309 118.66C497.309 119.22 497.349 119.74 497.429 120.22C497.509 120.66 497.669 121.18 497.909 121.78C498.149 122.34 498.529 122.84 499.049 123.28C499.569 123.72 500.209 124.14 500.969 124.54C501.729 124.9 502.729 125.18 503.969 125.38C505.209 125.58 506.629 125.68 508.229 125.68C509.669 125.68 510.969 125.6 512.129 125.44C513.329 125.28 514.289 125.08 515.009 124.84C515.769 124.56 516.429 124.26 516.989 123.94C517.589 123.62 518.029 123.3 518.309 122.98C518.629 122.66 518.869 122.38 519.029 122.14C519.229 121.86 519.349 121.64 519.389 121.48L519.449 121.24L533.369 123.16C533.369 124.52 533.109 125.82 532.589 127.06C532.109 128.26 531.229 129.44 529.949 130.6C528.709 131.76 527.129 132.76 525.209 133.6C523.329 134.44 520.889 135.12 517.889 135.64C514.889 136.12 511.489 136.36 507.689 136.36C503.969 136.36 500.669 136.06 497.789 135.46C494.949 134.86 492.609 134.06 490.769 133.06C488.969 132.02 487.469 130.74 486.269 129.22C485.109 127.7 484.289 126.1 483.809 124.42C483.329 122.7 483.089 120.8 483.089 118.72C483.089 113.12 485.049 108.78 488.969 105.7C492.889 102.58 499.009 101.02 507.329 101.02ZM582.216 108.04C583.096 110.24 583.656 113.18 583.896 116.86C584.176 120.54 584.316 126 584.316 133.24V136H570.336V124.54C570.336 124.46 570.336 124.3 570.336 124.06C570.336 123.3 570.336 122.72 570.336 122.32C570.336 121.88 570.316 121.26 570.276 120.46C570.236 119.66 570.156 119.04 570.036 118.6C569.956 118.12 569.816 117.54 569.616 116.86C569.416 116.14 569.176 115.58 568.896 115.18C568.616 114.74 568.256 114.28 567.816 113.8C567.376 113.28 566.876 112.9 566.316 112.66C565.756 112.38 565.076 112.16 564.276 112C563.516 111.8 562.676 111.7 561.756 111.7C556.076 111.7 551.916 112.94 549.276 115.42V136H535.296V94H549.276V106.18C553.756 102.74 559.176 101.02 565.536 101.02C567.016 101.02 568.296 101.06 569.376 101.14C570.496 101.18 571.776 101.34 573.216 101.62C574.656 101.9 575.896 102.28 576.936 102.76C578.016 103.24 579.036 103.94 579.996 104.86C580.956 105.74 581.696 106.8 582.216 108.04ZM108.695 139.52C113.975 139.52 118.515 139.98 122.315 140.9C126.115 141.78 129.115 143.08 131.315 144.8C133.515 146.48 135.115 148.44 136.115 150.68C137.115 152.92 137.615 155.52 137.615 158.48H123.275C123.235 158.28 123.155 158.02 123.035 157.7C122.955 157.38 122.615 156.84 122.015 156.08C121.415 155.28 120.635 154.58 119.675 153.98C118.715 153.34 117.255 152.78 115.295 152.3C113.375 151.78 111.135 151.52 108.575 151.52C106.295 151.52 104.295 151.7 102.575 152.06C100.895 152.42 99.5553 152.88 98.5553 153.44C97.5953 154 96.8153 154.72 96.2153 155.6C95.6553 156.44 95.2753 157.28 95.0753 158.12C94.8753 158.92 94.7753 159.82 94.7753 160.82C94.7753 162.22 94.9953 163.46 95.4353 164.54C95.8753 165.62 96.5953 166.62 97.5953 167.54C98.5953 168.42 100.015 169.1 101.855 169.58C103.695 170.06 105.935 170.3 108.575 170.3C111.295 170.3 113.655 170.1 115.655 169.7C117.655 169.3 119.115 168.82 120.035 168.26C120.955 167.7 121.675 167.14 122.195 166.58C122.755 165.98 123.075 165.48 123.155 165.08L123.275 164.48H137.615C137.615 166.52 137.355 168.38 136.835 170.06C136.315 171.7 135.395 173.3 134.075 174.86C132.755 176.42 131.035 177.72 128.915 178.76C126.835 179.8 124.115 180.64 120.755 181.28C117.395 181.88 113.495 182.18 109.055 182.18C103.615 182.18 99.0553 181.78 95.3753 180.98C91.6953 180.14 88.7353 178.84 86.4953 177.08C84.2953 175.28 82.7153 173.12 81.7553 170.6C80.7953 168.08 80.3153 164.98 80.3153 161.3C80.3153 157.34 80.9153 153.96 82.1153 151.16C83.3553 148.32 85.1953 146.06 87.6353 144.38C90.0753 142.66 93.0153 141.42 96.4553 140.66C99.8953 139.9 103.975 139.52 108.695 139.52ZM166.163 147.02C169.123 147.02 171.783 147.16 174.143 147.44C176.503 147.68 178.863 148.2 181.223 149C183.583 149.76 185.543 150.78 187.103 152.06C188.663 153.34 189.923 155.06 190.883 157.22C191.843 159.34 192.323 161.84 192.323 164.72C192.323 168 191.723 170.8 190.523 173.12C189.363 175.44 187.623 177.28 185.303 178.64C182.983 179.96 180.303 180.92 177.263 181.52C174.223 182.08 170.643 182.36 166.523 182.36C162.323 182.36 158.703 182.06 155.663 181.46C152.623 180.86 149.983 179.9 147.743 178.58C145.503 177.22 143.823 175.4 142.703 173.12C141.623 170.8 141.083 168 141.083 164.72C141.083 161.92 141.523 159.46 142.403 157.34C143.323 155.22 144.523 153.52 146.003 152.24C147.483 150.96 149.323 149.92 151.523 149.12C153.723 148.32 155.983 147.78 158.303 147.5C160.663 147.18 163.283 147.02 166.163 147.02ZM166.643 172.52C170.163 172.52 172.843 171.94 174.683 170.78C176.563 169.58 177.503 167.56 177.503 164.72C177.503 163.16 177.143 161.84 176.423 160.76C175.703 159.64 174.743 158.82 173.543 158.3C172.383 157.78 171.223 157.42 170.063 157.22C168.943 156.98 167.743 156.86 166.463 156.86C165.543 156.86 164.623 156.94 163.703 157.1C162.783 157.22 161.843 157.46 160.883 157.82C159.923 158.18 159.083 158.64 158.363 159.2C157.683 159.76 157.103 160.5 156.623 161.42C156.183 162.3 155.963 163.3 155.963 164.42C155.963 167.18 156.823 169.22 158.543 170.54C160.303 171.86 163.003 172.52 166.643 172.52ZM223.313 147.26C228.993 147.26 233.573 148.4 237.053 150.68C237.333 150.84 237.493 150.94 237.533 150.98L232.313 161.66C231.953 161.46 231.433 161.22 230.753 160.94C230.073 160.62 228.793 160.2 226.913 159.68C225.033 159.16 223.253 158.84 221.573 158.72C220.093 158.64 218.693 158.72 217.373 158.96C216.053 159.2 215.013 159.46 214.253 159.74C213.493 159.98 212.633 160.44 211.673 161.12C210.753 161.76 210.173 162.2 209.933 162.44C209.733 162.64 209.273 163.08 208.553 163.76V182H194.573V147.2H195.593H208.553V152.06C211.113 148.86 216.033 147.26 223.313 147.26ZM260.733 147.02C263.693 147.02 266.353 147.16 268.713 147.44C271.073 147.68 273.433 148.2 275.793 149C278.153 149.76 280.113 150.78 281.673 152.06C283.233 153.34 284.493 155.06 285.453 157.22C286.413 159.34 286.893 161.84 286.893 164.72C286.893 168 286.293 170.8 285.093 173.12C283.933 175.44 282.193 177.28 279.873 178.64C277.553 179.96 274.873 180.92 271.833 181.52C268.793 182.08 265.213 182.36 261.093 182.36C256.893 182.36 253.273 182.06 250.233 181.46C247.193 180.86 244.553 179.9 242.313 178.58C240.073 177.22 238.393 175.4 237.273 173.12C236.193 170.8 235.653 168 235.653 164.72C235.653 161.92 236.093 159.46 236.973 157.34C237.893 155.22 239.093 153.52 240.573 152.24C242.053 150.96 243.893 149.92 246.093 149.12C248.293 148.32 250.553 147.78 252.873 147.5C255.233 147.18 257.853 147.02 260.733 147.02ZM261.213 172.52C264.733 172.52 267.413 171.94 269.253 170.78C271.133 169.58 272.073 167.56 272.073 164.72C272.073 163.16 271.713 161.84 270.993 160.76C270.273 159.64 269.313 158.82 268.113 158.3C266.953 157.78 265.793 157.42 264.633 157.22C263.513 156.98 262.313 156.86 261.033 156.86C260.113 156.86 259.193 156.94 258.273 157.1C257.353 157.22 256.413 157.46 255.453 157.82C254.493 158.18 253.653 158.64 252.933 159.2C252.253 159.76 251.673 160.5 251.193 161.42C250.753 162.3 250.533 163.3 250.533 164.42C250.533 167.18 251.393 169.22 253.113 170.54C254.873 171.86 257.573 172.52 261.213 172.52ZM335.331 154.34C336.291 156.5 336.871 159.28 337.071 162.68C337.311 166.04 337.431 171.56 337.431 179.24V182H323.451V170.54C323.451 170.42 323.451 170.24 323.451 170C323.451 169.24 323.451 168.66 323.451 168.26C323.451 167.82 323.411 167.2 323.331 166.4C323.291 165.6 323.211 164.98 323.091 164.54C323.011 164.06 322.851 163.48 322.611 162.8C322.411 162.08 322.151 161.52 321.831 161.12C321.551 160.68 321.171 160.22 320.691 159.74C320.251 159.26 319.731 158.88 319.131 158.6C318.531 158.32 317.811 158.1 316.971 157.94C316.131 157.74 315.211 157.64 314.211 157.64C311.651 157.64 309.591 158.02 308.031 158.78C306.511 159.5 305.091 160.54 303.771 161.9V182H289.671V147.26H303.771V152.06C305.051 151.14 306.031 150.48 306.711 150.08C307.431 149.64 308.411 149.14 309.651 148.58C310.931 147.98 312.311 147.56 313.791 147.32C315.271 147.08 316.971 146.96 318.891 146.96C320.771 146.96 322.431 147.04 323.871 147.2C325.311 147.36 326.811 147.68 328.371 148.16C329.971 148.64 331.351 149.4 332.511 150.44C333.711 151.48 334.651 152.78 335.331 154.34ZM390.087 182.06H376.287C376.287 181.06 376.267 180 376.227 178.88C371.987 181.4 367.087 182.66 361.527 182.66C359.887 182.66 358.487 182.64 357.327 182.6C356.207 182.56 354.807 182.46 353.127 182.3C351.447 182.14 350.027 181.92 348.867 181.64C347.707 181.36 346.487 180.94 345.207 180.38C343.927 179.82 342.887 179.16 342.087 178.4C341.287 177.6 340.627 176.6 340.107 175.4C339.587 174.16 339.327 172.8 339.327 171.32C339.327 169.44 339.927 167.82 341.127 166.46C342.367 165.06 344.047 163.96 346.167 163.16C348.287 162.36 350.607 161.78 353.127 161.42C355.647 161.02 358.367 160.82 361.287 160.82C366.247 160.82 370.727 161.56 374.727 163.04C373.927 160.64 372.567 159.08 370.647 158.36C368.767 157.6 365.767 157.22 361.647 157.22C358.287 157.22 355.047 157.46 351.927 157.94C348.847 158.38 346.867 158.74 345.987 159.02C345.147 159.26 344.427 159.48 343.827 159.68L340.707 150.2C347.507 147.68 354.767 146.42 362.487 146.42C364.167 146.42 365.807 146.48 367.407 146.6C369.007 146.68 370.907 146.92 373.107 147.32C375.307 147.68 377.267 148.18 378.987 148.82C380.747 149.46 382.407 150.4 383.967 151.64C385.527 152.84 386.667 154.24 387.387 155.84C388.547 158.48 389.287 161.82 389.607 165.86C389.927 169.86 390.087 175.26 390.087 182.06ZM363.087 173.84C366.007 173.84 368.687 173.54 371.127 172.94C373.567 172.3 374.967 171.72 375.327 171.2C375.327 170.84 375.327 170.62 375.327 170.54C374.207 169.5 370.367 168.98 363.807 168.98C360.487 168.98 358.107 169.18 356.667 169.58C355.227 169.94 354.507 170.52 354.507 171.32C354.507 173 357.367 173.84 363.087 173.84ZM468.658 139.88V153.44L441.418 170.36H468.658V182H421.738H421.678H420.958V168.56L448.678 151.58H420.958V139.88H468.658ZM497.276 146.42C501.396 146.42 504.976 146.78 508.016 147.5C511.056 148.22 513.696 149.4 515.936 151.04C518.176 152.68 519.816 154.92 520.856 157.76C521.896 160.56 522.256 163.94 521.936 167.9H486.296C486.496 168.98 487.476 169.86 489.236 170.54C490.996 171.22 493.636 171.56 497.156 171.56C500.236 171.56 503.296 171.36 506.336 170.96C509.416 170.56 511.736 170.16 513.296 169.76L515.576 169.16L521.576 178.88C521.456 178.96 521.236 179.08 520.916 179.24C520.596 179.36 519.776 179.6 518.456 179.96C517.176 180.32 515.716 180.64 514.076 180.92C512.436 181.2 510.156 181.46 507.236 181.7C504.316 181.9 501.116 182 497.636 182C493.556 182 489.996 181.72 486.956 181.16C483.956 180.6 481.496 179.82 479.576 178.82C477.696 177.82 476.176 176.56 475.016 175.04C473.856 173.52 473.056 171.9 472.616 170.18C472.176 168.46 471.956 166.46 471.956 164.18C471.956 158.58 474.076 154.22 478.316 151.1C482.596 147.98 488.916 146.42 497.276 146.42ZM497.396 157.16C495.196 157.16 493.316 157.32 491.756 157.64C490.196 157.96 489.056 158.38 488.336 158.9C487.616 159.38 487.096 159.86 486.776 160.34C486.456 160.82 486.296 161.3 486.296 161.78H507.776C507.776 160.46 506.976 159.36 505.376 158.48C503.816 157.6 501.156 157.16 497.396 157.16ZM524.812 147.26H538.792V182H524.812V147.26ZM524.812 137.78H538.792V144.56H524.812V137.78ZM567.948 170.6C568.948 170.6 570.028 170.54 571.188 170.42C572.348 170.26 573.388 170.08 574.308 169.88C575.228 169.68 576.068 169.48 576.828 169.28C577.628 169.04 578.248 168.86 578.688 168.74C579.168 168.58 579.388 168.5 579.348 168.5L584.328 179.3C583.728 179.54 582.848 179.82 581.688 180.14C580.528 180.42 578.028 180.84 574.188 181.4C570.388 181.92 566.428 182.18 562.308 182.18C560.348 182.18 558.728 182.12 557.448 182C556.208 181.84 555.068 181.52 554.028 181.04C552.988 180.52 552.188 179.9 551.628 179.18C551.068 178.42 550.588 177.34 550.188 175.94C549.788 174.54 549.528 172.96 549.408 171.2C549.288 169.44 549.228 167.2 549.228 164.48V157.52H542.268V147.08H549.228V139.82H563.148V147.08H580.128V157.52H563.148V164.48C563.148 164.56 563.148 164.68 563.148 164.84C563.148 164.96 563.168 165.24 563.208 165.68C563.248 166.12 563.308 166.54 563.388 166.94C563.508 167.3 563.668 167.72 563.868 168.2C564.108 168.68 564.388 169.1 564.708 169.46C565.068 169.78 565.528 170.06 566.088 170.3C566.648 170.5 567.268 170.6 567.948 170.6ZM84.6667 200.34C85.6267 202.5 86.2067 205.28 86.4067 208.68C86.6467 212.04 86.7667 217.56 86.7667 225.24V228H72.7867V216.54C72.7867 216.42 72.7867 216.24 72.7867 216C72.7867 215.24 72.7867 214.66 72.7867 214.26C72.7867 213.82 72.7467 213.2 72.6667 212.4C72.6267 211.6 72.5467 210.98 72.4267 210.54C72.3467 210.06 72.1867 209.48 71.9467 208.8C71.7467 208.08 71.4867 207.52 71.1667 207.12C70.8867 206.68 70.5067 206.22 70.0267 205.74C69.5867 205.26 69.0667 204.88 68.4667 204.6C67.8667 204.32 67.1467 204.1 66.3067 203.94C65.4667 203.74 64.5467 203.64 63.5467 203.64C60.9867 203.64 58.9267 204.02 57.3667 204.78C55.8467 205.5 54.4267 206.54 53.1067 207.9V228H39.0067V193.26H53.1067V198.06C54.3867 197.14 55.3667 196.48 56.0467 196.08C56.7667 195.64 57.7467 195.14 58.9867 194.58C60.2667 193.98 61.6467 193.56 63.1267 193.32C64.6067 193.08 66.3067 192.96 68.2267 192.96C70.1067 192.96 71.7667 193.04 73.2067 193.2C74.6467 193.36 76.1467 193.68 77.7067 194.16C79.3067 194.64 80.6867 195.4 81.8467 196.44C83.0467 197.48 83.9867 198.78 84.6667 200.34ZM139.423 228.06H125.623C125.623 227.06 125.603 226 125.563 224.88C121.323 227.4 116.423 228.66 110.863 228.66C109.223 228.66 107.823 228.64 106.663 228.6C105.543 228.56 104.143 228.46 102.463 228.3C100.783 228.14 99.3633 227.92 98.2033 227.64C97.0433 227.36 95.8233 226.94 94.5433 226.38C93.2633 225.82 92.2233 225.16 91.4233 224.4C90.6233 223.6 89.9633 222.6 89.4433 221.4C88.9233 220.16 88.6633 218.8 88.6633 217.32C88.6633 215.44 89.2633 213.82 90.4633 212.46C91.7033 211.06 93.3833 209.96 95.5033 209.16C97.6233 208.36 99.9433 207.78 102.463 207.42C104.983 207.02 107.703 206.82 110.623 206.82C115.583 206.82 120.063 207.56 124.063 209.04C123.263 206.64 121.903 205.08 119.983 204.36C118.103 203.6 115.103 203.22 110.983 203.22C107.623 203.22 104.383 203.46 101.263 203.94C98.1833 204.38 96.2033 204.74 95.3233 205.02C94.4833 205.26 93.7633 205.48 93.1633 205.68L90.0433 196.2C96.8433 193.68 104.103 192.42 111.823 192.42C113.503 192.42 115.143 192.48 116.743 192.6C118.343 192.68 120.243 192.92 122.443 193.32C124.643 193.68 126.603 194.18 128.323 194.82C130.083 195.46 131.743 196.4 133.303 197.64C134.863 198.84 136.003 200.24 136.723 201.84C137.883 204.48 138.623 207.82 138.943 211.86C139.263 215.86 139.423 221.26 139.423 228.06ZM112.423 219.84C115.343 219.84 118.023 219.54 120.463 218.94C122.903 218.3 124.303 217.72 124.663 217.2C124.663 216.84 124.663 216.62 124.663 216.54C123.543 215.5 119.703 214.98 113.143 214.98C109.823 214.98 107.443 215.18 106.003 215.58C104.563 215.94 103.843 216.52 103.843 217.32C103.843 219 106.703 219.84 112.423 219.84ZM165.786 193.02C169.546 193.02 172.926 193.28 175.926 193.8C178.926 194.32 181.386 195.02 183.306 195.9C185.266 196.74 186.886 197.74 188.166 198.9C189.486 200.06 190.426 201.26 190.986 202.5C191.546 203.7 191.826 204.94 191.826 206.22L177.786 208.32C177.786 208.2 177.726 208.04 177.606 207.84C177.526 207.64 177.246 207.28 176.766 206.76C176.286 206.24 175.686 205.78 174.966 205.38C174.246 204.98 173.146 204.62 171.666 204.3C170.226 203.94 168.566 203.76 166.686 203.76C164.806 203.76 163.166 203.92 161.766 204.24C160.366 204.52 159.286 204.88 158.526 205.32C157.806 205.76 157.226 206.32 156.786 207C156.346 207.64 156.066 208.24 155.946 208.8C155.826 209.32 155.766 209.94 155.766 210.66C155.766 211.22 155.806 211.74 155.886 212.22C155.966 212.66 156.126 213.18 156.366 213.78C156.606 214.34 156.986 214.84 157.506 215.28C158.026 215.72 158.666 216.14 159.426 216.54C160.186 216.9 161.186 217.18 162.426 217.38C163.666 217.58 165.086 217.68 166.686 217.68C168.126 217.68 169.426 217.6 170.586 217.44C171.786 217.28 172.746 217.08 173.466 216.84C174.226 216.56 174.886 216.26 175.446 215.94C176.046 215.62 176.486 215.3 176.766 214.98C177.086 214.66 177.326 214.38 177.486 214.14C177.686 213.86 177.806 213.64 177.846 213.48L177.906 213.24L191.826 215.16C191.826 216.52 191.566 217.82 191.046 219.06C190.566 220.26 189.686 221.44 188.406 222.6C187.166 223.76 185.586 224.76 183.666 225.6C181.786 226.44 179.346 227.12 176.346 227.64C173.346 228.12 169.946 228.36 166.146 228.36C162.426 228.36 159.126 228.06 156.246 227.46C153.406 226.86 151.066 226.06 149.226 225.06C147.426 224.02 145.926 222.74 144.726 221.22C143.566 219.7 142.746 218.1 142.266 216.42C141.786 214.7 141.546 212.8 141.546 210.72C141.546 205.12 143.506 200.78 147.426 197.7C151.346 194.58 157.466 193.02 165.786 193.02ZM240.673 200.04C241.553 202.24 242.113 205.18 242.353 208.86C242.633 212.54 242.773 218 242.773 225.24V228H228.793V216.54C228.793 216.46 228.793 216.3 228.793 216.06C228.793 215.3 228.793 214.72 228.793 214.32C228.793 213.88 228.773 213.26 228.733 212.46C228.693 211.66 228.613 211.04 228.493 210.6C228.413 210.12 228.273 209.54 228.073 208.86C227.873 208.14 227.633 207.58 227.353 207.18C227.073 206.74 226.713 206.28 226.273 205.8C225.833 205.28 225.333 204.9 224.773 204.66C224.213 204.38 223.533 204.16 222.733 204C221.973 203.8 221.133 203.7 220.213 203.7C214.533 203.7 210.373 204.94 207.733 207.42V228H193.753V186H207.733V198.18C212.213 194.74 217.633 193.02 223.993 193.02C225.473 193.02 226.753 193.06 227.833 193.14C228.953 193.18 230.233 193.34 231.673 193.62C233.113 193.9 234.353 194.28 235.393 194.76C236.473 195.24 237.493 195.94 238.453 196.86C239.413 197.74 240.153 198.8 240.673 200.04ZM302.934 185.52C308.214 185.52 312.754 185.98 316.554 186.9C320.354 187.78 323.354 189.08 325.554 190.8C327.754 192.48 329.354 194.44 330.354 196.68C331.354 198.92 331.854 201.52 331.854 204.48H317.514C317.474 204.28 317.394 204.02 317.274 203.7C317.194 203.38 316.854 202.84 316.254 202.08C315.654 201.28 314.874 200.58 313.914 199.98C312.954 199.34 311.494 198.78 309.534 198.3C307.614 197.78 305.374 197.52 302.814 197.52C300.534 197.52 298.534 197.7 296.814 198.06C295.134 198.42 293.794 198.88 292.794 199.44C291.834 200 291.054 200.72 290.454 201.6C289.894 202.44 289.514 203.28 289.314 204.12C289.114 204.92 289.014 205.82 289.014 206.82C289.014 208.22 289.234 209.46 289.674 210.54C290.114 211.62 290.834 212.62 291.834 213.54C292.834 214.42 294.254 215.1 296.094 215.58C297.934 216.06 300.174 216.3 302.814 216.3C305.534 216.3 307.894 216.1 309.894 215.7C311.894 215.3 313.354 214.82 314.274 214.26C315.194 213.7 315.914 213.14 316.434 212.58C316.994 211.98 317.314 211.48 317.394 211.08L317.514 210.48H331.854C331.854 212.52 331.594 214.38 331.074 216.06C330.554 217.7 329.634 219.3 328.314 220.86C326.994 222.42 325.274 223.72 323.154 224.76C321.074 225.8 318.354 226.64 314.994 227.28C311.634 227.88 307.734 228.18 303.294 228.18C297.854 228.18 293.294 227.78 289.614 226.98C285.934 226.14 282.974 224.84 280.734 223.08C278.534 221.28 276.954 219.12 275.994 216.6C275.034 214.08 274.554 210.98 274.554 207.3C274.554 203.34 275.154 199.96 276.354 197.16C277.594 194.32 279.434 192.06 281.874 190.38C284.314 188.66 287.254 187.42 290.694 186.66C294.134 185.9 298.214 185.52 302.934 185.52ZM360.401 193.02C363.361 193.02 366.021 193.16 368.381 193.44C370.741 193.68 373.101 194.2 375.461 195C377.821 195.76 379.781 196.78 381.341 198.06C382.901 199.34 384.161 201.06 385.121 203.22C386.081 205.34 386.561 207.84 386.561 210.72C386.561 214 385.961 216.8 384.761 219.12C383.601 221.44 381.861 223.28 379.541 224.64C377.221 225.96 374.541 226.92 371.501 227.52C368.461 228.08 364.881 228.36 360.761 228.36C356.561 228.36 352.941 228.06 349.901 227.46C346.861 226.86 344.221 225.9 341.981 224.58C339.741 223.22 338.061 221.4 336.941 219.12C335.861 216.8 335.321 214 335.321 210.72C335.321 207.92 335.761 205.46 336.641 203.34C337.561 201.22 338.761 199.52 340.241 198.24C341.721 196.96 343.561 195.92 345.761 195.12C347.961 194.32 350.221 193.78 352.541 193.5C354.901 193.18 357.521 193.02 360.401 193.02ZM360.881 218.52C364.401 218.52 367.081 217.94 368.921 216.78C370.801 215.58 371.741 213.56 371.741 210.72C371.741 209.16 371.381 207.84 370.661 206.76C369.941 205.64 368.981 204.82 367.781 204.3C366.621 203.78 365.461 203.42 364.301 203.22C363.181 202.98 361.981 202.86 360.701 202.86C359.781 202.86 358.861 202.94 357.941 203.1C357.021 203.22 356.081 203.46 355.121 203.82C354.161 204.18 353.321 204.64 352.601 205.2C351.921 205.76 351.341 206.5 350.861 207.42C350.421 208.3 350.201 209.3 350.201 210.42C350.201 213.18 351.061 215.22 352.781 216.54C354.541 217.86 357.241 218.52 360.881 218.52ZM417.551 193.26C423.231 193.26 427.811 194.4 431.291 196.68C431.571 196.84 431.731 196.94 431.771 196.98L426.551 207.66C426.191 207.46 425.671 207.22 424.991 206.94C424.311 206.62 423.031 206.2 421.151 205.68C419.271 205.16 417.491 204.84 415.811 204.72C414.331 204.64 412.931 204.72 411.611 204.96C410.291 205.2 409.251 205.46 408.491 205.74C407.731 205.98 406.871 206.44 405.911 207.12C404.991 207.76 404.411 208.2 404.171 208.44C403.971 208.64 403.511 209.08 402.791 209.76V228H388.811V193.2H389.831H402.791V198.06C405.351 194.86 410.271 193.26 417.551 193.26ZM454.971 193.02C457.931 193.02 460.591 193.16 462.951 193.44C465.311 193.68 467.671 194.2 470.031 195C472.391 195.76 474.351 196.78 475.911 198.06C477.471 199.34 478.731 201.06 479.691 203.22C480.651 205.34 481.131 207.84 481.131 210.72C481.131 214 480.531 216.8 479.331 219.12C478.171 221.44 476.431 223.28 474.111 224.64C471.791 225.96 469.111 226.92 466.071 227.52C463.031 228.08 459.451 228.36 455.331 228.36C451.131 228.36 447.511 228.06 444.471 227.46C441.431 226.86 438.791 225.9 436.551 224.58C434.311 223.22 432.631 221.4 431.511 219.12C430.431 216.8 429.891 214 429.891 210.72C429.891 207.92 430.331 205.46 431.211 203.34C432.131 201.22 433.331 199.52 434.811 198.24C436.291 196.96 438.131 195.92 440.331 195.12C442.531 194.32 444.791 193.78 447.111 193.5C449.471 193.18 452.091 193.02 454.971 193.02ZM455.451 218.52C458.971 218.52 461.651 217.94 463.491 216.78C465.371 215.58 466.311 213.56 466.311 210.72C466.311 209.16 465.951 207.84 465.231 206.76C464.511 205.64 463.551 204.82 462.351 204.3C461.191 203.78 460.031 203.42 458.871 203.22C457.751 202.98 456.551 202.86 455.271 202.86C454.351 202.86 453.431 202.94 452.511 203.1C451.591 203.22 450.651 203.46 449.691 203.82C448.731 204.18 447.891 204.64 447.171 205.2C446.491 205.76 445.911 206.5 445.431 207.42C444.991 208.3 444.771 209.3 444.771 210.42C444.771 213.18 445.631 215.22 447.351 216.54C449.111 217.86 451.811 218.52 455.451 218.52ZM529.569 200.34C530.529 202.5 531.109 205.28 531.309 208.68C531.549 212.04 531.669 217.56 531.669 225.24V228H517.689V216.54C517.689 216.42 517.689 216.24 517.689 216C517.689 215.24 517.689 214.66 517.689 214.26C517.689 213.82 517.649 213.2 517.569 212.4C517.529 211.6 517.449 210.98 517.329 210.54C517.249 210.06 517.089 209.48 516.849 208.8C516.649 208.08 516.389 207.52 516.069 207.12C515.789 206.68 515.409 206.22 514.929 205.74C514.489 205.26 513.969 204.88 513.369 204.6C512.769 204.32 512.049 204.1 511.209 203.94C510.369 203.74 509.449 203.64 508.449 203.64C505.889 203.64 503.829 204.02 502.269 204.78C500.749 205.5 499.329 206.54 498.009 207.9V228H483.909V193.26H498.009V198.06C499.289 197.14 500.269 196.48 500.949 196.08C501.669 195.64 502.649 195.14 503.889 194.58C505.169 193.98 506.549 193.56 508.029 193.32C509.509 193.08 511.209 192.96 513.129 192.96C515.009 192.96 516.669 193.04 518.109 193.2C519.549 193.36 521.049 193.68 522.609 194.16C524.209 194.64 525.589 195.4 526.749 196.44C527.949 197.48 528.889 198.78 529.569 200.34ZM584.326 228.06H570.526C570.526 227.06 570.506 226 570.466 224.88C566.226 227.4 561.326 228.66 555.766 228.66C554.126 228.66 552.726 228.64 551.566 228.6C550.446 228.56 549.046 228.46 547.366 228.3C545.686 228.14 544.266 227.92 543.106 227.64C541.946 227.36 540.726 226.94 539.446 226.38C538.166 225.82 537.126 225.16 536.326 224.4C535.526 223.6 534.866 222.6 534.346 221.4C533.826 220.16 533.566 218.8 533.566 217.32C533.566 215.44 534.166 213.82 535.366 212.46C536.606 211.06 538.286 209.96 540.406 209.16C542.526 208.36 544.846 207.78 547.366 207.42C549.886 207.02 552.606 206.82 555.526 206.82C560.486 206.82 564.966 207.56 568.966 209.04C568.166 206.64 566.806 205.08 564.886 204.36C563.006 203.6 560.006 203.22 555.886 203.22C552.526 203.22 549.286 203.46 546.166 203.94C543.086 204.38 541.106 204.74 540.226 205.02C539.386 205.26 538.666 205.48 538.066 205.68L534.946 196.2C541.746 193.68 549.006 192.42 556.726 192.42C558.406 192.42 560.046 192.48 561.646 192.6C563.246 192.68 565.146 192.92 567.346 193.32C569.546 193.68 571.506 194.18 573.226 194.82C574.986 195.46 576.646 196.4 578.206 197.64C579.766 198.84 580.906 200.24 581.626 201.84C582.786 204.48 583.526 207.82 583.846 211.86C584.166 215.86 584.326 221.26 584.326 228.06ZM557.326 219.84C560.246 219.84 562.926 219.54 565.366 218.94C567.806 218.3 569.206 217.72 569.566 217.2C569.566 216.84 569.566 216.62 569.566 216.54C568.446 215.5 564.606 214.98 558.046 214.98C554.726 214.98 552.346 215.18 550.906 215.58C549.466 215.94 548.746 216.52 548.746 217.32C548.746 219 551.606 219.84 557.326 219.84ZM48.5411 231.88V245.44L21.3011 262.36H48.5411V274H1.62109H1.56109H0.841094V260.56L28.5611 243.58H0.841094V231.88H48.5411ZM108.695 231.52C113.975 231.52 118.515 231.98 122.315 232.9C126.115 233.78 129.115 235.08 131.315 236.8C133.515 238.48 135.115 240.44 136.115 242.68C137.115 244.92 137.615 247.52 137.615 250.48H123.275C123.235 250.28 123.155 250.02 123.035 249.7C122.955 249.38 122.615 248.84 122.015 248.08C121.415 247.28 120.635 246.58 119.675 245.98C118.715 245.34 117.255 244.78 115.295 244.3C113.375 243.78 111.135 243.52 108.575 243.52C106.295 243.52 104.295 243.7 102.575 244.06C100.895 244.42 99.5553 244.88 98.5553 245.44C97.5953 246 96.8153 246.72 96.2153 247.6C95.6553 248.44 95.2753 249.28 95.0753 250.12C94.8753 250.92 94.7753 251.82 94.7753 252.82C94.7753 254.22 94.9953 255.46 95.4353 256.54C95.8753 257.62 96.5953 258.62 97.5953 259.54C98.5953 260.42 100.015 261.1 101.855 261.58C103.695 262.06 105.935 262.3 108.575 262.3C111.295 262.3 113.655 262.1 115.655 261.7C117.655 261.3 119.115 260.82 120.035 260.26C120.955 259.7 121.675 259.14 122.195 258.58C122.755 257.98 123.075 257.48 123.155 257.08L123.275 256.48H137.615C137.615 258.52 137.355 260.38 136.835 262.06C136.315 263.7 135.395 265.3 134.075 266.86C132.755 268.42 131.035 269.72 128.915 270.76C126.835 271.8 124.115 272.64 120.755 273.28C117.395 273.88 113.495 274.18 109.055 274.18C103.615 274.18 99.0553 273.78 95.3753 272.98C91.6953 272.14 88.7353 270.84 86.4953 269.08C84.2953 267.28 82.7153 265.12 81.7553 262.6C80.7953 260.08 80.3153 256.98 80.3153 253.3C80.3153 249.34 80.9153 245.96 82.1153 243.16C83.3553 240.32 85.1953 238.06 87.6353 236.38C90.0753 234.66 93.0153 233.42 96.4553 232.66C99.8953 231.9 103.975 231.52 108.695 231.52ZM166.163 239.02C169.123 239.02 171.783 239.16 174.143 239.44C176.503 239.68 178.863 240.2 181.223 241C183.583 241.76 185.543 242.78 187.103 244.06C188.663 245.34 189.923 247.06 190.883 249.22C191.843 251.34 192.323 253.84 192.323 256.72C192.323 260 191.723 262.8 190.523 265.12C189.363 267.44 187.623 269.28 185.303 270.64C182.983 271.96 180.303 272.92 177.263 273.52C174.223 274.08 170.643 274.36 166.523 274.36C162.323 274.36 158.703 274.06 155.663 273.46C152.623 272.86 149.983 271.9 147.743 270.58C145.503 269.22 143.823 267.4 142.703 265.12C141.623 262.8 141.083 260 141.083 256.72C141.083 253.92 141.523 251.46 142.403 249.34C143.323 247.22 144.523 245.52 146.003 244.24C147.483 242.96 149.323 241.92 151.523 241.12C153.723 240.32 155.983 239.78 158.303 239.5C160.663 239.18 163.283 239.02 166.163 239.02ZM166.643 264.52C170.163 264.52 172.843 263.94 174.683 262.78C176.563 261.58 177.503 259.56 177.503 256.72C177.503 255.16 177.143 253.84 176.423 252.76C175.703 251.64 174.743 250.82 173.543 250.3C172.383 249.78 171.223 249.42 170.063 249.22C168.943 248.98 167.743 248.86 166.463 248.86C165.543 248.86 164.623 248.94 163.703 249.1C162.783 249.22 161.843 249.46 160.883 249.82C159.923 250.18 159.083 250.64 158.363 251.2C157.683 251.76 157.103 252.5 156.623 253.42C156.183 254.3 155.963 255.3 155.963 256.42C155.963 259.18 156.823 261.22 158.543 262.54C160.303 263.86 163.003 264.52 166.643 264.52ZM223.313 239.26C228.993 239.26 233.573 240.4 237.053 242.68C237.333 242.84 237.493 242.94 237.533 242.98L232.313 253.66C231.953 253.46 231.433 253.22 230.753 252.94C230.073 252.62 228.793 252.2 226.913 251.68C225.033 251.16 223.253 250.84 221.573 250.72C220.093 250.64 218.693 250.72 217.373 250.96C216.053 251.2 215.013 251.46 214.253 251.74C213.493 251.98 212.633 252.44 211.673 253.12C210.753 253.76 210.173 254.2 209.933 254.44C209.733 254.64 209.273 255.08 208.553 255.76V274H194.573V239.2H195.593H208.553V244.06C211.113 240.86 216.033 239.26 223.313 239.26ZM260.733 239.02C263.693 239.02 266.353 239.16 268.713 239.44C271.073 239.68 273.433 240.2 275.793 241C278.153 241.76 280.113 242.78 281.673 244.06C283.233 245.34 284.493 247.06 285.453 249.22C286.413 251.34 286.893 253.84 286.893 256.72C286.893 260 286.293 262.8 285.093 265.12C283.933 267.44 282.193 269.28 279.873 270.64C277.553 271.96 274.873 272.92 271.833 273.52C268.793 274.08 265.213 274.36 261.093 274.36C256.893 274.36 253.273 274.06 250.233 273.46C247.193 272.86 244.553 271.9 242.313 270.58C240.073 269.22 238.393 267.4 237.273 265.12C236.193 262.8 235.653 260 235.653 256.72C235.653 253.92 236.093 251.46 236.973 249.34C237.893 247.22 239.093 245.52 240.573 244.24C242.053 242.96 243.893 241.92 246.093 241.12C248.293 240.32 250.553 239.78 252.873 239.5C255.233 239.18 257.853 239.02 260.733 239.02ZM261.213 264.52C264.733 264.52 267.413 263.94 269.253 262.78C271.133 261.58 272.073 259.56 272.073 256.72C272.073 255.16 271.713 253.84 270.993 252.76C270.273 251.64 269.313 250.82 268.113 250.3C266.953 249.78 265.793 249.42 264.633 249.22C263.513 248.98 262.313 248.86 261.033 248.86C260.113 248.86 259.193 248.94 258.273 249.1C257.353 249.22 256.413 249.46 255.453 249.82C254.493 250.18 253.653 250.64 252.933 251.2C252.253 251.76 251.673 252.5 251.193 253.42C250.753 254.3 250.533 255.3 250.533 256.42C250.533 259.18 251.393 261.22 253.113 262.54C254.873 263.86 257.573 264.52 261.213 264.52ZM335.331 246.34C336.291 248.5 336.871 251.28 337.071 254.68C337.311 258.04 337.431 263.56 337.431 271.24V274H323.451V262.54C323.451 262.42 323.451 262.24 323.451 262C323.451 261.24 323.451 260.66 323.451 260.26C323.451 259.82 323.411 259.2 323.331 258.4C323.291 257.6 323.211 256.98 323.091 256.54C323.011 256.06 322.851 255.48 322.611 254.8C322.411 254.08 322.151 253.52 321.831 253.12C321.551 252.68 321.171 252.22 320.691 251.74C320.251 251.26 319.731 250.88 319.131 250.6C318.531 250.32 317.811 250.1 316.971 249.94C316.131 249.74 315.211 249.64 314.211 249.64C311.651 249.64 309.591 250.02 308.031 250.78C306.511 251.5 305.091 252.54 303.771 253.9V274H289.671V239.26H303.771V244.06C305.051 243.14 306.031 242.48 306.711 242.08C307.431 241.64 308.411 241.14 309.651 240.58C310.931 239.98 312.311 239.56 313.791 239.32C315.271 239.08 316.971 238.96 318.891 238.96C320.771 238.96 322.431 239.04 323.871 239.2C325.311 239.36 326.811 239.68 328.371 240.16C329.971 240.64 331.351 241.4 332.511 242.44C333.711 243.48 334.651 244.78 335.331 246.34ZM390.087 274.06H376.287C376.287 273.06 376.267 272 376.227 270.88C371.987 273.4 367.087 274.66 361.527 274.66C359.887 274.66 358.487 274.64 357.327 274.6C356.207 274.56 354.807 274.46 353.127 274.3C351.447 274.14 350.027 273.92 348.867 273.64C347.707 273.36 346.487 272.94 345.207 272.38C343.927 271.82 342.887 271.16 342.087 270.4C341.287 269.6 340.627 268.6 340.107 267.4C339.587 266.16 339.327 264.8 339.327 263.32C339.327 261.44 339.927 259.82 341.127 258.46C342.367 257.06 344.047 255.96 346.167 255.16C348.287 254.36 350.607 253.78 353.127 253.42C355.647 253.02 358.367 252.82 361.287 252.82C366.247 252.82 370.727 253.56 374.727 255.04C373.927 252.64 372.567 251.08 370.647 250.36C368.767 249.6 365.767 249.22 361.647 249.22C358.287 249.22 355.047 249.46 351.927 249.94C348.847 250.38 346.867 250.74 345.987 251.02C345.147 251.26 344.427 251.48 343.827 251.68L340.707 242.2C347.507 239.68 354.767 238.42 362.487 238.42C364.167 238.42 365.807 238.48 367.407 238.6C369.007 238.68 370.907 238.92 373.107 239.32C375.307 239.68 377.267 240.18 378.987 240.82C380.747 241.46 382.407 242.4 383.967 243.64C385.527 244.84 386.667 246.24 387.387 247.84C388.547 250.48 389.287 253.82 389.607 257.86C389.927 261.86 390.087 267.26 390.087 274.06ZM363.087 265.84C366.007 265.84 368.687 265.54 371.127 264.94C373.567 264.3 374.967 263.72 375.327 263.2C375.327 262.84 375.327 262.62 375.327 262.54C374.207 261.5 370.367 260.98 363.807 260.98C360.487 260.98 358.107 261.18 356.667 261.58C355.227 261.94 354.507 262.52 354.507 263.32C354.507 265 357.367 265.84 363.087 265.84ZM468.658 231.88V245.44L441.418 262.36H468.658V274H421.738H421.678H420.958V260.56L448.678 243.58H420.958V231.88H468.658ZM497.276 238.42C501.396 238.42 504.976 238.78 508.016 239.5C511.056 240.22 513.696 241.4 515.936 243.04C518.176 244.68 519.816 246.92 520.856 249.76C521.896 252.56 522.256 255.94 521.936 259.9H486.296C486.496 260.98 487.476 261.86 489.236 262.54C490.996 263.22 493.636 263.56 497.156 263.56C500.236 263.56 503.296 263.36 506.336 262.96C509.416 262.56 511.736 262.16 513.296 261.76L515.576 261.16L521.576 270.88C521.456 270.96 521.236 271.08 520.916 271.24C520.596 271.36 519.776 271.6 518.456 271.96C517.176 272.32 515.716 272.64 514.076 272.92C512.436 273.2 510.156 273.46 507.236 273.7C504.316 273.9 501.116 274 497.636 274C493.556 274 489.996 273.72 486.956 273.16C483.956 272.6 481.496 271.82 479.576 270.82C477.696 269.82 476.176 268.56 475.016 267.04C473.856 265.52 473.056 263.9 472.616 262.18C472.176 260.46 471.956 258.46 471.956 256.18C471.956 250.58 474.076 246.22 478.316 243.1C482.596 239.98 488.916 238.42 497.276 238.42ZM497.396 249.16C495.196 249.16 493.316 249.32 491.756 249.64C490.196 249.96 489.056 250.38 488.336 250.9C487.616 251.38 487.096 251.86 486.776 252.34C486.456 252.82 486.296 253.3 486.296 253.78H507.776C507.776 252.46 506.976 251.36 505.376 250.48C503.816 249.6 501.156 249.16 497.396 249.16ZM524.812 239.26H538.792V274H524.812V239.26ZM524.812 229.78H538.792V236.56H524.812V229.78ZM567.948 262.6C568.948 262.6 570.028 262.54 571.188 262.42C572.348 262.26 573.388 262.08 574.308 261.88C575.228 261.68 576.068 261.48 576.828 261.28C577.628 261.04 578.248 260.86 578.688 260.74C579.168 260.58 579.388 260.5 579.348 260.5L584.328 271.3C583.728 271.54 582.848 271.82 581.688 272.14C580.528 272.42 578.028 272.84 574.188 273.4C570.388 273.92 566.428 274.18 562.308 274.18C560.348 274.18 558.728 274.12 557.448 274C556.208 273.84 555.068 273.52 554.028 273.04C552.988 272.52 552.188 271.9 551.628 271.18C551.068 270.42 550.588 269.34 550.188 267.94C549.788 266.54 549.528 264.96 549.408 263.2C549.288 261.44 549.228 259.2 549.228 256.48V249.52H542.268V239.08H549.228V231.82H563.148V239.08H580.128V249.52H563.148V256.48C563.148 256.56 563.148 256.68 563.148 256.84C563.148 256.96 563.168 257.24 563.208 257.68C563.248 258.12 563.308 258.54 563.388 258.94C563.508 259.3 563.668 259.72 563.868 260.2C564.108 260.68 564.388 261.1 564.708 261.46C565.068 261.78 565.528 262.06 566.088 262.3C566.648 262.5 567.268 262.6 567.948 262.6Z" fill="black"/>
</svg>
