<svg width="620" height="178" viewBox="0 0 620 178" fill="none" xmlns="http://www.w3.org/2000/svg">
<path d="M159.909 39.28V1.36V0.999997H173.889V43H159.909V39.28ZM202.042 7.42C206.162 7.42 209.742 7.78 212.782 8.5C215.822 9.22 218.462 10.4 220.702 12.04C222.942 13.68 224.582 15.92 225.622 18.76C226.662 21.56 227.022 24.94 226.702 28.9H191.062C191.262 29.98 192.242 30.86 194.002 31.54C195.762 32.22 198.402 32.56 201.922 32.56C205.002 32.56 208.062 32.36 211.102 31.96C214.182 31.56 216.502 31.16 218.062 30.76L220.342 30.16L226.342 39.88C226.222 39.96 226.002 40.08 225.682 40.24C225.362 40.36 224.542 40.6 223.222 40.96C221.942 41.32 220.482 41.64 218.842 41.92C217.202 42.2 214.922 42.46 212.002 42.7C209.082 42.9 205.882 43 202.402 43C198.322 43 194.762 42.72 191.722 42.16C188.722 41.6 186.262 40.82 184.342 39.82C182.462 38.82 180.942 37.56 179.782 36.04C178.622 34.52 177.822 32.9 177.382 31.18C176.942 29.46 176.722 27.46 176.722 25.18C176.722 19.58 178.842 15.22 183.082 12.1C187.362 8.98 193.682 7.42 202.042 7.42ZM202.162 18.16C199.962 18.16 198.082 18.32 196.522 18.64C194.962 18.96 193.822 19.38 193.102 19.9C192.382 20.38 191.862 20.86 191.542 21.34C191.222 21.82 191.062 22.3 191.062 22.78H212.542C212.542 21.46 211.742 20.36 210.142 19.48C208.582 18.6 205.922 18.16 202.162 18.16ZM230.042 0.879999H244.022V11.86C248.902 9.42 254.382 8.2 260.462 8.2C267.342 8.2 272.742 9.62 276.662 12.46C280.622 15.3 282.602 19.54 282.602 25.18C282.602 28.02 282.222 30.52 281.462 32.68C280.702 34.8 279.682 36.52 278.402 37.84C277.122 39.16 275.502 40.24 273.542 41.08C271.582 41.88 269.542 42.44 267.422 42.76C265.302 43.04 262.882 43.18 260.162 43.18C253.202 43.18 247.822 41.84 244.022 39.16V42.88H230.042V0.879999ZM244.022 23.56V28.3C245.142 30.1 246.682 31.3 248.642 31.9C250.602 32.46 253.522 32.74 257.402 32.74C264.282 32.74 267.722 30.36 267.722 25.6C267.722 24.8 267.642 24.06 267.482 23.38C267.322 22.7 267.122 22.14 266.882 21.7C266.642 21.22 266.282 20.8 265.802 20.44C265.362 20.04 264.982 19.74 264.662 19.54C264.382 19.3 263.922 19.1 263.282 18.94C262.642 18.78 262.182 18.68 261.902 18.64C261.622 18.56 261.142 18.5 260.462 18.46C259.782 18.42 259.382 18.4 259.262 18.4C259.182 18.4 258.842 18.4 258.242 18.4C250.042 18.4 245.302 20.12 244.022 23.56ZM310.381 7.42C314.501 7.42 318.081 7.78 321.121 8.5C324.161 9.22 326.801 10.4 329.041 12.04C331.281 13.68 332.921 15.92 333.961 18.76C335.001 21.56 335.361 24.94 335.041 28.9H299.401C299.601 29.98 300.581 30.86 302.341 31.54C304.101 32.22 306.741 32.56 310.261 32.56C313.341 32.56 316.401 32.36 319.441 31.96C322.521 31.56 324.841 31.16 326.401 30.76L328.681 30.16L334.681 39.88C334.561 39.96 334.341 40.08 334.021 40.24C333.701 40.36 332.881 40.6 331.561 40.96C330.281 41.32 328.821 41.64 327.181 41.92C325.541 42.2 323.261 42.46 320.341 42.7C317.421 42.9 314.221 43 310.741 43C306.661 43 303.101 42.72 300.061 42.16C297.061 41.6 294.601 40.82 292.681 39.82C290.801 38.82 289.281 37.56 288.121 36.04C286.961 34.52 286.161 32.9 285.721 31.18C285.281 29.46 285.061 27.46 285.061 25.18C285.061 19.58 287.181 15.22 291.421 12.1C295.701 8.98 302.021 7.42 310.381 7.42ZM310.501 18.16C308.301 18.16 306.421 18.32 304.861 18.64C303.301 18.96 302.161 19.38 301.441 19.9C300.721 20.38 300.201 20.86 299.881 21.34C299.561 21.82 299.401 22.3 299.401 22.78H320.881C320.881 21.46 320.081 20.36 318.481 19.48C316.921 18.6 314.261 18.16 310.501 18.16ZM383.046 15.34C384.006 17.5 384.586 20.28 384.786 23.68C385.026 27.04 385.146 32.56 385.146 40.24V43H371.166V31.54C371.166 31.42 371.166 31.24 371.166 31C371.166 30.24 371.166 29.66 371.166 29.26C371.166 28.82 371.126 28.2 371.046 27.4C371.006 26.6 370.926 25.98 370.806 25.54C370.726 25.06 370.566 24.48 370.326 23.8C370.126 23.08 369.866 22.52 369.546 22.12C369.266 21.68 368.886 21.22 368.406 20.74C367.966 20.26 367.446 19.88 366.846 19.6C366.246 19.32 365.526 19.1 364.686 18.94C363.846 18.74 362.926 18.64 361.926 18.64C359.366 18.64 357.306 19.02 355.746 19.78C354.226 20.5 352.806 21.54 351.486 22.9V43H337.386V8.26H351.486V13.06C352.766 12.14 353.746 11.48 354.426 11.08C355.146 10.64 356.126 10.14 357.366 9.58C358.646 8.98 360.026 8.56 361.506 8.32C362.986 8.08 364.686 7.96 366.606 7.96C368.486 7.96 370.146 8.04 371.586 8.2C373.026 8.36 374.526 8.68 376.086 9.16C377.686 9.64 379.066 10.4 380.226 11.44C381.426 12.48 382.366 13.78 383.046 15.34ZM416.839 8.2H462.139V19.3H461.719L438.259 31.84H462.139V43H416.899H416.839V31.84H417.379L442.219 19.3H416.839V8.2ZM502.913 8.2H516.713V43H502.913V37.66C499.393 41.18 494.293 42.94 487.613 42.94C482.213 42.94 477.973 42.36 474.893 41.2C471.853 40 469.593 37.82 468.113 34.66C467.033 32.38 466.313 29.56 465.953 26.2C465.593 22.84 465.413 17.76 465.413 10.96L465.473 8.2H479.273V19.66C479.273 19.7 479.273 19.76 479.273 19.84C479.273 20.84 479.273 21.6 479.273 22.12C479.313 22.64 479.393 23.38 479.513 24.34C479.673 25.3 479.873 26.06 480.113 26.62C480.353 27.14 480.713 27.76 481.193 28.48C481.713 29.16 482.313 29.68 482.993 30.04C483.713 30.4 484.613 30.72 485.693 31C486.813 31.28 488.073 31.42 489.473 31.42C494.393 31.42 498.873 29.6 502.913 25.96V8.2ZM542.012 21.34C546.132 21.34 549.512 21.44 552.152 21.64C554.832 21.84 557.152 22.16 559.112 22.6C561.112 23.04 562.612 23.7 563.612 24.58C564.652 25.46 565.392 26.52 565.832 27.76C566.312 28.96 566.552 30.5 566.552 32.38C566.552 34.02 566.432 35.4 566.192 36.52C565.992 37.6 565.552 38.62 564.872 39.58C564.192 40.5 563.292 41.24 562.172 41.8C561.092 42.36 559.612 42.84 557.732 43.24C555.892 43.64 553.712 43.92 551.192 44.08C548.712 44.24 545.712 44.32 542.192 44.32C529.992 44.32 522.812 43.32 520.652 41.32L524.552 31.36C525.512 32 527.872 32.54 531.632 32.98C535.392 33.38 539.092 33.58 542.732 33.58C543.372 33.58 544.252 33.58 545.372 33.58C548.692 33.58 550.872 33.54 551.912 33.46C552.952 33.34 553.472 33.04 553.472 32.56C553.472 31.24 549.592 30.58 541.832 30.58C538.672 30.58 535.972 30.5 533.732 30.34C531.532 30.14 529.472 29.8 527.552 29.32C525.672 28.84 524.172 28.2 523.052 27.4C521.932 26.56 521.052 25.5 520.412 24.22C519.812 22.9 519.512 21.34 519.512 19.54C519.512 18.22 519.612 17.04 519.812 16C520.052 14.96 520.432 14.06 520.952 13.3C521.472 12.5 522.052 11.82 522.692 11.26C523.332 10.66 524.172 10.16 525.212 9.76C526.292 9.36 527.372 9.04 528.452 8.8C529.572 8.56 530.952 8.38 532.592 8.26C534.232 8.14 535.832 8.06 537.392 8.02C538.952 7.94 540.832 7.9 543.032 7.9C547.912 7.9 551.872 8.06 554.912 8.38C557.992 8.7 560.192 9.08 561.512 9.52C562.872 9.96 564.312 10.58 565.832 11.38L561.512 20.92C559.632 20.24 556.812 19.66 553.052 19.18C549.332 18.66 545.692 18.4 542.132 18.4C541.812 18.4 541.352 18.4 540.752 18.4C537.432 18.4 535.292 18.46 534.332 18.58C533.372 18.7 532.892 19.06 532.892 19.66C532.932 20.78 535.972 21.34 542.012 21.34ZM619.326 43.06H605.526C605.526 42.06 605.506 41 605.466 39.88C601.226 42.4 596.326 43.66 590.766 43.66C589.126 43.66 587.726 43.64 586.566 43.6C585.446 43.56 584.046 43.46 582.366 43.3C580.686 43.14 579.266 42.92 578.106 42.64C576.946 42.36 575.726 41.94 574.446 41.38C573.166 40.82 572.126 40.16 571.326 39.4C570.526 38.6 569.866 37.6 569.346 36.4C568.826 35.16 568.566 33.8 568.566 32.32C568.566 30.44 569.166 28.82 570.366 27.46C571.606 26.06 573.286 24.96 575.406 24.16C577.526 23.36 579.846 22.78 582.366 22.42C584.886 22.02 587.606 21.82 590.526 21.82C595.486 21.82 599.966 22.56 603.966 24.04C603.166 21.64 601.806 20.08 599.886 19.36C598.006 18.6 595.006 18.22 590.886 18.22C587.526 18.22 584.286 18.46 581.166 18.94C578.086 19.38 576.106 19.74 575.226 20.02C574.386 20.26 573.666 20.48 573.066 20.68L569.946 11.2C576.746 8.68 584.006 7.42 591.726 7.42C593.406 7.42 595.046 7.48 596.646 7.6C598.246 7.68 600.146 7.92 602.346 8.32C604.546 8.68 606.506 9.18 608.226 9.82C609.986 10.46 611.646 11.4 613.206 12.64C614.766 13.84 615.906 15.24 616.626 16.84C617.786 19.48 618.526 22.82 618.846 26.86C619.166 30.86 619.326 36.26 619.326 43.06ZM592.326 34.84C595.246 34.84 597.926 34.54 600.366 33.94C602.806 33.3 604.206 32.72 604.566 32.2C604.566 31.84 604.566 31.62 604.566 31.54C603.446 30.5 599.606 29.98 593.046 29.98C589.726 29.98 587.346 30.18 585.906 30.58C584.466 30.94 583.746 31.52 583.746 32.32C583.746 34 586.606 34.84 592.326 34.84ZM1.00313 83.28V45.36V45H14.9831V87H1.00313V83.28ZM43.1353 51.42C47.2553 51.42 50.8353 51.78 53.8753 52.5C56.9153 53.22 59.5553 54.4 61.7953 56.04C64.0353 57.68 65.6753 59.92 66.7153 62.76C67.7553 65.56 68.1153 68.94 67.7953 72.9H32.1553C32.3553 73.98 33.3353 74.86 35.0953 75.54C36.8553 76.22 39.4953 76.56 43.0153 76.56C46.0953 76.56 49.1553 76.36 52.1953 75.96C55.2753 75.56 57.5953 75.16 59.1553 74.76L61.4353 74.16L67.4353 83.88C67.3153 83.96 67.0953 84.08 66.7753 84.24C66.4553 84.36 65.6353 84.6 64.3153 84.96C63.0353 85.32 61.5753 85.64 59.9353 85.92C58.2953 86.2 56.0153 86.46 53.0953 86.7C50.1753 86.9 46.9753 87 43.4953 87C39.4153 87 35.8553 86.72 32.8153 86.16C29.8153 85.6 27.3553 84.82 25.4353 83.82C23.5553 82.82 22.0353 81.56 20.8753 80.04C19.7153 78.52 18.9153 76.9 18.4753 75.18C18.0353 73.46 17.8153 71.46 17.8153 69.18C17.8153 63.58 19.9353 59.22 24.1753 56.1C28.4553 52.98 34.7753 51.42 43.1353 51.42ZM43.2553 62.16C41.0553 62.16 39.1753 62.32 37.6153 62.64C36.0553 62.96 34.9153 63.38 34.1953 63.9C33.4753 64.38 32.9553 64.86 32.6353 65.34C32.3153 65.82 32.1553 66.3 32.1553 66.78H53.6353C53.6353 65.46 52.8353 64.36 51.2353 63.48C49.6753 62.6 47.0153 62.16 43.2553 62.16ZM71.1356 44.88H85.1156V55.86C89.9956 53.42 95.4756 52.2 101.556 52.2C108.436 52.2 113.836 53.62 117.756 56.46C121.716 59.3 123.696 63.54 123.696 69.18C123.696 72.02 123.316 74.52 122.556 76.68C121.796 78.8 120.776 80.52 119.496 81.84C118.216 83.16 116.596 84.24 114.636 85.08C112.676 85.88 110.636 86.44 108.516 86.76C106.396 87.04 103.976 87.18 101.256 87.18C94.2956 87.18 88.9156 85.84 85.1156 83.16V86.88H71.1356V44.88ZM85.1156 67.56V72.3C86.2356 74.1 87.7756 75.3 89.7356 75.9C91.6956 76.46 94.6156 76.74 98.4956 76.74C105.376 76.74 108.816 74.36 108.816 69.6C108.816 68.8 108.736 68.06 108.576 67.38C108.416 66.7 108.216 66.14 107.976 65.7C107.736 65.22 107.376 64.8 106.896 64.44C106.456 64.04 106.076 63.74 105.756 63.54C105.476 63.3 105.016 63.1 104.376 62.94C103.736 62.78 103.276 62.68 102.996 62.64C102.716 62.56 102.236 62.5 101.556 62.46C100.876 62.42 100.476 62.4 100.356 62.4C100.276 62.4 99.9356 62.4 99.3356 62.4C91.1356 62.4 86.3956 64.12 85.1156 67.56ZM151.475 51.42C155.595 51.42 159.175 51.78 162.215 52.5C165.255 53.22 167.895 54.4 170.135 56.04C172.375 57.68 174.015 59.92 175.055 62.76C176.095 65.56 176.455 68.94 176.135 72.9H140.495C140.695 73.98 141.675 74.86 143.435 75.54C145.195 76.22 147.835 76.56 151.355 76.56C154.435 76.56 157.495 76.36 160.535 75.96C163.615 75.56 165.935 75.16 167.495 74.76L169.775 74.16L175.775 83.88C175.655 83.96 175.435 84.08 175.115 84.24C174.795 84.36 173.975 84.6 172.655 84.96C171.375 85.32 169.915 85.64 168.275 85.92C166.635 86.2 164.355 86.46 161.435 86.7C158.515 86.9 155.315 87 151.835 87C147.755 87 144.195 86.72 141.155 86.16C138.155 85.6 135.695 84.82 133.775 83.82C131.895 82.82 130.375 81.56 129.215 80.04C128.055 78.52 127.255 76.9 126.815 75.18C126.375 73.46 126.155 71.46 126.155 69.18C126.155 63.58 128.275 59.22 132.515 56.1C136.795 52.98 143.115 51.42 151.475 51.42ZM151.595 62.16C149.395 62.16 147.515 62.32 145.955 62.64C144.395 62.96 143.255 63.38 142.535 63.9C141.815 64.38 141.295 64.86 140.975 65.34C140.655 65.82 140.495 66.3 140.495 66.78H161.975C161.975 65.46 161.175 64.36 159.575 63.48C158.015 62.6 155.355 62.16 151.595 62.16ZM224.139 59.34C225.099 61.5 225.679 64.28 225.879 67.68C226.119 71.04 226.239 76.56 226.239 84.24V87H212.259V75.54C212.259 75.42 212.259 75.24 212.259 75C212.259 74.24 212.259 73.66 212.259 73.26C212.259 72.82 212.219 72.2 212.139 71.4C212.099 70.6 212.019 69.98 211.899 69.54C211.819 69.06 211.659 68.48 211.419 67.8C211.219 67.08 210.959 66.52 210.639 66.12C210.359 65.68 209.979 65.22 209.499 64.74C209.059 64.26 208.539 63.88 207.939 63.6C207.339 63.32 206.619 63.1 205.779 62.94C204.939 62.74 204.019 62.64 203.019 62.64C200.459 62.64 198.399 63.02 196.839 63.78C195.319 64.5 193.899 65.54 192.579 66.9V87H178.479V52.26H192.579V57.06C193.859 56.14 194.839 55.48 195.519 55.08C196.239 54.64 197.219 54.14 198.459 53.58C199.739 52.98 201.119 52.56 202.599 52.32C204.079 52.08 205.779 51.96 207.699 51.96C209.579 51.96 211.239 52.04 212.679 52.2C214.119 52.36 215.619 52.68 217.179 53.16C218.779 53.64 220.159 54.4 221.319 55.44C222.519 56.48 223.459 57.78 224.139 59.34ZM257.933 52.2H303.233V63.3H302.813L279.353 75.84H303.233V87H257.993H257.933V75.84H258.473L283.313 63.3H257.933V52.2ZM344.007 52.2H357.807V87H344.007V81.66C340.487 85.18 335.387 86.94 328.707 86.94C323.307 86.94 319.067 86.36 315.987 85.2C312.947 84 310.687 81.82 309.207 78.66C308.127 76.38 307.407 73.56 307.047 70.2C306.687 66.84 306.507 61.76 306.507 54.96L306.567 52.2H320.367V63.66C320.367 63.7 320.367 63.76 320.367 63.84C320.367 64.84 320.367 65.6 320.367 66.12C320.407 66.64 320.487 67.38 320.607 68.34C320.767 69.3 320.967 70.06 321.207 70.62C321.447 71.14 321.807 71.76 322.287 72.48C322.807 73.16 323.407 73.68 324.087 74.04C324.807 74.4 325.707 74.72 326.787 75C327.907 75.28 329.167 75.42 330.567 75.42C335.487 75.42 339.967 73.6 344.007 69.96V52.2ZM383.106 65.34C387.226 65.34 390.606 65.44 393.246 65.64C395.926 65.84 398.246 66.16 400.206 66.6C402.206 67.04 403.706 67.7 404.706 68.58C405.746 69.46 406.486 70.52 406.926 71.76C407.406 72.96 407.646 74.5 407.646 76.38C407.646 78.02 407.526 79.4 407.286 80.52C407.086 81.6 406.646 82.62 405.966 83.58C405.286 84.5 404.386 85.24 403.266 85.8C402.186 86.36 400.706 86.84 398.826 87.24C396.986 87.64 394.806 87.92 392.286 88.08C389.806 88.24 386.806 88.32 383.286 88.32C371.086 88.32 363.906 87.32 361.746 85.32L365.646 75.36C366.606 76 368.966 76.54 372.726 76.98C376.486 77.38 380.186 77.58 383.826 77.58C384.466 77.58 385.346 77.58 386.466 77.58C389.786 77.58 391.966 77.54 393.006 77.46C394.046 77.34 394.566 77.04 394.566 76.56C394.566 75.24 390.686 74.58 382.926 74.58C379.766 74.58 377.066 74.5 374.826 74.34C372.626 74.14 370.566 73.8 368.646 73.32C366.766 72.84 365.266 72.2 364.146 71.4C363.026 70.56 362.146 69.5 361.506 68.22C360.906 66.9 360.606 65.34 360.606 63.54C360.606 62.22 360.706 61.04 360.906 60C361.146 58.96 361.526 58.06 362.046 57.3C362.566 56.5 363.146 55.82 363.786 55.26C364.426 54.66 365.266 54.16 366.306 53.76C367.386 53.36 368.466 53.04 369.546 52.8C370.666 52.56 372.046 52.38 373.686 52.26C375.326 52.14 376.926 52.06 378.486 52.02C380.046 51.94 381.926 51.9 384.126 51.9C389.006 51.9 392.966 52.06 396.006 52.38C399.086 52.7 401.286 53.08 402.606 53.52C403.966 53.96 405.406 54.58 406.926 55.38L402.606 64.92C400.726 64.24 397.906 63.66 394.146 63.18C390.426 62.66 386.786 62.4 383.226 62.4C382.906 62.4 382.446 62.4 381.846 62.4C378.526 62.4 376.386 62.46 375.426 62.58C374.466 62.7 373.986 63.06 373.986 63.66C374.026 64.78 377.066 65.34 383.106 65.34ZM460.419 87.06H446.619C446.619 86.06 446.599 85 446.559 83.88C442.319 86.4 437.419 87.66 431.859 87.66C430.219 87.66 428.819 87.64 427.659 87.6C426.539 87.56 425.139 87.46 423.459 87.3C421.779 87.14 420.359 86.92 419.199 86.64C418.039 86.36 416.819 85.94 415.539 85.38C414.259 84.82 413.219 84.16 412.419 83.4C411.619 82.6 410.959 81.6 410.439 80.4C409.919 79.16 409.659 77.8 409.659 76.32C409.659 74.44 410.259 72.82 411.459 71.46C412.699 70.06 414.379 68.96 416.499 68.16C418.619 67.36 420.939 66.78 423.459 66.42C425.979 66.02 428.699 65.82 431.619 65.82C436.579 65.82 441.059 66.56 445.059 68.04C444.259 65.64 442.899 64.08 440.979 63.36C439.099 62.6 436.099 62.22 431.979 62.22C428.619 62.22 425.379 62.46 422.259 62.94C419.179 63.38 417.199 63.74 416.319 64.02C415.479 64.26 414.759 64.48 414.159 64.68L411.039 55.2C417.839 52.68 425.099 51.42 432.819 51.42C434.499 51.42 436.139 51.48 437.739 51.6C439.339 51.68 441.239 51.92 443.439 52.32C445.639 52.68 447.599 53.18 449.319 53.82C451.079 54.46 452.739 55.4 454.299 56.64C455.859 57.84 456.999 59.24 457.719 60.84C458.879 63.48 459.619 66.82 459.939 70.86C460.259 74.86 460.419 80.26 460.419 87.06ZM433.419 78.84C436.339 78.84 439.019 78.54 441.459 77.94C443.899 77.3 445.299 76.72 445.659 76.2C445.659 75.84 445.659 75.62 445.659 75.54C444.539 74.5 440.699 73.98 434.139 73.98C430.819 73.98 428.439 74.18 426.999 74.58C425.559 74.94 424.839 75.52 424.839 76.32C424.839 78 427.699 78.84 433.419 78.84ZM537.934 59.34C538.534 60.82 538.974 62.84 539.254 65.4C539.574 67.92 539.754 70.36 539.794 72.72C539.834 75.08 539.854 78.94 539.854 84.3V87H525.874V75.42C525.874 74.94 525.894 74.28 525.934 73.44C525.974 72.56 525.994 71.84 525.994 71.28C526.034 70.68 526.014 69.98 525.934 69.18C525.894 68.34 525.794 67.66 525.634 67.14C525.474 66.58 525.214 66 524.854 65.4C524.534 64.76 524.094 64.26 523.534 63.9C523.014 63.54 522.334 63.24 521.494 63C520.694 62.76 519.734 62.64 518.614 62.64C516.614 62.64 514.634 63.12 512.674 64.08C510.714 65 509.254 66.06 508.294 67.26C508.494 70.1 508.594 75.78 508.594 84.3V87H494.794V75.42C494.794 74.98 494.814 74.32 494.854 73.44C494.894 72.52 494.914 71.78 494.914 71.22C494.914 70.66 494.874 69.96 494.794 69.12C494.754 68.28 494.654 67.6 494.494 67.08C494.334 66.56 494.074 66 493.714 65.4C493.354 64.76 492.894 64.26 492.334 63.9C491.814 63.54 491.134 63.24 490.294 63C489.454 62.76 488.494 62.64 487.414 62.64C483.214 62.64 479.974 64.26 477.694 67.5V87H463.714V52.26H477.694V56.52C479.854 55.04 482.014 53.92 484.174 53.16C486.334 52.36 488.994 51.96 492.154 51.96C495.474 51.96 498.274 52.38 500.554 53.22C502.874 54.02 504.694 55.6 506.014 57.96C510.694 53.96 516.494 51.96 523.414 51.96C524.774 51.96 525.974 52.02 527.014 52.14C528.054 52.22 529.154 52.42 530.314 52.74C531.514 53.02 532.554 53.42 533.434 53.94C534.314 54.46 535.154 55.18 535.954 56.1C536.754 56.98 537.414 58.06 537.934 59.34ZM617.387 59.34C617.987 60.82 618.427 62.84 618.707 65.4C619.027 67.92 619.207 70.36 619.247 72.72C619.287 75.08 619.307 78.94 619.307 84.3V87H605.327V75.42C605.327 74.94 605.347 74.28 605.387 73.44C605.427 72.56 605.447 71.84 605.447 71.28C605.487 70.68 605.467 69.98 605.387 69.18C605.347 68.34 605.247 67.66 605.087 67.14C604.927 66.58 604.667 66 604.307 65.4C603.987 64.76 603.547 64.26 602.987 63.9C602.467 63.54 601.787 63.24 600.947 63C600.147 62.76 599.187 62.64 598.067 62.64C596.067 62.64 594.087 63.12 592.127 64.08C590.167 65 588.707 66.06 587.747 67.26C587.947 70.1 588.047 75.78 588.047 84.3V87H574.247V75.42C574.247 74.98 574.267 74.32 574.307 73.44C574.347 72.52 574.367 71.78 574.367 71.22C574.367 70.66 574.327 69.96 574.247 69.12C574.207 68.28 574.107 67.6 573.947 67.08C573.787 66.56 573.527 66 573.167 65.4C572.807 64.76 572.347 64.26 571.787 63.9C571.267 63.54 570.587 63.24 569.747 63C568.907 62.76 567.947 62.64 566.867 62.64C562.667 62.64 559.427 64.26 557.147 67.5V87H543.167V52.26H557.147V56.52C559.307 55.04 561.467 53.92 563.627 53.16C565.787 52.36 568.447 51.96 571.607 51.96C574.927 51.96 577.727 52.38 580.007 53.22C582.327 54.02 584.147 55.6 585.467 57.96C590.147 53.96 595.947 51.96 602.867 51.96C604.227 51.96 605.427 52.02 606.467 52.14C607.507 52.22 608.607 52.42 609.767 52.74C610.967 53.02 612.007 53.42 612.887 53.94C613.767 54.46 614.607 55.18 615.407 56.1C616.207 56.98 616.867 58.06 617.387 59.34ZM155.335 96.2H200.635V107.3H200.215L176.755 119.84H200.635V131H155.395H155.335V119.84H155.875L180.715 107.3H155.335V96.2ZM241.409 96.2H255.209V131H241.409V125.66C237.889 129.18 232.789 130.94 226.109 130.94C220.709 130.94 216.469 130.36 213.389 129.2C210.349 128 208.089 125.82 206.609 122.66C205.529 120.38 204.809 117.56 204.449 114.2C204.089 110.84 203.909 105.76 203.909 98.96L203.969 96.2H217.769V107.66C217.769 107.7 217.769 107.76 217.769 107.84C217.769 108.84 217.769 109.6 217.769 110.12C217.809 110.64 217.889 111.38 218.009 112.34C218.169 113.3 218.369 114.06 218.609 114.62C218.849 115.14 219.209 115.76 219.689 116.48C220.209 117.16 220.809 117.68 221.489 118.04C222.209 118.4 223.109 118.72 224.189 119C225.309 119.28 226.569 119.42 227.969 119.42C232.889 119.42 237.369 117.6 241.409 113.96V96.2ZM280.508 109.34C284.628 109.34 288.008 109.44 290.648 109.64C293.328 109.84 295.648 110.16 297.608 110.6C299.608 111.04 301.108 111.7 302.108 112.58C303.148 113.46 303.888 114.52 304.328 115.76C304.808 116.96 305.048 118.5 305.048 120.38C305.048 122.02 304.928 123.4 304.688 124.52C304.488 125.6 304.048 126.62 303.368 127.58C302.688 128.5 301.788 129.24 300.668 129.8C299.588 130.36 298.108 130.84 296.228 131.24C294.388 131.64 292.208 131.92 289.688 132.08C287.208 132.24 284.208 132.32 280.688 132.32C268.488 132.32 261.308 131.32 259.148 129.32L263.048 119.36C264.008 120 266.368 120.54 270.128 120.98C273.888 121.38 277.588 121.58 281.228 121.58C281.868 121.58 282.748 121.58 283.868 121.58C287.188 121.58 289.368 121.54 290.408 121.46C291.448 121.34 291.968 121.04 291.968 120.56C291.968 119.24 288.088 118.58 280.328 118.58C277.168 118.58 274.468 118.5 272.228 118.34C270.028 118.14 267.968 117.8 266.048 117.32C264.168 116.84 262.668 116.2 261.548 115.4C260.428 114.56 259.548 113.5 258.908 112.22C258.308 110.9 258.008 109.34 258.008 107.54C258.008 106.22 258.108 105.04 258.308 104C258.548 102.96 258.928 102.06 259.448 101.3C259.968 100.5 260.548 99.82 261.188 99.26C261.828 98.66 262.668 98.16 263.708 97.76C264.788 97.36 265.868 97.04 266.948 96.8C268.068 96.56 269.448 96.38 271.088 96.26C272.728 96.14 274.328 96.06 275.888 96.02C277.448 95.94 279.328 95.9 281.528 95.9C286.408 95.9 290.368 96.06 293.408 96.38C296.488 96.7 298.688 97.08 300.008 97.52C301.368 97.96 302.808 98.58 304.328 99.38L300.008 108.92C298.128 108.24 295.308 107.66 291.548 107.18C287.828 106.66 284.188 106.4 280.628 106.4C280.308 106.4 279.848 106.4 279.248 106.4C275.928 106.4 273.788 106.46 272.828 106.58C271.868 106.7 271.388 107.06 271.388 107.66C271.428 108.78 274.468 109.34 280.508 109.34ZM357.822 131.06H344.022C344.022 130.06 344.002 129 343.962 127.88C339.722 130.4 334.822 131.66 329.262 131.66C327.622 131.66 326.222 131.64 325.062 131.6C323.942 131.56 322.542 131.46 320.862 131.3C319.182 131.14 317.762 130.92 316.602 130.64C315.442 130.36 314.222 129.94 312.942 129.38C311.662 128.82 310.622 128.16 309.822 127.4C309.022 126.6 308.362 125.6 307.842 124.4C307.322 123.16 307.062 121.8 307.062 120.32C307.062 118.44 307.662 116.82 308.862 115.46C310.102 114.06 311.782 112.96 313.902 112.16C316.022 111.36 318.342 110.78 320.862 110.42C323.382 110.02 326.102 109.82 329.022 109.82C333.982 109.82 338.462 110.56 342.462 112.04C341.662 109.64 340.302 108.08 338.382 107.36C336.502 106.6 333.502 106.22 329.382 106.22C326.022 106.22 322.782 106.46 319.662 106.94C316.582 107.38 314.602 107.74 313.722 108.02C312.882 108.26 312.162 108.48 311.562 108.68L308.442 99.2C315.242 96.68 322.502 95.42 330.222 95.42C331.902 95.42 333.542 95.48 335.142 95.6C336.742 95.68 338.642 95.92 340.842 96.32C343.042 96.68 345.002 97.18 346.722 97.82C348.482 98.46 350.142 99.4 351.702 100.64C353.262 101.84 354.402 103.24 355.122 104.84C356.282 107.48 357.022 110.82 357.342 114.86C357.662 118.86 357.822 124.26 357.822 131.06ZM330.822 122.84C333.742 122.84 336.422 122.54 338.862 121.94C341.302 121.3 342.702 120.72 343.062 120.2C343.062 119.84 343.062 119.62 343.062 119.54C341.942 118.5 338.102 117.98 331.542 117.98C328.222 117.98 325.842 118.18 324.402 118.58C322.962 118.94 322.242 119.52 322.242 120.32C322.242 122 325.102 122.84 330.822 122.84ZM435.336 103.34C435.936 104.82 436.376 106.84 436.656 109.4C436.976 111.92 437.156 114.36 437.196 116.72C437.236 119.08 437.256 122.94 437.256 128.3V131H423.276V119.42C423.276 118.94 423.296 118.28 423.336 117.44C423.376 116.56 423.396 115.84 423.396 115.28C423.436 114.68 423.416 113.98 423.336 113.18C423.296 112.34 423.196 111.66 423.036 111.14C422.876 110.58 422.616 110 422.256 109.4C421.936 108.76 421.496 108.26 420.936 107.9C420.416 107.54 419.736 107.24 418.896 107C418.096 106.76 417.136 106.64 416.016 106.64C414.016 106.64 412.036 107.12 410.076 108.08C408.116 109 406.656 110.06 405.696 111.26C405.896 114.1 405.996 119.78 405.996 128.3V131H392.196V119.42C392.196 118.98 392.216 118.32 392.256 117.44C392.296 116.52 392.316 115.78 392.316 115.22C392.316 114.66 392.276 113.96 392.196 113.12C392.156 112.28 392.056 111.6 391.896 111.08C391.736 110.56 391.476 110 391.116 109.4C390.756 108.76 390.296 108.26 389.736 107.9C389.216 107.54 388.536 107.24 387.696 107C386.856 106.76 385.896 106.64 384.816 106.64C380.616 106.64 377.376 108.26 375.096 111.5V131H361.116V96.26H375.096V100.52C377.256 99.04 379.416 97.92 381.576 97.16C383.736 96.36 386.396 95.96 389.556 95.96C392.876 95.96 395.676 96.38 397.956 97.22C400.276 98.02 402.096 99.6 403.416 101.96C408.096 97.96 413.896 95.96 420.816 95.96C422.176 95.96 423.376 96.02 424.416 96.14C425.456 96.22 426.556 96.42 427.716 96.74C428.916 97.02 429.956 97.42 430.836 97.94C431.716 98.46 432.556 99.18 433.356 100.1C434.156 100.98 434.816 102.06 435.336 103.34ZM514.789 103.34C515.389 104.82 515.829 106.84 516.109 109.4C516.429 111.92 516.609 114.36 516.649 116.72C516.689 119.08 516.709 122.94 516.709 128.3V131H502.729V119.42C502.729 118.94 502.749 118.28 502.789 117.44C502.829 116.56 502.849 115.84 502.849 115.28C502.889 114.68 502.869 113.98 502.789 113.18C502.749 112.34 502.649 111.66 502.489 111.14C502.329 110.58 502.069 110 501.709 109.4C501.389 108.76 500.949 108.26 500.389 107.9C499.869 107.54 499.189 107.24 498.349 107C497.549 106.76 496.589 106.64 495.469 106.64C493.469 106.64 491.489 107.12 489.529 108.08C487.569 109 486.109 110.06 485.149 111.26C485.349 114.1 485.449 119.78 485.449 128.3V131H471.649V119.42C471.649 118.98 471.669 118.32 471.709 117.44C471.749 116.52 471.769 115.78 471.769 115.22C471.769 114.66 471.729 113.96 471.649 113.12C471.609 112.28 471.509 111.6 471.349 111.08C471.189 110.56 470.929 110 470.569 109.4C470.209 108.76 469.749 108.26 469.189 107.9C468.669 107.54 467.989 107.24 467.149 107C466.309 106.76 465.349 106.64 464.269 106.64C460.069 106.64 456.829 108.26 454.549 111.5V131H440.569V96.26H454.549V100.52C456.709 99.04 458.869 97.92 461.029 97.16C463.189 96.36 465.849 95.96 469.009 95.96C472.329 95.96 475.129 96.38 477.409 97.22C479.729 98.02 481.549 99.6 482.869 101.96C487.549 97.96 493.349 95.96 500.269 95.96C501.629 95.96 502.829 96.02 503.869 96.14C504.909 96.22 506.009 96.42 507.169 96.74C508.369 97.02 509.409 97.42 510.289 97.94C511.169 98.46 512.009 99.18 512.809 100.1C513.609 100.98 514.269 102.06 514.789 103.34ZM544.639 95.42C548.759 95.42 552.339 95.78 555.379 96.5C558.419 97.22 561.059 98.4 563.299 100.04C565.539 101.68 567.179 103.92 568.219 106.76C569.259 109.56 569.619 112.94 569.299 116.9H533.659C533.859 117.98 534.839 118.86 536.599 119.54C538.359 120.22 540.999 120.56 544.519 120.56C547.599 120.56 550.659 120.36 553.699 119.96C556.779 119.56 559.099 119.16 560.659 118.76L562.939 118.16L568.939 127.88C568.819 127.96 568.599 128.08 568.279 128.24C567.959 128.36 567.139 128.6 565.819 128.96C564.539 129.32 563.079 129.64 561.439 129.92C559.799 130.2 557.519 130.46 554.599 130.7C551.679 130.9 548.479 131 544.999 131C540.919 131 537.359 130.72 534.319 130.16C531.319 129.6 528.859 128.82 526.939 127.82C525.059 126.82 523.539 125.56 522.379 124.04C521.219 122.52 520.419 120.9 519.979 119.18C519.539 117.46 519.319 115.46 519.319 113.18C519.319 107.58 521.439 103.22 525.679 100.1C529.959 96.98 536.279 95.42 544.639 95.42ZM544.759 106.16C542.559 106.16 540.679 106.32 539.119 106.64C537.559 106.96 536.419 107.38 535.699 107.9C534.979 108.38 534.459 108.86 534.139 109.34C533.819 109.82 533.659 110.3 533.659 110.78H555.139C555.139 109.46 554.339 108.36 552.739 107.48C551.179 106.6 548.519 106.16 544.759 106.16ZM617.303 103.34C618.263 105.5 618.843 108.28 619.043 111.68C619.283 115.04 619.403 120.56 619.403 128.24V131H605.423V119.54C605.423 119.42 605.423 119.24 605.423 119C605.423 118.24 605.423 117.66 605.423 117.26C605.423 116.82 605.383 116.2 605.303 115.4C605.263 114.6 605.183 113.98 605.063 113.54C604.983 113.06 604.823 112.48 604.583 111.8C604.383 111.08 604.123 110.52 603.803 110.12C603.523 109.68 603.143 109.22 602.663 108.74C602.223 108.26 601.703 107.88 601.103 107.6C600.503 107.32 599.783 107.1 598.943 106.94C598.103 106.74 597.183 106.64 596.183 106.64C593.623 106.64 591.563 107.02 590.003 107.78C588.483 108.5 587.063 109.54 585.743 110.9V131H571.643V96.26H585.743V101.06C587.023 100.14 588.003 99.48 588.683 99.08C589.403 98.64 590.383 98.14 591.623 97.58C592.903 96.98 594.283 96.56 595.763 96.32C597.243 96.08 598.943 95.96 600.863 95.96C602.743 95.96 604.403 96.04 605.843 96.2C607.283 96.36 608.783 96.68 610.343 97.16C611.943 97.64 613.323 98.4 614.483 99.44C615.683 100.48 616.623 101.78 617.303 103.34ZM212.644 171.28V133.36V133H226.624V175H212.644V171.28ZM254.776 139.42C258.896 139.42 262.476 139.78 265.516 140.5C268.556 141.22 271.196 142.4 273.436 144.04C275.676 145.68 277.316 147.92 278.356 150.76C279.396 153.56 279.756 156.94 279.436 160.9H243.796C243.996 161.98 244.976 162.86 246.736 163.54C248.496 164.22 251.136 164.56 254.656 164.56C257.736 164.56 260.796 164.36 263.836 163.96C266.916 163.56 269.236 163.16 270.796 162.76L273.076 162.16L279.076 171.88C278.956 171.96 278.736 172.08 278.416 172.24C278.096 172.36 277.276 172.6 275.956 172.96C274.676 173.32 273.216 173.64 271.576 173.92C269.936 174.2 267.656 174.46 264.736 174.7C261.816 174.9 258.616 175 255.136 175C251.056 175 247.496 174.72 244.456 174.16C241.456 173.6 238.996 172.82 237.076 171.82C235.196 170.82 233.676 169.56 232.516 168.04C231.356 166.52 230.556 164.9 230.116 163.18C229.676 161.46 229.456 159.46 229.456 157.18C229.456 151.58 231.576 147.22 235.816 144.1C240.096 140.98 246.416 139.42 254.776 139.42ZM254.896 150.16C252.696 150.16 250.816 150.32 249.256 150.64C247.696 150.96 246.556 151.38 245.836 151.9C245.116 152.38 244.596 152.86 244.276 153.34C243.956 153.82 243.796 154.3 243.796 154.78H265.276C265.276 153.46 264.476 152.36 262.876 151.48C261.316 150.6 258.656 150.16 254.896 150.16ZM282.776 132.88H296.756V143.86C301.636 141.42 307.116 140.2 313.196 140.2C320.076 140.2 325.476 141.62 329.396 144.46C333.356 147.3 335.336 151.54 335.336 157.18C335.336 160.02 334.956 162.52 334.196 164.68C333.436 166.8 332.416 168.52 331.136 169.84C329.856 171.16 328.236 172.24 326.276 173.08C324.316 173.88 322.276 174.44 320.156 174.76C318.036 175.04 315.616 175.18 312.896 175.18C305.936 175.18 300.556 173.84 296.756 171.16V174.88H282.776V132.88ZM296.756 155.56V160.3C297.876 162.1 299.416 163.3 301.376 163.9C303.336 164.46 306.256 164.74 310.136 164.74C317.016 164.74 320.456 162.36 320.456 157.6C320.456 156.8 320.376 156.06 320.216 155.38C320.056 154.7 319.856 154.14 319.616 153.7C319.376 153.22 319.016 152.8 318.536 152.44C318.096 152.04 317.716 151.74 317.396 151.54C317.116 151.3 316.656 151.1 316.016 150.94C315.376 150.78 314.916 150.68 314.636 150.64C314.356 150.56 313.876 150.5 313.196 150.46C312.516 150.42 312.116 150.4 311.996 150.4C311.916 150.4 311.576 150.4 310.976 150.4C302.776 150.4 298.036 152.12 296.756 155.56ZM363.116 139.42C367.236 139.42 370.816 139.78 373.856 140.5C376.896 141.22 379.536 142.4 381.776 144.04C384.016 145.68 385.656 147.92 386.696 150.76C387.736 153.56 388.096 156.94 387.776 160.9H352.136C352.336 161.98 353.316 162.86 355.076 163.54C356.836 164.22 359.476 164.56 362.996 164.56C366.076 164.56 369.136 164.36 372.176 163.96C375.256 163.56 377.576 163.16 379.136 162.76L381.416 162.16L387.416 171.88C387.296 171.96 387.076 172.08 386.756 172.24C386.436 172.36 385.616 172.6 384.296 172.96C383.016 173.32 381.556 173.64 379.916 173.92C378.276 174.2 375.996 174.46 373.076 174.7C370.156 174.9 366.956 175 363.476 175C359.396 175 355.836 174.72 352.796 174.16C349.796 173.6 347.336 172.82 345.416 171.82C343.536 170.82 342.016 169.56 340.856 168.04C339.696 166.52 338.896 164.9 338.456 163.18C338.016 161.46 337.796 159.46 337.796 157.18C337.796 151.58 339.916 147.22 344.156 144.1C348.436 140.98 354.756 139.42 363.116 139.42ZM363.236 150.16C361.036 150.16 359.156 150.32 357.596 150.64C356.036 150.96 354.896 151.38 354.176 151.9C353.456 152.38 352.936 152.86 352.616 153.34C352.296 153.82 352.136 154.3 352.136 154.78H373.616C373.616 153.46 372.816 152.36 371.216 151.48C369.656 150.6 366.996 150.16 363.236 150.16ZM435.78 147.34C436.74 149.5 437.32 152.28 437.52 155.68C437.76 159.04 437.88 164.56 437.88 172.24V175H423.9V163.54C423.9 163.42 423.9 163.24 423.9 163C423.9 162.24 423.9 161.66 423.9 161.26C423.9 160.82 423.86 160.2 423.78 159.4C423.74 158.6 423.66 157.98 423.54 157.54C423.46 157.06 423.3 156.48 423.06 155.8C422.86 155.08 422.6 154.52 422.28 154.12C422 153.68 421.62 153.22 421.14 152.74C420.7 152.26 420.18 151.88 419.58 151.6C418.98 151.32 418.26 151.1 417.42 150.94C416.58 150.74 415.66 150.64 414.66 150.64C412.1 150.64 410.04 151.02 408.48 151.78C406.96 152.5 405.54 153.54 404.22 154.9V175H390.12V140.26H404.22V145.06C405.5 144.14 406.48 143.48 407.16 143.08C407.88 142.64 408.86 142.14 410.1 141.58C411.38 140.98 412.76 140.56 414.24 140.32C415.72 140.08 417.42 139.96 419.34 139.96C421.22 139.96 422.88 140.04 424.32 140.2C425.76 140.36 427.26 140.68 428.82 141.16C430.42 141.64 431.8 142.4 432.96 143.44C434.16 144.48 435.1 145.78 435.78 147.34ZM469.573 140.2H514.873V151.3H514.453L490.993 163.84H514.873V175H469.633H469.573V163.84H470.113L494.953 151.3H469.573V140.2ZM555.647 140.2H569.447V175H555.647V169.66C552.127 173.18 547.027 174.94 540.347 174.94C534.947 174.94 530.707 174.36 527.627 173.2C524.587 172 522.327 169.82 520.847 166.66C519.767 164.38 519.047 161.56 518.687 158.2C518.327 154.84 518.147 149.76 518.147 142.96L518.207 140.2H532.007V151.66C532.007 151.7 532.007 151.76 532.007 151.84C532.007 152.84 532.007 153.6 532.007 154.12C532.047 154.64 532.127 155.38 532.247 156.34C532.407 157.3 532.607 158.06 532.847 158.62C533.087 159.14 533.447 159.76 533.927 160.48C534.447 161.16 535.047 161.68 535.727 162.04C536.447 162.4 537.347 162.72 538.427 163C539.547 163.28 540.807 163.42 542.207 163.42C547.127 163.42 551.607 161.6 555.647 157.96V140.2ZM594.746 153.34C598.866 153.34 602.246 153.44 604.886 153.64C607.566 153.84 609.886 154.16 611.846 154.6C613.846 155.04 615.346 155.7 616.346 156.58C617.386 157.46 618.126 158.52 618.566 159.76C619.046 160.96 619.286 162.5 619.286 164.38C619.286 166.02 619.166 167.4 618.926 168.52C618.726 169.6 618.286 170.62 617.606 171.58C616.926 172.5 616.026 173.24 614.906 173.8C613.826 174.36 612.346 174.84 610.466 175.24C608.626 175.64 606.446 175.92 603.926 176.08C601.446 176.24 598.446 176.32 594.926 176.32C582.726 176.32 575.546 175.32 573.386 173.32L577.286 163.36C578.246 164 580.606 164.54 584.366 164.98C588.126 165.38 591.826 165.58 595.466 165.58C596.106 165.58 596.986 165.58 598.106 165.58C601.426 165.58 603.606 165.54 604.646 165.46C605.686 165.34 606.206 165.04 606.206 164.56C606.206 163.24 602.326 162.58 594.566 162.58C591.406 162.58 588.706 162.5 586.466 162.34C584.266 162.14 582.206 161.8 580.286 161.32C578.406 160.84 576.906 160.2 575.786 159.4C574.666 158.56 573.786 157.5 573.146 156.22C572.546 154.9 572.246 153.34 572.246 151.54C572.246 150.22 572.346 149.04 572.546 148C572.786 146.96 573.166 146.06 573.686 145.3C574.206 144.5 574.786 143.82 575.426 143.26C576.066 142.66 576.906 142.16 577.946 141.76C579.026 141.36 580.106 141.04 581.186 140.8C582.306 140.56 583.686 140.38 585.326 140.26C586.966 140.14 588.566 140.06 590.126 140.02C591.686 139.94 593.566 139.9 595.766 139.9C600.646 139.9 604.606 140.06 607.646 140.38C610.726 140.7 612.926 141.08 614.246 141.52C615.606 141.96 617.046 142.58 618.566 143.38L614.246 152.92C612.366 152.24 609.546 151.66 605.786 151.18C602.066 150.66 598.426 150.4 594.866 150.4C594.546 150.4 594.086 150.4 593.486 150.4C590.166 150.4 588.026 150.46 587.066 150.58C586.106 150.7 585.626 151.06 585.626 151.66C585.666 152.78 588.706 153.34 594.746 153.34ZM0.705938 184.2H46.0059V195.3H45.5859L22.1259 207.84H46.0059V219H0.765938H0.705938V207.84H1.24594L26.0859 195.3H0.705938V184.2ZM86.7802 184.2H100.58V219H86.7802V213.66C83.2602 217.18 78.1602 218.94 71.4802 218.94C66.0802 218.94 61.8402 218.36 58.7602 217.2C55.7202 216 53.4602 213.82 51.9802 210.66C50.9002 208.38 50.1802 205.56 49.8202 202.2C49.4602 198.84 49.2802 193.76 49.2802 186.96L49.3402 184.2H63.1402V195.66C63.1402 195.7 63.1402 195.76 63.1402 195.84C63.1402 196.84 63.1402 197.6 63.1402 198.12C63.1802 198.64 63.2602 199.38 63.3802 200.34C63.5402 201.3 63.7402 202.06 63.9802 202.62C64.2202 203.14 64.5802 203.76 65.0602 204.48C65.5802 205.16 66.1802 205.68 66.8602 206.04C67.5802 206.4 68.4802 206.72 69.5602 207C70.6802 207.28 71.9402 207.42 73.3402 207.42C78.2602 207.42 82.7402 205.6 86.7802 201.96V184.2ZM125.879 197.34C129.999 197.34 133.379 197.44 136.019 197.64C138.699 197.84 141.019 198.16 142.979 198.6C144.979 199.04 146.479 199.7 147.479 200.58C148.519 201.46 149.259 202.52 149.699 203.76C150.179 204.96 150.419 206.5 150.419 208.38C150.419 210.02 150.299 211.4 150.059 212.52C149.859 213.6 149.419 214.62 148.739 215.58C148.059 216.5 147.159 217.24 146.039 217.8C144.959 218.36 143.479 218.84 141.599 219.24C139.759 219.64 137.579 219.92 135.059 220.08C132.579 220.24 129.579 220.32 126.059 220.32C113.859 220.32 106.679 219.32 104.519 217.32L108.419 207.36C109.379 208 111.739 208.54 115.499 208.98C119.259 209.38 122.959 209.58 126.599 209.58C127.239 209.58 128.119 209.58 129.239 209.58C132.559 209.58 134.739 209.54 135.779 209.46C136.819 209.34 137.339 209.04 137.339 208.56C137.339 207.24 133.459 206.58 125.699 206.58C122.539 206.58 119.839 206.5 117.599 206.34C115.399 206.14 113.339 205.8 111.419 205.32C109.539 204.84 108.039 204.2 106.919 203.4C105.799 202.56 104.919 201.5 104.279 200.22C103.679 198.9 103.379 197.34 103.379 195.54C103.379 194.22 103.479 193.04 103.679 192C103.919 190.96 104.299 190.06 104.819 189.3C105.339 188.5 105.919 187.82 106.559 187.26C107.199 186.66 108.039 186.16 109.079 185.76C110.159 185.36 111.239 185.04 112.319 184.8C113.439 184.56 114.819 184.38 116.459 184.26C118.099 184.14 119.699 184.06 121.259 184.02C122.819 183.94 124.699 183.9 126.899 183.9C131.779 183.9 135.739 184.06 138.779 184.38C141.859 184.7 144.059 185.08 145.379 185.52C146.739 185.96 148.179 186.58 149.699 187.38L145.379 196.92C143.499 196.24 140.679 195.66 136.919 195.18C133.199 194.66 129.559 194.4 125.999 194.4C125.679 194.4 125.219 194.4 124.619 194.4C121.299 194.4 119.159 194.46 118.199 194.58C117.239 194.7 116.759 195.06 116.759 195.66C116.799 196.78 119.839 197.34 125.879 197.34ZM203.193 219.06H189.393C189.393 218.06 189.373 217 189.333 215.88C185.093 218.4 180.193 219.66 174.633 219.66C172.993 219.66 171.593 219.64 170.433 219.6C169.313 219.56 167.913 219.46 166.233 219.3C164.553 219.14 163.133 218.92 161.973 218.64C160.813 218.36 159.593 217.94 158.313 217.38C157.033 216.82 155.993 216.16 155.193 215.4C154.393 214.6 153.733 213.6 153.213 212.4C152.693 211.16 152.433 209.8 152.433 208.32C152.433 206.44 153.033 204.82 154.233 203.46C155.473 202.06 157.153 200.96 159.273 200.16C161.393 199.36 163.713 198.78 166.233 198.42C168.753 198.02 171.473 197.82 174.393 197.82C179.353 197.82 183.833 198.56 187.833 200.04C187.033 197.64 185.673 196.08 183.753 195.36C181.873 194.6 178.873 194.22 174.753 194.22C171.393 194.22 168.153 194.46 165.033 194.94C161.953 195.38 159.973 195.74 159.093 196.02C158.253 196.26 157.533 196.48 156.933 196.68L153.813 187.2C160.613 184.68 167.873 183.42 175.593 183.42C177.273 183.42 178.913 183.48 180.513 183.6C182.113 183.68 184.013 183.92 186.213 184.32C188.413 184.68 190.373 185.18 192.093 185.82C193.853 186.46 195.513 187.4 197.073 188.64C198.633 189.84 199.773 191.24 200.493 192.84C201.653 195.48 202.393 198.82 202.713 202.86C203.033 206.86 203.193 212.26 203.193 219.06ZM176.193 210.84C179.113 210.84 181.793 210.54 184.233 209.94C186.673 209.3 188.073 208.72 188.433 208.2C188.433 207.84 188.433 207.62 188.433 207.54C187.313 206.5 183.473 205.98 176.913 205.98C173.593 205.98 171.213 206.18 169.773 206.58C168.333 206.94 167.613 207.52 167.613 208.32C167.613 210 170.473 210.84 176.193 210.84ZM280.707 191.34C281.307 192.82 281.747 194.84 282.027 197.4C282.347 199.92 282.527 202.36 282.567 204.72C282.607 207.08 282.627 210.94 282.627 216.3V219H268.647V207.42C268.647 206.94 268.667 206.28 268.707 205.44C268.747 204.56 268.767 203.84 268.767 203.28C268.807 202.68 268.787 201.98 268.707 201.18C268.667 200.34 268.567 199.66 268.407 199.14C268.247 198.58 267.987 198 267.627 197.4C267.307 196.76 266.867 196.26 266.307 195.9C265.787 195.54 265.107 195.24 264.267 195C263.467 194.76 262.507 194.64 261.387 194.64C259.387 194.64 257.407 195.12 255.447 196.08C253.487 197 252.027 198.06 251.067 199.26C251.267 202.1 251.367 207.78 251.367 216.3V219H237.567V207.42C237.567 206.98 237.587 206.32 237.627 205.44C237.667 204.52 237.687 203.78 237.687 203.22C237.687 202.66 237.647 201.96 237.567 201.12C237.527 200.28 237.427 199.6 237.267 199.08C237.107 198.56 236.847 198 236.487 197.4C236.127 196.76 235.667 196.26 235.107 195.9C234.587 195.54 233.907 195.24 233.067 195C232.227 194.76 231.267 194.64 230.187 194.64C225.987 194.64 222.747 196.26 220.467 199.5V219H206.487V184.26H220.467V188.52C222.627 187.04 224.787 185.92 226.947 185.16C229.107 184.36 231.767 183.96 234.927 183.96C238.247 183.96 241.047 184.38 243.327 185.22C245.647 186.02 247.467 187.6 248.787 189.96C253.467 185.96 259.267 183.96 266.187 183.96C267.547 183.96 268.747 184.02 269.787 184.14C270.827 184.22 271.927 184.42 273.087 184.74C274.287 185.02 275.327 185.42 276.207 185.94C277.087 186.46 277.927 187.18 278.727 188.1C279.527 188.98 280.187 190.06 280.707 191.34ZM360.16 191.34C360.76 192.82 361.2 194.84 361.48 197.4C361.8 199.92 361.98 202.36 362.02 204.72C362.06 207.08 362.08 210.94 362.08 216.3V219H348.1V207.42C348.1 206.94 348.12 206.28 348.16 205.44C348.2 204.56 348.22 203.84 348.22 203.28C348.26 202.68 348.24 201.98 348.16 201.18C348.12 200.34 348.02 199.66 347.86 199.14C347.7 198.58 347.44 198 347.08 197.4C346.76 196.76 346.32 196.26 345.76 195.9C345.24 195.54 344.56 195.24 343.72 195C342.92 194.76 341.96 194.64 340.84 194.64C338.84 194.64 336.86 195.12 334.9 196.08C332.94 197 331.48 198.06 330.52 199.26C330.72 202.1 330.82 207.78 330.82 216.3V219H317.02V207.42C317.02 206.98 317.04 206.32 317.08 205.44C317.12 204.52 317.14 203.78 317.14 203.22C317.14 202.66 317.1 201.96 317.02 201.12C316.98 200.28 316.88 199.6 316.72 199.08C316.56 198.56 316.3 198 315.94 197.4C315.58 196.76 315.12 196.26 314.56 195.9C314.04 195.54 313.36 195.24 312.52 195C311.68 194.76 310.72 194.64 309.64 194.64C305.44 194.64 302.2 196.26 299.92 199.5V219H285.94V184.26H299.92V188.52C302.08 187.04 304.24 185.92 306.4 185.16C308.56 184.36 311.22 183.96 314.38 183.96C317.7 183.96 320.5 184.38 322.78 185.22C325.1 186.02 326.92 187.6 328.24 189.96C332.92 185.96 338.72 183.96 345.64 183.96C347 183.96 348.2 184.02 349.24 184.14C350.28 184.22 351.38 184.42 352.54 184.74C353.74 185.02 354.78 185.42 355.66 185.94C356.54 186.46 357.38 187.18 358.18 188.1C358.98 188.98 359.64 190.06 360.16 191.34ZM390.01 183.42C394.13 183.42 397.71 183.78 400.75 184.5C403.79 185.22 406.43 186.4 408.67 188.04C410.91 189.68 412.55 191.92 413.59 194.76C414.63 197.56 414.99 200.94 414.67 204.9H379.03C379.23 205.98 380.21 206.86 381.97 207.54C383.73 208.22 386.37 208.56 389.89 208.56C392.97 208.56 396.03 208.36 399.07 207.96C402.15 207.56 404.47 207.16 406.03 206.76L408.31 206.16L414.31 215.88C414.19 215.96 413.97 216.08 413.65 216.24C413.33 216.36 412.51 216.6 411.19 216.96C409.91 217.32 408.45 217.64 406.81 217.92C405.17 218.2 402.89 218.46 399.97 218.7C397.05 218.9 393.85 219 390.37 219C386.29 219 382.73 218.72 379.69 218.16C376.69 217.6 374.23 216.82 372.31 215.82C370.43 214.82 368.91 213.56 367.75 212.04C366.59 210.52 365.79 208.9 365.35 207.18C364.91 205.46 364.69 203.46 364.69 201.18C364.69 195.58 366.81 191.22 371.05 188.1C375.33 184.98 381.65 183.42 390.01 183.42ZM390.13 194.16C387.93 194.16 386.05 194.32 384.49 194.64C382.93 194.96 381.79 195.38 381.07 195.9C380.35 196.38 379.83 196.86 379.51 197.34C379.19 197.82 379.03 198.3 379.03 198.78H400.51C400.51 197.46 399.71 196.36 398.11 195.48C396.55 194.6 393.89 194.16 390.13 194.16ZM462.675 191.34C463.635 193.5 464.215 196.28 464.415 199.68C464.655 203.04 464.775 208.56 464.775 216.24V219H450.795V207.54C450.795 207.42 450.795 207.24 450.795 207C450.795 206.24 450.795 205.66 450.795 205.26C450.795 204.82 450.755 204.2 450.675 203.4C450.635 202.6 450.555 201.98 450.435 201.54C450.355 201.06 450.195 200.48 449.955 199.8C449.755 199.08 449.495 198.52 449.175 198.12C448.895 197.68 448.515 197.22 448.035 196.74C447.595 196.26 447.075 195.88 446.475 195.6C445.875 195.32 445.155 195.1 444.315 194.94C443.475 194.74 442.555 194.64 441.555 194.64C438.995 194.64 436.935 195.02 435.375 195.78C433.855 196.5 432.435 197.54 431.115 198.9V219H417.015V184.26H431.115V189.06C432.395 188.14 433.375 187.48 434.055 187.08C434.775 186.64 435.755 186.14 436.995 185.58C438.275 184.98 439.655 184.56 441.135 184.32C442.615 184.08 444.315 183.96 446.235 183.96C448.115 183.96 449.775 184.04 451.215 184.2C452.655 184.36 454.155 184.68 455.715 185.16C457.315 185.64 458.695 186.4 459.855 187.44C461.055 188.48 461.995 189.78 462.675 191.34ZM496.648 215.28V177.36V177H510.628V219H496.648V215.28ZM538.78 183.42C542.9 183.42 546.48 183.78 549.52 184.5C552.56 185.22 555.2 186.4 557.44 188.04C559.68 189.68 561.32 191.92 562.36 194.76C563.4 197.56 563.76 200.94 563.44 204.9H527.8C528 205.98 528.98 206.86 530.74 207.54C532.5 208.22 535.14 208.56 538.66 208.56C541.74 208.56 544.8 208.36 547.84 207.96C550.92 207.56 553.24 207.16 554.8 206.76L557.08 206.16L563.08 215.88C562.96 215.96 562.74 216.08 562.42 216.24C562.1 216.36 561.28 216.6 559.96 216.96C558.68 217.32 557.22 217.64 555.58 217.92C553.94 218.2 551.66 218.46 548.74 218.7C545.82 218.9 542.62 219 539.14 219C535.06 219 531.5 218.72 528.46 218.16C525.46 217.6 523 216.82 521.08 215.82C519.2 214.82 517.68 213.56 516.52 212.04C515.36 210.52 514.56 208.9 514.12 207.18C513.68 205.46 513.46 203.46 513.46 201.18C513.46 195.58 515.58 191.22 519.82 188.1C524.1 184.98 530.42 183.42 538.78 183.42ZM538.9 194.16C536.7 194.16 534.82 194.32 533.26 194.64C531.7 194.96 530.56 195.38 529.84 195.9C529.12 196.38 528.6 196.86 528.28 197.34C527.96 197.82 527.8 198.3 527.8 198.78H549.28C549.28 197.46 548.48 196.36 546.88 195.48C545.32 194.6 542.66 194.16 538.9 194.16ZM566.78 176.88H580.76V187.86C585.64 185.42 591.12 184.2 597.2 184.2C604.08 184.2 609.48 185.62 613.4 188.46C617.36 191.3 619.34 195.54 619.34 201.18C619.34 204.02 618.96 206.52 618.2 208.68C617.44 210.8 616.42 212.52 615.14 213.84C613.86 215.16 612.24 216.24 610.28 217.08C608.32 217.88 606.28 218.44 604.16 218.76C602.04 219.04 599.62 219.18 596.9 219.18C589.94 219.18 584.56 217.84 580.76 215.16V218.88H566.78V176.88ZM580.76 199.56V204.3C581.88 206.1 583.42 207.3 585.38 207.9C587.34 208.46 590.26 208.74 594.14 208.74C601.02 208.74 604.46 206.36 604.46 201.6C604.46 200.8 604.38 200.06 604.22 199.38C604.06 198.7 603.86 198.14 603.62 197.7C603.38 197.22 603.02 196.8 602.54 196.44C602.1 196.04 601.72 195.74 601.4 195.54C601.12 195.3 600.66 195.1 600.02 194.94C599.38 194.78 598.92 194.68 598.64 194.64C598.36 194.56 597.88 194.5 597.2 194.46C596.52 194.42 596.12 194.4 596 194.4C595.92 194.4 595.58 194.4 594.98 194.4C586.78 194.4 582.04 196.12 580.76 199.56ZM48.8775 227.42C52.9975 227.42 56.5775 227.78 59.6175 228.5C62.6575 229.22 65.2975 230.4 67.5375 232.04C69.7775 233.68 71.4175 235.92 72.4575 238.76C73.4975 241.56 73.8575 244.94 73.5375 248.9H37.8975C38.0975 249.98 39.0775 250.86 40.8375 251.54C42.5975 252.22 45.2375 252.56 48.7575 252.56C51.8375 252.56 54.8975 252.36 57.9375 251.96C61.0175 251.56 63.3375 251.16 64.8975 250.76L67.1775 250.16L73.1775 259.88C73.0575 259.96 72.8375 260.08 72.5175 260.24C72.1975 260.36 71.3775 260.6 70.0575 260.96C68.7775 261.32 67.3175 261.64 65.6775 261.92C64.0375 262.2 61.7575 262.46 58.8375 262.7C55.9175 262.9 52.7175 263 49.2375 263C45.1575 263 41.5975 262.72 38.5575 262.16C35.5575 261.6 33.0975 260.82 31.1775 259.82C29.2975 258.82 27.7775 257.56 26.6175 256.04C25.4575 254.52 24.6575 252.9 24.2175 251.18C23.7775 249.46 23.5575 247.46 23.5575 245.18C23.5575 239.58 25.6775 235.22 29.9175 232.1C34.1975 228.98 40.5175 227.42 48.8775 227.42ZM48.9975 238.16C46.7975 238.16 44.9175 238.32 43.3575 238.64C41.7975 238.96 40.6575 239.38 39.9375 239.9C39.2175 240.38 38.6975 240.86 38.3775 241.34C38.0575 241.82 37.8975 242.3 37.8975 242.78H59.3775C59.3775 241.46 58.5775 240.36 56.9775 239.48C55.4175 238.6 52.7575 238.16 48.9975 238.16ZM121.542 235.34C122.502 237.5 123.082 240.28 123.282 243.68C123.522 247.04 123.642 252.56 123.642 260.24V263H109.662V251.54C109.662 251.42 109.662 251.24 109.662 251C109.662 250.24 109.662 249.66 109.662 249.26C109.662 248.82 109.622 248.2 109.542 247.4C109.502 246.6 109.422 245.98 109.302 245.54C109.222 245.06 109.062 244.48 108.822 243.8C108.622 243.08 108.362 242.52 108.042 242.12C107.762 241.68 107.382 241.22 106.902 240.74C106.462 240.26 105.942 239.88 105.342 239.6C104.742 239.32 104.022 239.1 103.182 238.94C102.342 238.74 101.422 238.64 100.422 238.64C97.8617 238.64 95.8017 239.02 94.2417 239.78C92.7217 240.5 91.3017 241.54 89.9817 242.9V263H75.8817V228.26H89.9817V233.06C91.2617 232.14 92.2417 231.48 92.9217 231.08C93.6417 230.64 94.6217 230.14 95.8617 229.58C97.1417 228.98 98.5217 228.56 100.002 228.32C101.482 228.08 103.182 227.96 105.102 227.96C106.982 227.96 108.642 228.04 110.082 228.2C111.522 228.36 113.022 228.68 114.582 229.16C116.182 229.64 117.562 230.4 118.722 231.44C119.922 232.48 120.862 233.78 121.542 235.34ZM155.335 228.2H200.635V239.3H200.215L176.755 251.84H200.635V263H155.395H155.335V251.84H155.875L180.715 239.3H155.335V228.2ZM241.409 228.2H255.209V263H241.409V257.66C237.889 261.18 232.789 262.94 226.109 262.94C220.709 262.94 216.469 262.36 213.389 261.2C210.349 260 208.089 257.82 206.609 254.66C205.529 252.38 204.809 249.56 204.449 246.2C204.089 242.84 203.909 237.76 203.909 230.96L203.969 228.2H217.769V239.66C217.769 239.7 217.769 239.76 217.769 239.84C217.769 240.84 217.769 241.6 217.769 242.12C217.809 242.64 217.889 243.38 218.009 244.34C218.169 245.3 218.369 246.06 218.609 246.62C218.849 247.14 219.209 247.76 219.689 248.48C220.209 249.16 220.809 249.68 221.489 250.04C222.209 250.4 223.109 250.72 224.189 251C225.309 251.28 226.569 251.42 227.969 251.42C232.889 251.42 237.369 249.6 241.409 245.96V228.2ZM280.508 241.34C284.628 241.34 288.008 241.44 290.648 241.64C293.328 241.84 295.648 242.16 297.608 242.6C299.608 243.04 301.108 243.7 302.108 244.58C303.148 245.46 303.888 246.52 304.328 247.76C304.808 248.96 305.048 250.5 305.048 252.38C305.048 254.02 304.928 255.4 304.688 256.52C304.488 257.6 304.048 258.62 303.368 259.58C302.688 260.5 301.788 261.24 300.668 261.8C299.588 262.36 298.108 262.84 296.228 263.24C294.388 263.64 292.208 263.92 289.688 264.08C287.208 264.24 284.208 264.32 280.688 264.32C268.488 264.32 261.308 263.32 259.148 261.32L263.048 251.36C264.008 252 266.368 252.54 270.128 252.98C273.888 253.38 277.588 253.58 281.228 253.58C281.868 253.58 282.748 253.58 283.868 253.58C287.188 253.58 289.368 253.54 290.408 253.46C291.448 253.34 291.968 253.04 291.968 252.56C291.968 251.24 288.088 250.58 280.328 250.58C277.168 250.58 274.468 250.5 272.228 250.34C270.028 250.14 267.968 249.8 266.048 249.32C264.168 248.84 262.668 248.2 261.548 247.4C260.428 246.56 259.548 245.5 258.908 244.22C258.308 242.9 258.008 241.34 258.008 239.54C258.008 238.22 258.108 237.04 258.308 236C258.548 234.96 258.928 234.06 259.448 233.3C259.968 232.5 260.548 231.82 261.188 231.26C261.828 230.66 262.668 230.16 263.708 229.76C264.788 229.36 265.868 229.04 266.948 228.8C268.068 228.56 269.448 228.38 271.088 228.26C272.728 228.14 274.328 228.06 275.888 228.02C277.448 227.94 279.328 227.9 281.528 227.9C286.408 227.9 290.368 228.06 293.408 228.38C296.488 228.7 298.688 229.08 300.008 229.52C301.368 229.96 302.808 230.58 304.328 231.38L300.008 240.92C298.128 240.24 295.308 239.66 291.548 239.18C287.828 238.66 284.188 238.4 280.628 238.4C280.308 238.4 279.848 238.4 279.248 238.4C275.928 238.4 273.788 238.46 272.828 238.58C271.868 238.7 271.388 239.06 271.388 239.66C271.428 240.78 274.468 241.34 280.508 241.34ZM357.822 263.06H344.022C344.022 262.06 344.002 261 343.962 259.88C339.722 262.4 334.822 263.66 329.262 263.66C327.622 263.66 326.222 263.64 325.062 263.6C323.942 263.56 322.542 263.46 320.862 263.3C319.182 263.14 317.762 262.92 316.602 262.64C315.442 262.36 314.222 261.94 312.942 261.38C311.662 260.82 310.622 260.16 309.822 259.4C309.022 258.6 308.362 257.6 307.842 256.4C307.322 255.16 307.062 253.8 307.062 252.32C307.062 250.44 307.662 248.82 308.862 247.46C310.102 246.06 311.782 244.96 313.902 244.16C316.022 243.36 318.342 242.78 320.862 242.42C323.382 242.02 326.102 241.82 329.022 241.82C333.982 241.82 338.462 242.56 342.462 244.04C341.662 241.64 340.302 240.08 338.382 239.36C336.502 238.6 333.502 238.22 329.382 238.22C326.022 238.22 322.782 238.46 319.662 238.94C316.582 239.38 314.602 239.74 313.722 240.02C312.882 240.26 312.162 240.48 311.562 240.68L308.442 231.2C315.242 228.68 322.502 227.42 330.222 227.42C331.902 227.42 333.542 227.48 335.142 227.6C336.742 227.68 338.642 227.92 340.842 228.32C343.042 228.68 345.002 229.18 346.722 229.82C348.482 230.46 350.142 231.4 351.702 232.64C353.262 233.84 354.402 235.24 355.122 236.84C356.282 239.48 357.022 242.82 357.342 246.86C357.662 250.86 357.822 256.26 357.822 263.06ZM330.822 254.84C333.742 254.84 336.422 254.54 338.862 253.94C341.302 253.3 342.702 252.72 343.062 252.2C343.062 251.84 343.062 251.62 343.062 251.54C341.942 250.5 338.102 249.98 331.542 249.98C328.222 249.98 325.842 250.18 324.402 250.58C322.962 250.94 322.242 251.52 322.242 252.32C322.242 254 325.102 254.84 330.822 254.84ZM435.336 235.34C435.936 236.82 436.376 238.84 436.656 241.4C436.976 243.92 437.156 246.36 437.196 248.72C437.236 251.08 437.256 254.94 437.256 260.3V263H423.276V251.42C423.276 250.94 423.296 250.28 423.336 249.44C423.376 248.56 423.396 247.84 423.396 247.28C423.436 246.68 423.416 245.98 423.336 245.18C423.296 244.34 423.196 243.66 423.036 243.14C422.876 242.58 422.616 242 422.256 241.4C421.936 240.76 421.496 240.26 420.936 239.9C420.416 239.54 419.736 239.24 418.896 239C418.096 238.76 417.136 238.64 416.016 238.64C414.016 238.64 412.036 239.12 410.076 240.08C408.116 241 406.656 242.06 405.696 243.26C405.896 246.1 405.996 251.78 405.996 260.3V263H392.196V251.42C392.196 250.98 392.216 250.32 392.256 249.44C392.296 248.52 392.316 247.78 392.316 247.22C392.316 246.66 392.276 245.96 392.196 245.12C392.156 244.28 392.056 243.6 391.896 243.08C391.736 242.56 391.476 242 391.116 241.4C390.756 240.76 390.296 240.26 389.736 239.9C389.216 239.54 388.536 239.24 387.696 239C386.856 238.76 385.896 238.64 384.816 238.64C380.616 238.64 377.376 240.26 375.096 243.5V263H361.116V228.26H375.096V232.52C377.256 231.04 379.416 229.92 381.576 229.16C383.736 228.36 386.396 227.96 389.556 227.96C392.876 227.96 395.676 228.38 397.956 229.22C400.276 230.02 402.096 231.6 403.416 233.96C408.096 229.96 413.896 227.96 420.816 227.96C422.176 227.96 423.376 228.02 424.416 228.14C425.456 228.22 426.556 228.42 427.716 228.74C428.916 229.02 429.956 229.42 430.836 229.94C431.716 230.46 432.556 231.18 433.356 232.1C434.156 232.98 434.816 234.06 435.336 235.34ZM514.789 235.34C515.389 236.82 515.829 238.84 516.109 241.4C516.429 243.92 516.609 246.36 516.649 248.72C516.689 251.08 516.709 254.94 516.709 260.3V263H502.729V251.42C502.729 250.94 502.749 250.28 502.789 249.44C502.829 248.56 502.849 247.84 502.849 247.28C502.889 246.68 502.869 245.98 502.789 245.18C502.749 244.34 502.649 243.66 502.489 243.14C502.329 242.58 502.069 242 501.709 241.4C501.389 240.76 500.949 240.26 500.389 239.9C499.869 239.54 499.189 239.24 498.349 239C497.549 238.76 496.589 238.64 495.469 238.64C493.469 238.64 491.489 239.12 489.529 240.08C487.569 241 486.109 242.06 485.149 243.26C485.349 246.1 485.449 251.78 485.449 260.3V263H471.649V251.42C471.649 250.98 471.669 250.32 471.709 249.44C471.749 248.52 471.769 247.78 471.769 247.22C471.769 246.66 471.729 245.96 471.649 245.12C471.609 244.28 471.509 243.6 471.349 243.08C471.189 242.56 470.929 242 470.569 241.4C470.209 240.76 469.749 240.26 469.189 239.9C468.669 239.54 467.989 239.24 467.149 239C466.309 238.76 465.349 238.64 464.269 238.64C460.069 238.64 456.829 240.26 454.549 243.5V263H440.569V228.26H454.549V232.52C456.709 231.04 458.869 229.92 461.029 229.16C463.189 228.36 465.849 227.96 469.009 227.96C472.329 227.96 475.129 228.38 477.409 229.22C479.729 230.02 481.549 231.6 482.869 233.96C487.549 229.96 493.349 227.96 500.269 227.96C501.629 227.96 502.829 228.02 503.869 228.14C504.909 228.22 506.009 228.42 507.169 228.74C508.369 229.02 509.409 229.42 510.289 229.94C511.169 230.46 512.009 231.18 512.809 232.1C513.609 232.98 514.269 234.06 514.789 235.34ZM544.639 227.42C548.759 227.42 552.339 227.78 555.379 228.5C558.419 229.22 561.059 230.4 563.299 232.04C565.539 233.68 567.179 235.92 568.219 238.76C569.259 241.56 569.619 244.94 569.299 248.9H533.659C533.859 249.98 534.839 250.86 536.599 251.54C538.359 252.22 540.999 252.56 544.519 252.56C547.599 252.56 550.659 252.36 553.699 251.96C556.779 251.56 559.099 251.16 560.659 250.76L562.939 250.16L568.939 259.88C568.819 259.96 568.599 260.08 568.279 260.24C567.959 260.36 567.139 260.6 565.819 260.96C564.539 261.32 563.079 261.64 561.439 261.92C559.799 262.2 557.519 262.46 554.599 262.7C551.679 262.9 548.479 263 544.999 263C540.919 263 537.359 262.72 534.319 262.16C531.319 261.6 528.859 260.82 526.939 259.82C525.059 258.82 523.539 257.56 522.379 256.04C521.219 254.52 520.419 252.9 519.979 251.18C519.539 249.46 519.319 247.46 519.319 245.18C519.319 239.58 521.439 235.22 525.679 232.1C529.959 228.98 536.279 227.42 544.639 227.42ZM544.759 238.16C542.559 238.16 540.679 238.32 539.119 238.64C537.559 238.96 536.419 239.38 535.699 239.9C534.979 240.38 534.459 240.86 534.139 241.34C533.819 241.82 533.659 242.3 533.659 242.78H555.139C555.139 241.46 554.339 240.36 552.739 239.48C551.179 238.6 548.519 238.16 544.759 238.16ZM617.303 235.34C618.263 237.5 618.843 240.28 619.043 243.68C619.283 247.04 619.403 252.56 619.403 260.24V263H605.423V251.54C605.423 251.42 605.423 251.24 605.423 251C605.423 250.24 605.423 249.66 605.423 249.26C605.423 248.82 605.383 248.2 605.303 247.4C605.263 246.6 605.183 245.98 605.063 245.54C604.983 245.06 604.823 244.48 604.583 243.8C604.383 243.08 604.123 242.52 603.803 242.12C603.523 241.68 603.143 241.22 602.663 240.74C602.223 240.26 601.703 239.88 601.103 239.6C600.503 239.32 599.783 239.1 598.943 238.94C598.103 238.74 597.183 238.64 596.183 238.64C593.623 238.64 591.563 239.02 590.003 239.78C588.483 240.5 587.063 241.54 585.743 242.9V263H571.643V228.26H585.743V233.06C587.023 232.14 588.003 231.48 588.683 231.08C589.403 230.64 590.383 230.14 591.623 229.58C592.903 228.98 594.283 228.56 595.763 228.32C597.243 228.08 598.943 227.96 600.863 227.96C602.743 227.96 604.403 228.04 605.843 228.2C607.283 228.36 608.783 228.68 610.343 229.16C611.943 229.64 613.323 230.4 614.483 231.44C615.683 232.48 616.623 233.78 617.303 235.34ZM496.648 303.28V265.36V265H510.628V307H496.648V303.28ZM538.78 271.42C542.9 271.42 546.48 271.78 549.52 272.5C552.56 273.22 555.2 274.4 557.44 276.04C559.68 277.68 561.32 279.92 562.36 282.76C563.4 285.56 563.76 288.94 563.44 292.9H527.8C528 293.98 528.98 294.86 530.74 295.54C532.5 296.22 535.14 296.56 538.66 296.56C541.74 296.56 544.8 296.36 547.84 295.96C550.92 295.56 553.24 295.16 554.8 294.76L557.08 294.16L563.08 303.88C562.96 303.96 562.74 304.08 562.42 304.24C562.1 304.36 561.28 304.6 559.96 304.96C558.68 305.32 557.22 305.64 555.58 305.92C553.94 306.2 551.66 306.46 548.74 306.7C545.82 306.9 542.62 307 539.14 307C535.06 307 531.5 306.72 528.46 306.16C525.46 305.6 523 304.82 521.08 303.82C519.2 302.82 517.68 301.56 516.52 300.04C515.36 298.52 514.56 296.9 514.12 295.18C513.68 293.46 513.46 291.46 513.46 289.18C513.46 283.58 515.58 279.22 519.82 276.1C524.1 272.98 530.42 271.42 538.78 271.42ZM538.9 282.16C536.7 282.16 534.82 282.32 533.26 282.64C531.7 282.96 530.56 283.38 529.84 283.9C529.12 284.38 528.6 284.86 528.28 285.34C527.96 285.82 527.8 286.3 527.8 286.78H549.28C549.28 285.46 548.48 284.36 546.88 283.48C545.32 282.6 542.66 282.16 538.9 282.16ZM566.78 264.88H580.76V275.86C585.64 273.42 591.12 272.2 597.2 272.2C604.08 272.2 609.48 273.62 613.4 276.46C617.36 279.3 619.34 283.54 619.34 289.18C619.34 292.02 618.96 294.52 618.2 296.68C617.44 298.8 616.42 300.52 615.14 301.84C613.86 303.16 612.24 304.24 610.28 305.08C608.32 305.88 606.28 306.44 604.16 306.76C602.04 307.04 599.62 307.18 596.9 307.18C589.94 307.18 584.56 305.84 580.76 303.16V306.88H566.78V264.88ZM580.76 287.56V292.3C581.88 294.1 583.42 295.3 585.38 295.9C587.34 296.46 590.26 296.74 594.14 296.74C601.02 296.74 604.46 294.36 604.46 289.6C604.46 288.8 604.38 288.06 604.22 287.38C604.06 286.7 603.86 286.14 603.62 285.7C603.38 285.22 603.02 284.8 602.54 284.44C602.1 284.04 601.72 283.74 601.4 283.54C601.12 283.3 600.66 283.1 600.02 282.94C599.38 282.78 598.92 282.68 598.64 282.64C598.36 282.56 597.88 282.5 597.2 282.46C596.52 282.42 596.12 282.4 596 282.4C595.92 282.4 595.58 282.4 594.98 282.4C586.78 282.4 582.04 284.12 580.76 287.56Z" fill="black"/>
</svg>
