<svg width="538" height="180" viewBox="0 0 538 180" fill="none" xmlns="http://www.w3.org/2000/svg">
<path d="M29.537 42C22.8383 42 17.249 41.3387 12.769 40.016C8.289 38.6933 5.19567 36.4107 3.489 33.168C2.25167 30.736 1.41967 27.728 0.993 24.144C0.566333 20.5173 0.353 15.0773 0.353 7.824L0.417 -2.928H16.161V17.168C16.161 18.448 16.225 19.6 16.353 20.624C16.481 21.6053 16.801 22.6933 17.313 23.888C17.8677 25.0827 18.6143 26.0853 19.553 26.896C20.4917 27.664 21.8143 28.3253 23.521 28.88C25.2277 29.392 27.233 29.648 29.537 29.648C31.8837 29.648 33.889 29.392 35.553 28.88C37.2597 28.3253 38.5397 27.664 39.393 26.896C40.289 26.128 40.993 25.1467 41.505 23.952C42.017 22.7147 42.3157 21.6053 42.401 20.624C42.529 19.6427 42.593 18.4907 42.593 17.168V-2.928H58.337V7.824C58.3797 15.0773 58.1877 20.5173 57.761 24.144C57.3343 27.728 56.5023 30.736 55.265 33.168C54.369 34.8747 53.089 36.3253 51.425 37.52C49.8037 38.672 47.841 39.568 45.537 40.208C43.233 40.848 40.801 41.3173 38.241 41.616C35.681 41.872 32.7797 42 29.537 42ZM110.557 12.496C111.581 14.8 112.2 17.7653 112.413 21.392C112.669 24.976 112.797 30.864 112.797 39.056V42H97.885V29.776C97.885 29.648 97.885 29.456 97.885 29.2C97.885 28.3893 97.885 27.7707 97.885 27.344C97.885 26.8747 97.8423 26.2133 97.757 25.36C97.7143 24.5067 97.629 23.8453 97.501 23.376C97.4157 22.864 97.245 22.2453 96.989 21.52C96.7757 20.752 96.4983 20.1547 96.157 19.728C95.8583 19.2587 95.453 18.768 94.941 18.256C94.4717 17.744 93.917 17.3387 93.277 17.04C92.637 16.7413 91.869 16.5067 90.973 16.336C90.077 16.1227 89.0957 16.016 88.029 16.016C85.2983 16.016 83.101 16.4213 81.437 17.232C79.8157 18 78.301 19.1093 76.893 20.56V42H61.853V4.944H76.893V10.064C78.2583 9.08267 79.3037 8.37867 80.029 7.952C80.797 7.48266 81.8423 6.94933 83.165 6.352C84.5303 5.712 86.0023 5.264 87.581 5.008C89.1597 4.752 90.973 4.624 93.021 4.624C95.0263 4.624 96.797 4.70933 98.333 4.88C99.869 5.05066 101.469 5.392 103.133 5.904C104.84 6.416 106.312 7.22666 107.549 8.336C108.829 9.44533 109.832 10.832 110.557 12.496ZM138.184 18.896C142.578 18.896 146.184 19.0027 149 19.216C151.858 19.4293 154.333 19.7707 156.424 20.24C158.557 20.7093 160.157 21.4133 161.224 22.352C162.333 23.2907 163.122 24.4213 163.592 25.744C164.104 27.024 164.36 28.6667 164.36 30.672C164.36 32.4213 164.232 33.8933 163.976 35.088C163.762 36.24 163.293 37.328 162.568 38.352C161.842 39.3333 160.882 40.1227 159.688 40.72C158.536 41.3173 156.957 41.8293 154.952 42.256C152.989 42.6827 150.664 42.9813 147.976 43.152C145.33 43.3227 142.13 43.408 138.376 43.408C125.362 43.408 117.704 42.3413 115.4 40.208L119.56 29.584C120.584 30.2667 123.101 30.8427 127.112 31.312C131.122 31.7387 135.069 31.952 138.952 31.952C139.634 31.952 140.573 31.952 141.768 31.952C145.309 31.952 147.634 31.9093 148.744 31.824C149.853 31.696 150.408 31.376 150.408 30.864C150.408 29.456 146.269 28.752 137.992 28.752C134.621 28.752 131.741 28.6667 129.352 28.496C127.005 28.2827 124.808 27.92 122.76 27.408C120.754 26.896 119.154 26.2133 117.96 25.36C116.765 24.464 115.826 23.3333 115.144 21.968C114.504 20.56 114.184 18.896 114.184 16.976C114.184 15.568 114.29 14.3093 114.504 13.2C114.76 12.0907 115.165 11.1307 115.72 10.32C116.274 9.46666 116.893 8.74133 117.576 8.144C118.258 7.504 119.154 6.97066 120.264 6.544C121.416 6.11733 122.568 5.776 123.72 5.52C124.914 5.264 126.386 5.072 128.135 4.944C129.885 4.816 131.592 4.73067 133.256 4.688C134.92 4.60266 136.925 4.56 139.272 4.56C144.477 4.56 148.701 4.73066 151.944 5.072C155.229 5.41333 157.576 5.81867 158.984 6.288C160.434 6.75733 161.97 7.41866 163.592 8.272L158.984 18.448C156.978 17.7227 153.97 17.104 149.96 16.592C145.992 16.0373 142.109 15.76 138.312 15.76C137.97 15.76 137.48 15.76 136.84 15.76C133.298 15.76 131.016 15.824 129.992 15.952C128.968 16.08 128.456 16.464 128.456 17.104C128.498 18.2987 131.741 18.896 138.184 18.896ZM192.986 4.048C197.381 4.048 201.199 4.432 204.442 5.2C207.685 5.968 210.501 7.22666 212.89 8.976C215.279 10.7253 217.029 13.1147 218.138 16.144C219.247 19.1307 219.631 22.736 219.29 26.96H181.274C181.487 28.112 182.533 29.0507 184.41 29.776C186.287 30.5013 189.103 30.864 192.858 30.864C196.143 30.864 199.407 30.6507 202.65 30.224C205.935 29.7973 208.41 29.3707 210.074 28.944L212.506 28.304L218.906 38.672C218.778 38.7573 218.543 38.8853 218.202 39.056C217.861 39.184 216.986 39.44 215.578 39.824C214.213 40.208 212.655 40.5493 210.906 40.848C209.157 41.1467 206.725 41.424 203.61 41.68C200.495 41.8933 197.082 42 193.37 42C189.018 42 185.221 41.7013 181.978 41.104C178.778 40.5067 176.154 39.6747 174.106 38.608C172.101 37.5413 170.479 36.1973 169.242 34.576C168.005 32.9547 167.151 31.2267 166.682 29.392C166.213 27.5573 165.978 25.424 165.978 22.992C165.978 17.0187 168.239 12.368 172.762 9.04C177.327 5.712 184.069 4.048 192.986 4.048ZM193.114 15.504C190.767 15.504 188.762 15.6747 187.098 16.016C185.434 16.3573 184.218 16.8053 183.45 17.36C182.682 17.872 182.127 18.384 181.786 18.896C181.445 19.408 181.274 19.92 181.274 20.432H204.186C204.186 19.024 203.333 17.8507 201.626 16.912C199.962 15.9733 197.125 15.504 193.114 15.504ZM252.822 4.944C258.88 4.944 263.766 6.16 267.478 8.592C267.776 8.76267 267.947 8.86933 267.99 8.912L262.422 20.304C262.038 20.0907 261.483 19.8347 260.758 19.536C260.032 19.1947 258.667 18.7467 256.662 18.192C254.656 17.6373 252.758 17.296 250.966 17.168C249.387 17.0827 247.894 17.168 246.486 17.424C245.078 17.68 243.968 17.9573 243.158 18.256C242.347 18.512 241.43 19.0027 240.406 19.728C239.424 20.4107 238.806 20.88 238.55 21.136C238.336 21.3493 237.846 21.8187 237.078 22.544V42H222.166V4.88H223.254H237.078V10.064C239.808 6.65066 245.056 4.944 252.822 4.944ZM301.916 -2.928H333.468C334.321 -2.928 335.132 -2.90667 335.9 -2.864C336.668 -2.82134 337.734 -2.672 339.1 -2.416C340.508 -2.20267 341.766 -1.86133 342.876 -1.392C344.028 -0.965336 345.244 -0.325335 346.524 0.528C347.804 1.38133 348.87 2.40533 349.724 3.6C350.62 4.752 351.345 6.26667 351.9 8.144C352.497 9.97866 352.796 12.048 352.796 14.352C352.796 16.6133 352.518 18.6827 351.964 20.56C351.452 22.4373 350.769 24.016 349.916 25.296C349.062 26.5333 348.038 27.6427 346.844 28.624C345.649 29.5627 344.476 30.3093 343.324 30.864C342.172 31.376 340.956 31.8027 339.676 32.144C338.438 32.4427 337.372 32.656 336.476 32.784C335.58 32.8693 334.748 32.912 333.979 32.912H316.828V42H301.916V-2.928ZM333.02 19.664C336.945 19.664 338.908 18.0427 338.908 14.8C338.908 14.0747 338.801 13.456 338.588 12.944C338.417 12.432 338.14 12.0267 337.756 11.728C337.372 11.3867 336.988 11.1093 336.604 10.896C336.22 10.6827 335.75 10.5547 335.196 10.512C334.684 10.4267 334.257 10.3627 333.916 10.32C333.574 10.2773 333.19 10.256 332.764 10.256H316.828V19.664H333.02ZM356.483 38.032V-2.416V-2.8H371.395V42H356.483V38.032ZM427.839 42.064H413.119C413.119 40.9973 413.098 39.8667 413.055 38.672C408.532 41.36 403.306 42.704 397.375 42.704C395.626 42.704 394.132 42.6827 392.895 42.64C391.7 42.5973 390.207 42.4907 388.415 42.32C386.623 42.1493 385.108 41.9147 383.871 41.616C382.634 41.3173 381.332 40.8693 379.967 40.272C378.602 39.6747 377.492 38.9707 376.639 38.16C375.786 37.3067 375.082 36.24 374.527 34.96C373.972 33.6373 373.695 32.1867 373.695 30.608C373.695 28.6027 374.335 26.8747 375.615 25.424C376.938 23.9307 378.73 22.7573 380.991 21.904C383.252 21.0507 385.727 20.432 388.415 20.048C391.103 19.6213 394.004 19.408 397.119 19.408C402.41 19.408 407.188 20.1973 411.455 21.776C410.602 19.216 409.151 17.552 407.103 16.784C405.098 15.9733 401.898 15.568 397.503 15.568C393.919 15.568 390.463 15.824 387.135 16.336C383.85 16.8053 381.738 17.1893 380.799 17.488C379.903 17.744 379.135 17.9787 378.495 18.192L375.167 8.08C382.42 5.392 390.164 4.048 398.399 4.048C400.191 4.048 401.94 4.112 403.647 4.24C405.354 4.32533 407.38 4.58133 409.727 5.008C412.074 5.392 414.164 5.92533 415.999 6.608C417.876 7.29067 419.647 8.29333 421.311 9.616C422.975 10.896 424.191 12.3893 424.959 14.096C426.196 16.912 426.986 20.4747 427.327 24.784C427.668 29.0507 427.839 34.8107 427.839 42.064ZM399.039 33.296C402.154 33.296 405.012 32.976 407.615 32.336C410.218 31.6533 411.711 31.0347 412.095 30.48C412.095 30.096 412.095 29.8613 412.095 29.776C410.9 28.6667 406.804 28.112 399.807 28.112C396.266 28.112 393.727 28.3253 392.191 28.752C390.655 29.136 389.887 29.7547 389.887 30.608C389.887 32.4 392.938 33.296 399.039 33.296ZM479.12 12.496C480.144 14.8 480.762 17.7653 480.976 21.392C481.232 24.976 481.36 30.864 481.36 39.056V42H466.448V29.776C466.448 29.648 466.448 29.456 466.448 29.2C466.448 28.3893 466.448 27.7707 466.448 27.344C466.448 26.8747 466.405 26.2133 466.319 25.36C466.277 24.5067 466.192 23.8453 466.064 23.376C465.978 22.864 465.808 22.2453 465.552 21.52C465.338 20.752 465.061 20.1547 464.72 19.728C464.421 19.2587 464.016 18.768 463.504 18.256C463.034 17.744 462.48 17.3387 461.84 17.04C461.2 16.7413 460.432 16.5067 459.536 16.336C458.64 16.1227 457.658 16.016 456.592 16.016C453.861 16.016 451.664 16.4213 450 17.232C448.378 18 446.864 19.1093 445.456 20.56V42H430.416V4.944H445.456V10.064C446.821 9.08267 447.866 8.37867 448.592 7.952C449.36 7.48266 450.405 6.94933 451.728 6.352C453.093 5.712 454.565 5.264 456.144 5.008C457.722 4.752 459.536 4.624 461.583 4.624C463.589 4.624 465.36 4.70933 466.896 4.88C468.432 5.05066 470.032 5.392 471.696 5.904C473.402 6.416 474.874 7.22666 476.112 8.336C477.392 9.44533 478.394 10.832 479.12 12.496ZM510.861 4.048C515.256 4.048 519.074 4.432 522.317 5.2C525.56 5.968 528.376 7.22666 530.765 8.976C533.154 10.7253 534.904 13.1147 536.013 16.144C537.122 19.1307 537.506 22.736 537.165 26.96H499.149C499.362 28.112 500.408 29.0507 502.285 29.776C504.162 30.5013 506.978 30.864 510.733 30.864C514.018 30.864 517.282 30.6507 520.525 30.224C523.81 29.7973 526.285 29.3707 527.949 28.944L530.381 28.304L536.781 38.672C536.653 38.7573 536.418 38.8853 536.077 39.056C535.736 39.184 534.861 39.44 533.453 39.824C532.088 40.208 530.53 40.5493 528.781 40.848C527.032 41.1467 524.6 41.424 521.485 41.68C518.37 41.8933 514.957 42 511.245 42C506.893 42 503.096 41.7013 499.853 41.104C496.653 40.5067 494.029 39.6747 491.981 38.608C489.976 37.5413 488.354 36.1973 487.117 34.576C485.88 32.9547 485.026 31.2267 484.557 29.392C484.088 27.5573 483.853 25.424 483.853 22.992C483.853 17.0187 486.114 12.368 490.637 9.04C495.202 5.712 501.944 4.048 510.861 4.048ZM510.989 15.504C508.642 15.504 506.637 15.6747 504.973 16.016C503.309 16.3573 502.093 16.8053 501.325 17.36C500.557 17.872 500.002 18.384 499.661 18.896C499.32 19.408 499.149 19.92 499.149 20.432H522.061C522.061 19.024 521.208 17.8507 519.501 16.912C517.837 15.9733 515 15.504 510.989 15.504ZM256.353 46.072H287.905C288.758 46.072 289.569 46.0933 290.337 46.136C291.105 46.1787 292.172 46.328 293.537 46.584C294.945 46.7973 296.204 47.1387 297.313 47.608C298.465 48.0347 299.681 48.6747 300.961 49.528C302.241 50.3813 303.308 51.4053 304.161 52.6C305.057 53.752 305.782 55.2667 306.337 57.144C306.934 58.9787 307.233 61.048 307.233 63.352C307.233 65.6133 306.956 67.6827 306.401 69.56C305.889 71.4373 305.206 73.016 304.353 74.296C303.5 75.5333 302.476 76.6427 301.281 77.624C300.086 78.5627 298.913 79.3093 297.761 79.864C296.609 80.376 295.393 80.8027 294.113 81.144C292.876 81.4427 291.809 81.656 290.913 81.784C290.017 81.8693 289.185 81.912 288.417 81.912H271.265V91H256.353V46.072ZM287.457 68.664C291.382 68.664 293.345 67.0427 293.345 63.8C293.345 63.0747 293.238 62.456 293.025 61.944C292.854 61.432 292.577 61.0267 292.193 60.728C291.809 60.3867 291.425 60.1093 291.041 59.896C290.657 59.6827 290.188 59.5547 289.633 59.512C289.121 59.4267 288.694 59.3627 288.353 59.32C288.012 59.2773 287.628 59.256 287.201 59.256H271.265V68.664H287.457ZM310.92 87.032V46.584V46.2H325.832V91H310.92V87.032ZM382.277 91.064H367.557C367.557 89.9973 367.535 88.8667 367.493 87.672C362.97 90.36 357.743 91.704 351.813 91.704C350.063 91.704 348.57 91.6827 347.333 91.64C346.138 91.5973 344.645 91.4907 342.853 91.32C341.061 91.1493 339.546 90.9147 338.309 90.616C337.071 90.3173 335.77 89.8693 334.405 89.272C333.039 88.6747 331.93 87.9707 331.077 87.16C330.223 86.3067 329.519 85.24 328.965 83.96C328.41 82.6373 328.133 81.1867 328.133 79.608C328.133 77.6027 328.773 75.8747 330.053 74.424C331.375 72.9307 333.167 71.7573 335.429 70.904C337.69 70.0507 340.165 69.432 342.853 69.048C345.541 68.6213 348.442 68.408 351.557 68.408C356.847 68.408 361.626 69.1973 365.893 70.776C365.039 68.216 363.589 66.552 361.541 65.784C359.535 64.9733 356.335 64.568 351.941 64.568C348.357 64.568 344.901 64.824 341.573 65.336C338.287 65.8053 336.175 66.1893 335.237 66.488C334.341 66.744 333.573 66.9787 332.933 67.192L329.605 57.08C336.858 54.392 344.602 53.048 352.837 53.048C354.629 53.048 356.378 53.112 358.085 53.24C359.791 53.3253 361.818 53.5813 364.165 54.008C366.511 54.392 368.602 54.9253 370.437 55.608C372.314 56.2907 374.085 57.2933 375.749 58.616C377.413 59.896 378.629 61.3893 379.397 63.096C380.634 65.912 381.423 69.4747 381.765 73.784C382.106 78.0507 382.277 83.8107 382.277 91.064ZM353.477 82.296C356.591 82.296 359.45 81.976 362.053 81.336C364.655 80.6533 366.149 80.0347 366.533 79.48C366.533 79.096 366.533 78.8613 366.533 78.776C365.338 77.6667 361.242 77.112 354.245 77.112C350.703 77.112 348.165 77.3253 346.628 77.752C345.093 78.136 344.325 78.7547 344.325 79.608C344.325 81.4 347.375 82.296 353.477 82.296ZM433.557 61.496C434.581 63.8 435.2 66.7653 435.413 70.392C435.669 73.976 435.797 79.864 435.797 88.056V91H420.885V78.776C420.885 78.648 420.885 78.456 420.885 78.2C420.885 77.3893 420.885 76.7707 420.885 76.344C420.885 75.8747 420.842 75.2133 420.757 74.36C420.714 73.5067 420.629 72.8453 420.501 72.376C420.416 71.864 420.245 71.2453 419.989 70.52C419.776 69.752 419.498 69.1547 419.157 68.728C418.858 68.2587 418.453 67.768 417.941 67.256C417.472 66.744 416.917 66.3387 416.277 66.04C415.637 65.7413 414.869 65.5067 413.973 65.336C413.077 65.1227 412.096 65.016 411.029 65.016C408.298 65.016 406.101 65.4213 404.437 66.232C402.816 67 401.301 68.1093 399.893 69.56V91H384.853V53.944H399.893V59.064C401.258 58.0827 402.304 57.3787 403.029 56.952C403.797 56.4827 404.842 55.9493 406.165 55.352C407.53 54.712 409.002 54.264 410.581 54.008C412.16 53.752 413.973 53.624 416.021 53.624C418.026 53.624 419.797 53.7093 421.333 53.88C422.869 54.0507 424.469 54.392 426.133 54.904C427.84 55.416 429.312 56.2267 430.549 57.336C431.829 58.4453 432.832 59.832 433.557 61.496ZM465.299 53.048C469.693 53.048 473.512 53.432 476.755 54.2C479.997 54.968 482.813 56.2267 485.203 57.976C487.592 59.7253 489.341 62.1147 490.451 65.144C491.56 68.1307 491.944 71.736 491.603 75.96H453.587C453.8 77.112 454.845 78.0507 456.723 78.776C458.6 79.5013 461.416 79.864 465.171 79.864C468.456 79.864 471.72 79.6507 474.963 79.224C478.248 78.7973 480.723 78.3707 482.387 77.944L484.819 77.304L491.219 87.672C491.091 87.7573 490.856 87.8853 490.515 88.056C490.173 88.184 489.299 88.44 487.891 88.824C486.525 89.208 484.968 89.5493 483.219 89.848C481.469 90.1467 479.037 90.424 475.923 90.68C472.808 90.8933 469.395 91 465.683 91C461.331 91 457.533 90.7013 454.291 90.104C451.091 89.5067 448.467 88.6747 446.419 87.608C444.413 86.5413 442.792 85.1973 441.555 83.576C440.317 81.9547 439.464 80.2267 438.995 78.392C438.525 76.5573 438.291 74.424 438.291 71.992C438.291 66.0187 440.552 61.368 445.075 58.04C449.64 54.712 456.381 53.048 465.299 53.048ZM465.427 64.504C463.08 64.504 461.075 64.6747 459.411 65.016C457.747 65.3573 456.531 65.8053 455.763 66.36C454.995 66.872 454.44 67.384 454.099 67.896C453.757 68.408 453.587 68.92 453.587 69.432H476.499C476.499 68.024 475.645 66.8507 473.939 65.912C472.275 64.9733 469.437 64.504 465.427 64.504ZM519.745 78.84C520.812 78.84 521.964 78.776 523.201 78.648C524.438 78.4773 525.548 78.2853 526.529 78.072C527.51 77.8587 528.406 77.6453 529.217 77.432C530.07 77.176 530.732 76.984 531.201 76.856C531.713 76.6853 531.948 76.6 531.905 76.6L537.217 88.12C536.577 88.376 535.638 88.6747 534.401 89.016C533.164 89.3147 530.497 89.7627 526.401 90.36C522.348 90.9147 518.124 91.192 513.729 91.192C511.638 91.192 509.91 91.128 508.545 91C507.222 90.8293 506.006 90.488 504.897 89.976C503.788 89.4213 502.934 88.76 502.337 87.992C501.74 87.1813 501.228 86.0293 500.801 84.536C500.374 83.0427 500.097 81.3573 499.969 79.48C499.841 77.6027 499.777 75.2133 499.777 72.312V64.888H492.353V53.752H499.777V46.008H514.625V53.752H532.737V64.888H514.625V72.312C514.625 72.3973 514.625 72.5253 514.625 72.696C514.625 72.824 514.646 73.1227 514.689 73.592C514.732 74.0613 514.796 74.5093 514.881 74.936C515.009 75.32 515.18 75.768 515.393 76.28C515.649 76.792 515.948 77.24 516.289 77.624C516.673 77.9653 517.164 78.264 517.761 78.52C518.358 78.7333 519.02 78.84 519.745 78.84ZM213.975 140C207.276 140 201.687 139.339 197.207 138.016C192.727 136.693 189.633 134.411 187.927 131.168C186.689 128.736 185.857 125.728 185.431 122.144C185.004 118.517 184.791 113.077 184.791 105.824L184.855 95.072H200.599V115.168C200.599 116.448 200.663 117.6 200.791 118.624C200.919 119.605 201.239 120.693 201.751 121.888C202.305 123.083 203.052 124.085 203.991 124.896C204.929 125.664 206.252 126.325 207.959 126.88C209.665 127.392 211.671 127.648 213.975 127.648C216.321 127.648 218.327 127.392 219.991 126.88C221.697 126.325 222.977 125.664 223.831 124.896C224.727 124.128 225.431 123.147 225.943 121.952C226.455 120.715 226.753 119.605 226.839 118.624C226.967 117.643 227.031 116.491 227.031 115.168V95.072H242.775V105.824C242.817 113.077 242.625 118.517 242.199 122.144C241.772 125.728 240.94 128.736 239.703 131.168C238.807 132.875 237.527 134.325 235.863 135.52C234.241 136.672 232.279 137.568 229.975 138.208C227.671 138.848 225.239 139.317 222.679 139.616C220.119 139.872 217.217 140 213.975 140ZM294.995 110.496C296.019 112.8 296.637 115.765 296.851 119.392C297.107 122.976 297.235 128.864 297.235 137.056V140H282.323V127.776C282.323 127.648 282.323 127.456 282.323 127.2C282.323 126.389 282.323 125.771 282.323 125.344C282.323 124.875 282.28 124.213 282.194 123.36C282.152 122.507 282.067 121.845 281.939 121.376C281.853 120.864 281.683 120.245 281.427 119.52C281.213 118.752 280.936 118.155 280.595 117.728C280.296 117.259 279.891 116.768 279.379 116.256C278.909 115.744 278.355 115.339 277.715 115.04C277.075 114.741 276.307 114.507 275.411 114.336C274.515 114.123 273.533 114.016 272.467 114.016C269.736 114.016 267.539 114.421 265.875 115.232C264.253 116 262.739 117.109 261.331 118.56V140H246.291V102.944H261.331V108.064C262.696 107.083 263.741 106.379 264.467 105.952C265.235 105.483 266.28 104.949 267.603 104.352C268.968 103.712 270.44 103.264 272.019 103.008C273.597 102.752 275.411 102.624 277.458 102.624C279.464 102.624 281.235 102.709 282.771 102.88C284.307 103.051 285.907 103.392 287.571 103.904C289.277 104.416 290.749 105.227 291.987 106.336C293.267 107.445 294.269 108.832 294.995 110.496ZM322.621 116.896C327.016 116.896 330.621 117.003 333.437 117.216C336.296 117.429 338.77 117.771 340.861 118.24C342.994 118.709 344.594 119.413 345.661 120.352C346.77 121.291 347.56 122.421 348.029 123.744C348.541 125.024 348.797 126.667 348.797 128.672C348.797 130.421 348.669 131.893 348.413 133.088C348.2 134.24 347.73 135.328 347.005 136.352C346.28 137.333 345.32 138.123 344.125 138.72C342.973 139.317 341.394 139.829 339.389 140.256C337.426 140.683 335.101 140.981 332.413 141.152C329.768 141.323 326.568 141.408 322.813 141.408C309.8 141.408 302.141 140.341 299.837 138.208L303.997 127.584C305.021 128.267 307.538 128.843 311.549 129.312C315.56 129.739 319.506 129.952 323.389 129.952C324.072 129.952 325.01 129.952 326.205 129.952C329.746 129.952 332.072 129.909 333.181 129.824C334.29 129.696 334.845 129.376 334.845 128.864C334.845 127.456 330.706 126.752 322.429 126.752C319.058 126.752 316.178 126.667 313.789 126.496C311.442 126.283 309.245 125.92 307.197 125.408C305.192 124.896 303.592 124.213 302.397 123.36C301.202 122.464 300.264 121.333 299.581 119.968C298.941 118.56 298.621 116.896 298.621 114.976C298.621 113.568 298.728 112.309 298.941 111.2C299.197 110.091 299.602 109.131 300.157 108.32C300.712 107.467 301.33 106.741 302.013 106.144C302.696 105.504 303.592 104.971 304.701 104.544C305.853 104.117 307.005 103.776 308.157 103.52C309.352 103.264 310.824 103.072 312.573 102.944C314.322 102.816 316.029 102.731 317.693 102.688C319.357 102.603 321.362 102.56 323.709 102.56C328.914 102.56 333.138 102.731 336.381 103.072C339.666 103.413 342.013 103.819 343.421 104.288C344.872 104.757 346.408 105.419 348.029 106.272L343.421 116.448C341.416 115.723 338.408 115.104 334.397 114.592C330.429 114.037 326.546 113.76 322.749 113.76C322.408 113.76 321.917 113.76 321.277 113.76C317.736 113.76 315.453 113.824 314.429 113.952C313.405 114.08 312.893 114.464 312.893 115.104C312.936 116.299 316.178 116.896 322.621 116.896ZM377.424 102.048C381.818 102.048 385.637 102.432 388.88 103.2C392.122 103.968 394.938 105.227 397.328 106.976C399.717 108.725 401.466 111.115 402.576 114.144C403.685 117.131 404.069 120.736 403.728 124.96H365.712C365.925 126.112 366.97 127.051 368.848 127.776C370.725 128.501 373.541 128.864 377.296 128.864C380.581 128.864 383.845 128.651 387.088 128.224C390.373 127.797 392.848 127.371 394.512 126.944L396.944 126.304L403.344 136.672C403.216 136.757 402.981 136.885 402.64 137.056C402.298 137.184 401.424 137.44 400.016 137.824C398.65 138.208 397.093 138.549 395.344 138.848C393.594 139.147 391.162 139.424 388.048 139.68C384.933 139.893 381.52 140 377.808 140C373.456 140 369.658 139.701 366.416 139.104C363.216 138.507 360.592 137.675 358.544 136.608C356.538 135.541 354.917 134.197 353.68 132.576C352.442 130.955 351.589 129.227 351.12 127.392C350.65 125.557 350.416 123.424 350.416 120.992C350.416 115.019 352.677 110.368 357.2 107.04C361.765 103.712 368.506 102.048 377.424 102.048ZM377.552 113.504C375.205 113.504 373.2 113.675 371.536 114.016C369.872 114.357 368.656 114.805 367.888 115.36C367.12 115.872 366.565 116.384 366.224 116.896C365.882 117.408 365.712 117.92 365.712 118.432H388.624C388.624 117.024 387.77 115.851 386.064 114.912C384.4 113.973 381.562 113.504 377.552 113.504ZM437.259 102.944C443.318 102.944 448.203 104.16 451.915 106.592C452.214 106.763 452.384 106.869 452.427 106.912L446.859 118.304C446.475 118.091 445.92 117.835 445.195 117.536C444.47 117.195 443.104 116.747 441.099 116.192C439.094 115.637 437.195 115.296 435.403 115.168C433.824 115.083 432.331 115.168 430.923 115.424C429.515 115.68 428.406 115.957 427.595 116.256C426.784 116.512 425.867 117.003 424.843 117.728C423.862 118.411 423.243 118.88 422.987 119.136C422.774 119.349 422.283 119.819 421.515 120.544V140H406.603V102.88H407.691H421.515V108.064C424.246 104.651 429.494 102.944 437.259 102.944ZM486.353 95.072H517.905C518.758 95.072 519.569 95.0933 520.337 95.136C521.105 95.1787 522.172 95.328 523.537 95.584C524.945 95.7973 526.204 96.1387 527.313 96.608C528.465 97.0347 529.681 97.6747 530.961 98.528C532.241 99.3813 533.308 100.405 534.161 101.6C535.057 102.752 535.782 104.267 536.337 106.144C536.934 107.979 537.233 110.048 537.233 112.352C537.233 114.613 536.956 116.683 536.401 118.56C535.889 120.437 535.206 122.016 534.353 123.296C533.5 124.533 532.476 125.643 531.281 126.624C530.086 127.563 528.913 128.309 527.761 128.864C526.609 129.376 525.393 129.803 524.113 130.144C522.876 130.443 521.809 130.656 520.913 130.784C520.017 130.869 519.185 130.912 518.417 130.912H501.265V140H486.353V95.072ZM517.457 117.664C521.382 117.664 523.345 116.043 523.345 112.8C523.345 112.075 523.238 111.456 523.025 110.944C522.854 110.432 522.577 110.027 522.193 109.728C521.809 109.387 521.425 109.109 521.041 108.896C520.657 108.683 520.188 108.555 519.633 108.512C519.121 108.427 518.694 108.363 518.353 108.32C518.012 108.277 517.628 108.256 517.201 108.256H501.265V117.664H517.457ZM29.537 189C22.8383 189 17.249 188.339 12.769 187.016C8.289 185.693 5.19567 183.411 3.489 180.168C2.25167 177.736 1.41967 174.728 0.993 171.144C0.566333 167.517 0.353 162.077 0.353 154.824L0.417 144.072H16.161V164.168C16.161 165.448 16.225 166.6 16.353 167.624C16.481 168.605 16.801 169.693 17.313 170.888C17.8677 172.083 18.6143 173.085 19.553 173.896C20.4917 174.664 21.8143 175.325 23.521 175.88C25.2277 176.392 27.233 176.648 29.537 176.648C31.8837 176.648 33.889 176.392 35.553 175.88C37.2597 175.325 38.5397 174.664 39.393 173.896C40.289 173.128 40.993 172.147 41.505 170.952C42.017 169.715 42.3157 168.605 42.401 167.624C42.529 166.643 42.593 165.491 42.593 164.168V144.072H58.337V154.824C58.3797 162.077 58.1877 167.517 57.761 171.144C57.3343 174.728 56.5023 177.736 55.265 180.168C54.369 181.875 53.089 183.325 51.425 184.52C49.8037 185.672 47.841 186.568 45.537 187.208C43.233 187.848 40.801 188.317 38.241 188.616C35.681 188.872 32.7797 189 29.537 189ZM110.557 159.496C111.581 161.8 112.2 164.765 112.413 168.392C112.669 171.976 112.797 177.864 112.797 186.056V189H97.885V176.776C97.885 176.648 97.885 176.456 97.885 176.2C97.885 175.389 97.885 174.771 97.885 174.344C97.885 173.875 97.8423 173.213 97.757 172.36C97.7143 171.507 97.629 170.845 97.501 170.376C97.4157 169.864 97.245 169.245 96.989 168.52C96.7757 167.752 96.4983 167.155 96.157 166.728C95.8583 166.259 95.453 165.768 94.941 165.256C94.4717 164.744 93.917 164.339 93.277 164.04C92.637 163.741 91.869 163.507 90.973 163.336C90.077 163.123 89.0957 163.016 88.029 163.016C85.2983 163.016 83.101 163.421 81.437 164.232C79.8157 165 78.301 166.109 76.893 167.56V189H61.853V151.944H76.893V157.064C78.2583 156.083 79.3037 155.379 80.029 154.952C80.797 154.483 81.8423 153.949 83.165 153.352C84.5303 152.712 86.0023 152.264 87.581 152.008C89.1597 151.752 90.973 151.624 93.021 151.624C95.0263 151.624 96.797 151.709 98.333 151.88C99.869 152.051 101.469 152.392 103.133 152.904C104.84 153.416 106.312 154.227 107.549 155.336C108.829 156.445 109.832 157.832 110.557 159.496ZM138.184 165.896C142.578 165.896 146.184 166.003 149 166.216C151.858 166.429 154.333 166.771 156.424 167.24C158.557 167.709 160.157 168.413 161.224 169.352C162.333 170.291 163.122 171.421 163.592 172.744C164.104 174.024 164.36 175.667 164.36 177.672C164.36 179.421 164.232 180.893 163.976 182.088C163.762 183.24 163.293 184.328 162.568 185.352C161.842 186.333 160.882 187.123 159.688 187.72C158.536 188.317 156.957 188.829 154.952 189.256C152.989 189.683 150.664 189.981 147.976 190.152C145.33 190.323 142.13 190.408 138.376 190.408C125.362 190.408 117.704 189.341 115.4 187.208L119.56 176.584C120.584 177.267 123.101 177.843 127.112 178.312C131.122 178.739 135.069 178.952 138.952 178.952C139.634 178.952 140.573 178.952 141.768 178.952C145.309 178.952 147.634 178.909 148.744 178.824C149.853 178.696 150.408 178.376 150.408 177.864C150.408 176.456 146.269 175.752 137.992 175.752C134.621 175.752 131.741 175.667 129.352 175.496C127.005 175.283 124.808 174.92 122.76 174.408C120.754 173.896 119.154 173.213 117.96 172.36C116.765 171.464 115.826 170.333 115.144 168.968C114.504 167.56 114.184 165.896 114.184 163.976C114.184 162.568 114.29 161.309 114.504 160.2C114.76 159.091 115.165 158.131 115.72 157.32C116.274 156.467 116.893 155.741 117.576 155.144C118.258 154.504 119.154 153.971 120.264 153.544C121.416 153.117 122.568 152.776 123.72 152.52C124.914 152.264 126.386 152.072 128.135 151.944C129.885 151.816 131.592 151.731 133.256 151.688C134.92 151.603 136.925 151.56 139.272 151.56C144.477 151.56 148.701 151.731 151.944 152.072C155.229 152.413 157.576 152.819 158.984 153.288C160.434 153.757 161.97 154.419 163.592 155.272L158.984 165.448C156.978 164.723 153.97 164.104 149.96 163.592C145.992 163.037 142.109 162.76 138.312 162.76C137.97 162.76 137.48 162.76 136.84 162.76C133.298 162.76 131.016 162.824 129.992 162.952C128.968 163.08 128.456 163.464 128.456 164.104C128.498 165.299 131.741 165.896 138.184 165.896ZM192.986 151.048C197.381 151.048 201.199 151.432 204.442 152.2C207.685 152.968 210.501 154.227 212.89 155.976C215.279 157.725 217.029 160.115 218.138 163.144C219.247 166.131 219.631 169.736 219.29 173.96H181.274C181.487 175.112 182.533 176.051 184.41 176.776C186.287 177.501 189.103 177.864 192.858 177.864C196.143 177.864 199.407 177.651 202.65 177.224C205.935 176.797 208.41 176.371 210.074 175.944L212.506 175.304L218.906 185.672C218.778 185.757 218.543 185.885 218.202 186.056C217.861 186.184 216.986 186.44 215.578 186.824C214.213 187.208 212.655 187.549 210.906 187.848C209.157 188.147 206.725 188.424 203.61 188.68C200.495 188.893 197.082 189 193.37 189C189.018 189 185.221 188.701 181.978 188.104C178.778 187.507 176.154 186.675 174.106 185.608C172.101 184.541 170.479 183.197 169.242 181.576C168.005 179.955 167.151 178.227 166.682 176.392C166.213 174.557 165.978 172.424 165.978 169.992C165.978 164.019 168.239 159.368 172.762 156.04C177.327 152.712 184.069 151.048 192.986 151.048ZM193.114 162.504C190.767 162.504 188.762 162.675 187.098 163.016C185.434 163.357 184.218 163.805 183.45 164.36C182.682 164.872 182.127 165.384 181.786 165.896C181.445 166.408 181.274 166.92 181.274 167.432H204.186C204.186 166.024 203.333 164.851 201.626 163.912C199.962 162.973 197.125 162.504 193.114 162.504ZM252.822 151.944C258.88 151.944 263.766 153.16 267.478 155.592C267.776 155.763 267.947 155.869 267.99 155.912L262.422 167.304C262.038 167.091 261.483 166.835 260.758 166.536C260.032 166.195 258.667 165.747 256.662 165.192C254.656 164.637 252.758 164.296 250.966 164.168C249.387 164.083 247.894 164.168 246.486 164.424C245.078 164.68 243.968 164.957 243.158 165.256C242.347 165.512 241.43 166.003 240.406 166.728C239.424 167.411 238.806 167.88 238.55 168.136C238.336 168.349 237.846 168.819 237.078 169.544V189H222.166V151.88H223.254H237.078V157.064C239.808 153.651 245.056 151.944 252.822 151.944ZM301.916 144.072H333.468C334.321 144.072 335.132 144.093 335.9 144.136C336.668 144.179 337.734 144.328 339.1 144.584C340.508 144.797 341.766 145.139 342.876 145.608C344.028 146.035 345.244 146.675 346.524 147.528C347.804 148.381 348.87 149.405 349.724 150.6C350.62 151.752 351.345 153.267 351.9 155.144C352.497 156.979 352.796 159.048 352.796 161.352C352.796 163.613 352.518 165.683 351.964 167.56C351.452 169.437 350.769 171.016 349.916 172.296C349.062 173.533 348.038 174.643 346.844 175.624C345.649 176.563 344.476 177.309 343.324 177.864C342.172 178.376 340.956 178.803 339.676 179.144C338.438 179.443 337.372 179.656 336.476 179.784C335.58 179.869 334.748 179.912 333.979 179.912H316.828V189H301.916V144.072ZM333.02 166.664C336.945 166.664 338.908 165.043 338.908 161.8C338.908 161.075 338.801 160.456 338.588 159.944C338.417 159.432 338.14 159.027 337.756 158.728C337.372 158.387 336.988 158.109 336.604 157.896C336.22 157.683 335.75 157.555 335.196 157.512C334.684 157.427 334.257 157.363 333.916 157.32C333.574 157.277 333.19 157.256 332.764 157.256H316.828V166.664H333.02ZM356.483 185.032V144.584V144.2H371.395V189H356.483V185.032ZM427.839 189.064H413.119C413.119 187.997 413.098 186.867 413.055 185.672C408.532 188.36 403.306 189.704 397.375 189.704C395.626 189.704 394.132 189.683 392.895 189.64C391.7 189.597 390.207 189.491 388.415 189.32C386.623 189.149 385.108 188.915 383.871 188.616C382.634 188.317 381.332 187.869 379.967 187.272C378.602 186.675 377.492 185.971 376.639 185.16C375.786 184.307 375.082 183.24 374.527 181.96C373.972 180.637 373.695 179.187 373.695 177.608C373.695 175.603 374.335 173.875 375.615 172.424C376.938 170.931 378.73 169.757 380.991 168.904C383.252 168.051 385.727 167.432 388.415 167.048C391.103 166.621 394.004 166.408 397.119 166.408C402.41 166.408 407.188 167.197 411.455 168.776C410.602 166.216 409.151 164.552 407.103 163.784C405.098 162.973 401.898 162.568 397.503 162.568C393.919 162.568 390.463 162.824 387.135 163.336C383.85 163.805 381.738 164.189 380.799 164.488C379.903 164.744 379.135 164.979 378.495 165.192L375.167 155.08C382.42 152.392 390.164 151.048 398.399 151.048C400.191 151.048 401.94 151.112 403.647 151.24C405.354 151.325 407.38 151.581 409.727 152.008C412.074 152.392 414.164 152.925 415.999 153.608C417.876 154.291 419.647 155.293 421.311 156.616C422.975 157.896 424.191 159.389 424.959 161.096C426.196 163.912 426.986 167.475 427.327 171.784C427.668 176.051 427.839 181.811 427.839 189.064ZM399.039 180.296C402.154 180.296 405.012 179.976 407.615 179.336C410.218 178.653 411.711 178.035 412.095 177.48C412.095 177.096 412.095 176.861 412.095 176.776C410.9 175.667 406.804 175.112 399.807 175.112C396.266 175.112 393.727 175.325 392.191 175.752C390.655 176.136 389.887 176.755 389.887 177.608C389.887 179.4 392.938 180.296 399.039 180.296ZM479.12 159.496C480.144 161.8 480.762 164.765 480.976 168.392C481.232 171.976 481.36 177.864 481.36 186.056V189H466.448V176.776C466.448 176.648 466.448 176.456 466.448 176.2C466.448 175.389 466.448 174.771 466.448 174.344C466.448 173.875 466.405 173.213 466.319 172.36C466.277 171.507 466.192 170.845 466.064 170.376C465.978 169.864 465.808 169.245 465.552 168.52C465.338 167.752 465.061 167.155 464.72 166.728C464.421 166.259 464.016 165.768 463.504 165.256C463.034 164.744 462.48 164.339 461.84 164.04C461.2 163.741 460.432 163.507 459.536 163.336C458.64 163.123 457.658 163.016 456.592 163.016C453.861 163.016 451.664 163.421 450 164.232C448.378 165 446.864 166.109 445.456 167.56V189H430.416V151.944H445.456V157.064C446.821 156.083 447.866 155.379 448.592 154.952C449.36 154.483 450.405 153.949 451.728 153.352C453.093 152.712 454.565 152.264 456.144 152.008C457.722 151.752 459.536 151.624 461.583 151.624C463.589 151.624 465.36 151.709 466.896 151.88C468.432 152.051 470.032 152.392 471.696 152.904C473.402 153.416 474.874 154.227 476.112 155.336C477.392 156.445 478.394 157.832 479.12 159.496ZM510.861 151.048C515.256 151.048 519.074 151.432 522.317 152.2C525.56 152.968 528.376 154.227 530.765 155.976C533.154 157.725 534.904 160.115 536.013 163.144C537.122 166.131 537.506 169.736 537.165 173.96H499.149C499.362 175.112 500.408 176.051 502.285 176.776C504.162 177.501 506.978 177.864 510.733 177.864C514.018 177.864 517.282 177.651 520.525 177.224C523.81 176.797 526.285 176.371 527.949 175.944L530.381 175.304L536.781 185.672C536.653 185.757 536.418 185.885 536.077 186.056C535.736 186.184 534.861 186.44 533.453 186.824C532.088 187.208 530.53 187.549 528.781 187.848C527.032 188.147 524.6 188.424 521.485 188.68C518.37 188.893 514.957 189 511.245 189C506.893 189 503.096 188.701 499.853 188.104C496.653 187.507 494.029 186.675 491.981 185.608C489.976 184.541 488.354 183.197 487.117 181.576C485.88 179.955 485.026 178.227 484.557 176.392C484.088 174.557 483.853 172.424 483.853 169.992C483.853 164.019 486.114 159.368 490.637 156.04C495.202 152.712 501.944 151.048 510.861 151.048ZM510.989 162.504C508.642 162.504 506.637 162.675 504.973 163.016C503.309 163.357 502.093 163.805 501.325 164.36C500.557 164.872 500.002 165.384 499.661 165.896C499.32 166.408 499.149 166.92 499.149 167.432H522.061C522.061 166.024 521.208 164.851 519.501 163.912C517.837 162.973 515 162.504 510.989 162.504ZM256.353 193.072H287.905C288.758 193.072 289.569 193.093 290.337 193.136C291.105 193.179 292.172 193.328 293.537 193.584C294.945 193.797 296.204 194.139 297.313 194.608C298.465 195.035 299.681 195.675 300.961 196.528C302.241 197.381 303.308 198.405 304.161 199.6C305.057 200.752 305.782 202.267 306.337 204.144C306.934 205.979 307.233 208.048 307.233 210.352C307.233 212.613 306.956 214.683 306.401 216.56C305.889 218.437 305.206 220.016 304.353 221.296C303.5 222.533 302.476 223.643 301.281 224.624C300.086 225.563 298.913 226.309 297.761 226.864C296.609 227.376 295.393 227.803 294.113 228.144C292.876 228.443 291.809 228.656 290.913 228.784C290.017 228.869 289.185 228.912 288.417 228.912H271.265V238H256.353V193.072ZM287.457 215.664C291.382 215.664 293.345 214.043 293.345 210.8C293.345 210.075 293.238 209.456 293.025 208.944C292.854 208.432 292.577 208.027 292.193 207.728C291.809 207.387 291.425 207.109 291.041 206.896C290.657 206.683 290.188 206.555 289.633 206.512C289.121 206.427 288.694 206.363 288.353 206.32C288.012 206.277 287.628 206.256 287.201 206.256H271.265V215.664H287.457ZM310.92 234.032V193.584V193.2H325.832V238H310.92V234.032ZM382.277 238.064H367.557C367.557 236.997 367.535 235.867 367.493 234.672C362.97 237.36 357.743 238.704 351.813 238.704C350.063 238.704 348.57 238.683 347.333 238.64C346.138 238.597 344.645 238.491 342.853 238.32C341.061 238.149 339.546 237.915 338.309 237.616C337.071 237.317 335.77 236.869 334.405 236.272C333.039 235.675 331.93 234.971 331.077 234.16C330.223 233.307 329.519 232.24 328.965 230.96C328.41 229.637 328.133 228.187 328.133 226.608C328.133 224.603 328.773 222.875 330.053 221.424C331.375 219.931 333.167 218.757 335.429 217.904C337.69 217.051 340.165 216.432 342.853 216.048C345.541 215.621 348.442 215.408 351.557 215.408C356.847 215.408 361.626 216.197 365.893 217.776C365.039 215.216 363.589 213.552 361.541 212.784C359.535 211.973 356.335 211.568 351.941 211.568C348.357 211.568 344.901 211.824 341.573 212.336C338.287 212.805 336.175 213.189 335.237 213.488C334.341 213.744 333.573 213.979 332.933 214.192L329.605 204.08C336.858 201.392 344.602 200.048 352.837 200.048C354.629 200.048 356.378 200.112 358.085 200.24C359.791 200.325 361.818 200.581 364.165 201.008C366.511 201.392 368.602 201.925 370.437 202.608C372.314 203.291 374.085 204.293 375.749 205.616C377.413 206.896 378.629 208.389 379.397 210.096C380.634 212.912 381.423 216.475 381.765 220.784C382.106 225.051 382.277 230.811 382.277 238.064ZM353.477 229.296C356.591 229.296 359.45 228.976 362.053 228.336C364.655 227.653 366.149 227.035 366.533 226.48C366.533 226.096 366.533 225.861 366.533 225.776C365.338 224.667 361.242 224.112 354.245 224.112C350.703 224.112 348.165 224.325 346.628 224.752C345.093 225.136 344.325 225.755 344.325 226.608C344.325 228.4 347.375 229.296 353.477 229.296ZM433.557 208.496C434.581 210.8 435.2 213.765 435.413 217.392C435.669 220.976 435.797 226.864 435.797 235.056V238H420.885V225.776C420.885 225.648 420.885 225.456 420.885 225.2C420.885 224.389 420.885 223.771 420.885 223.344C420.885 222.875 420.842 222.213 420.757 221.36C420.714 220.507 420.629 219.845 420.501 219.376C420.416 218.864 420.245 218.245 419.989 217.52C419.776 216.752 419.498 216.155 419.157 215.728C418.858 215.259 418.453 214.768 417.941 214.256C417.472 213.744 416.917 213.339 416.277 213.04C415.637 212.741 414.869 212.507 413.973 212.336C413.077 212.123 412.096 212.016 411.029 212.016C408.298 212.016 406.101 212.421 404.437 213.232C402.816 214 401.301 215.109 399.893 216.56V238H384.853V200.944H399.893V206.064C401.258 205.083 402.304 204.379 403.029 203.952C403.797 203.483 404.842 202.949 406.165 202.352C407.53 201.712 409.002 201.264 410.581 201.008C412.16 200.752 413.973 200.624 416.021 200.624C418.026 200.624 419.797 200.709 421.333 200.88C422.869 201.051 424.469 201.392 426.133 201.904C427.84 202.416 429.312 203.227 430.549 204.336C431.829 205.445 432.832 206.832 433.557 208.496ZM465.299 200.048C469.693 200.048 473.512 200.432 476.755 201.2C479.997 201.968 482.813 203.227 485.203 204.976C487.592 206.725 489.341 209.115 490.451 212.144C491.56 215.131 491.944 218.736 491.603 222.96H453.587C453.8 224.112 454.845 225.051 456.723 225.776C458.6 226.501 461.416 226.864 465.171 226.864C468.456 226.864 471.72 226.651 474.963 226.224C478.248 225.797 480.723 225.371 482.387 224.944L484.819 224.304L491.219 234.672C491.091 234.757 490.856 234.885 490.515 235.056C490.173 235.184 489.299 235.44 487.891 235.824C486.525 236.208 484.968 236.549 483.219 236.848C481.469 237.147 479.037 237.424 475.923 237.68C472.808 237.893 469.395 238 465.683 238C461.331 238 457.533 237.701 454.291 237.104C451.091 236.507 448.467 235.675 446.419 234.608C444.413 233.541 442.792 232.197 441.555 230.576C440.317 228.955 439.464 227.227 438.995 225.392C438.525 223.557 438.291 221.424 438.291 218.992C438.291 213.019 440.552 208.368 445.075 205.04C449.64 201.712 456.381 200.048 465.299 200.048ZM465.427 211.504C463.08 211.504 461.075 211.675 459.411 212.016C457.747 212.357 456.531 212.805 455.763 213.36C454.995 213.872 454.44 214.384 454.099 214.896C453.757 215.408 453.587 215.92 453.587 216.432H476.499C476.499 215.024 475.645 213.851 473.939 212.912C472.275 211.973 469.437 211.504 465.427 211.504ZM519.745 225.84C520.812 225.84 521.964 225.776 523.201 225.648C524.438 225.477 525.548 225.285 526.529 225.072C527.51 224.859 528.406 224.645 529.217 224.432C530.07 224.176 530.732 223.984 531.201 223.856C531.713 223.685 531.948 223.6 531.905 223.6L537.217 235.12C536.577 235.376 535.638 235.675 534.401 236.016C533.164 236.315 530.497 236.763 526.401 237.36C522.348 237.915 518.124 238.192 513.729 238.192C511.638 238.192 509.91 238.128 508.545 238C507.222 237.829 506.006 237.488 504.897 236.976C503.788 236.421 502.934 235.76 502.337 234.992C501.74 234.181 501.228 233.029 500.801 231.536C500.374 230.043 500.097 228.357 499.969 226.48C499.841 224.603 499.777 222.213 499.777 219.312V211.888H492.353V200.752H499.777V193.008H514.625V200.752H532.737V211.888H514.625V219.312C514.625 219.397 514.625 219.525 514.625 219.696C514.625 219.824 514.646 220.123 514.689 220.592C514.732 221.061 514.796 221.509 514.881 221.936C515.009 222.32 515.18 222.768 515.393 223.28C515.649 223.792 515.948 224.24 516.289 224.624C516.673 224.965 517.164 225.264 517.761 225.52C518.358 225.733 519.02 225.84 519.745 225.84ZM298.725 287C292.026 287 286.437 286.339 281.957 285.016C277.477 283.693 274.383 281.411 272.677 278.168C271.439 275.736 270.607 272.728 270.181 269.144C269.754 265.517 269.541 260.077 269.541 252.824L269.605 242.072H285.349V262.168C285.349 263.448 285.413 264.6 285.541 265.624C285.669 266.605 285.989 267.693 286.501 268.888C287.055 270.083 287.802 271.085 288.741 271.896C289.679 272.664 291.002 273.325 292.709 273.88C294.415 274.392 296.421 274.648 298.725 274.648C301.071 274.648 303.077 274.392 304.741 273.88C306.447 273.325 307.727 272.664 308.581 271.896C309.477 271.128 310.181 270.147 310.693 268.952C311.205 267.715 311.503 266.605 311.589 265.624C311.717 264.643 311.781 263.491 311.781 262.168V242.072H327.525V252.824C327.567 260.077 327.375 265.517 326.949 269.144C326.522 272.728 325.69 275.736 324.453 278.168C323.557 279.875 322.277 281.325 320.613 282.52C318.991 283.672 317.029 284.568 314.725 285.208C312.421 285.848 309.989 286.317 307.429 286.616C304.869 286.872 301.967 287 298.725 287ZM379.745 257.496C380.769 259.8 381.387 262.765 381.601 266.392C381.857 269.976 381.985 275.864 381.985 284.056V287H367.073V274.776C367.073 274.648 367.073 274.456 367.073 274.2C367.073 273.389 367.073 272.771 367.073 272.344C367.073 271.875 367.03 271.213 366.944 270.36C366.902 269.507 366.817 268.845 366.689 268.376C366.603 267.864 366.433 267.245 366.177 266.52C365.963 265.752 365.686 265.155 365.345 264.728C365.046 264.259 364.641 263.768 364.129 263.256C363.659 262.744 363.105 262.339 362.465 262.04C361.825 261.741 361.057 261.507 360.161 261.336C359.265 261.123 358.283 261.016 357.217 261.016C354.486 261.016 352.289 261.421 350.625 262.232C349.003 263 347.489 264.109 346.081 265.56V287H331.041V249.944H346.081V255.064C347.446 254.083 348.491 253.379 349.217 252.952C349.985 252.483 351.03 251.949 352.353 251.352C353.718 250.712 355.19 250.264 356.769 250.008C358.347 249.752 360.161 249.624 362.208 249.624C364.214 249.624 365.985 249.709 367.521 249.88C369.057 250.051 370.657 250.392 372.321 250.904C374.027 251.416 375.499 252.227 376.737 253.336C378.017 254.445 379.019 255.832 379.745 257.496ZM407.371 263.896C411.766 263.896 415.371 264.003 418.187 264.216C421.046 264.429 423.52 264.771 425.611 265.24C427.744 265.709 429.344 266.413 430.411 267.352C431.52 268.291 432.31 269.421 432.779 270.744C433.291 272.024 433.547 273.667 433.547 275.672C433.547 277.421 433.419 278.893 433.163 280.088C432.95 281.24 432.48 282.328 431.755 283.352C431.03 284.333 430.07 285.123 428.875 285.72C427.723 286.317 426.144 286.829 424.139 287.256C422.176 287.683 419.851 287.981 417.163 288.152C414.518 288.323 411.318 288.408 407.563 288.408C394.55 288.408 386.891 287.341 384.587 285.208L388.747 274.584C389.771 275.267 392.288 275.843 396.299 276.312C400.31 276.739 404.256 276.952 408.139 276.952C408.822 276.952 409.76 276.952 410.955 276.952C414.496 276.952 416.822 276.909 417.931 276.824C419.04 276.696 419.595 276.376 419.595 275.864C419.595 274.456 415.456 273.752 407.179 273.752C403.808 273.752 400.928 273.667 398.539 273.496C396.192 273.283 393.995 272.92 391.947 272.408C389.942 271.896 388.342 271.213 387.147 270.36C385.952 269.464 385.014 268.333 384.331 266.968C383.691 265.56 383.371 263.896 383.371 261.976C383.371 260.568 383.478 259.309 383.691 258.2C383.947 257.091 384.352 256.131 384.907 255.32C385.462 254.467 386.08 253.741 386.763 253.144C387.446 252.504 388.342 251.971 389.451 251.544C390.603 251.117 391.755 250.776 392.907 250.52C394.102 250.264 395.574 250.072 397.323 249.944C399.072 249.816 400.779 249.731 402.443 249.688C404.107 249.603 406.112 249.56 408.459 249.56C413.664 249.56 417.888 249.731 421.131 250.072C424.416 250.413 426.763 250.819 428.171 251.288C429.622 251.757 431.158 252.419 432.779 253.272L428.171 263.448C426.166 262.723 423.158 262.104 419.147 261.592C415.179 261.037 411.296 260.76 407.499 260.76C407.158 260.76 406.667 260.76 406.027 260.76C402.486 260.76 400.203 260.824 399.179 260.952C398.155 261.08 397.643 261.464 397.643 262.104C397.686 263.299 400.928 263.896 407.371 263.896ZM462.174 249.048C466.568 249.048 470.387 249.432 473.63 250.2C476.872 250.968 479.688 252.227 482.078 253.976C484.467 255.725 486.216 258.115 487.326 261.144C488.435 264.131 488.819 267.736 488.478 271.96H450.462C450.675 273.112 451.72 274.051 453.598 274.776C455.475 275.501 458.291 275.864 462.046 275.864C465.331 275.864 468.595 275.651 471.838 275.224C475.123 274.797 477.598 274.371 479.262 273.944L481.694 273.304L488.094 283.672C487.966 283.757 487.731 283.885 487.39 284.056C487.048 284.184 486.174 284.44 484.766 284.824C483.4 285.208 481.843 285.549 480.094 285.848C478.344 286.147 475.912 286.424 472.798 286.68C469.683 286.893 466.27 287 462.558 287C458.206 287 454.408 286.701 451.166 286.104C447.966 285.507 445.342 284.675 443.294 283.608C441.288 282.541 439.667 281.197 438.43 279.576C437.192 277.955 436.339 276.227 435.87 274.392C435.4 272.557 435.166 270.424 435.166 267.992C435.166 262.019 437.427 257.368 441.95 254.04C446.515 250.712 453.256 249.048 462.174 249.048ZM462.302 260.504C459.955 260.504 457.95 260.675 456.286 261.016C454.622 261.357 453.406 261.805 452.638 262.36C451.87 262.872 451.315 263.384 450.974 263.896C450.632 264.408 450.462 264.92 450.462 265.432H473.374C473.374 264.024 472.52 262.851 470.814 261.912C469.15 260.973 466.312 260.504 462.302 260.504ZM522.009 249.944C528.068 249.944 532.953 251.16 536.665 253.592C536.964 253.763 537.134 253.869 537.177 253.912L531.609 265.304C531.225 265.091 530.67 264.835 529.945 264.536C529.22 264.195 527.854 263.747 525.849 263.192C523.844 262.637 521.945 262.296 520.153 262.168C518.574 262.083 517.081 262.168 515.673 262.424C514.265 262.68 513.156 262.957 512.345 263.256C511.534 263.512 510.617 264.003 509.593 264.728C508.612 265.411 507.993 265.88 507.737 266.136C507.524 266.349 507.033 266.819 506.265 267.544V287H491.353V249.88H492.441H506.265V255.064C508.996 251.651 514.244 249.944 522.009 249.944ZM58.4155 291.072H89.9675C90.8208 291.072 91.6315 291.093 92.3995 291.136C93.1675 291.179 94.2342 291.328 95.5995 291.584C97.0075 291.797 98.2662 292.139 99.3755 292.608C100.528 293.035 101.744 293.675 103.024 294.528C104.304 295.381 105.37 296.405 106.224 297.6C107.12 298.752 107.845 300.267 108.4 302.144C108.997 303.979 109.296 306.048 109.296 308.352C109.296 310.613 109.018 312.683 108.464 314.56C107.952 316.437 107.269 318.016 106.416 319.296C105.562 320.533 104.538 321.643 103.344 322.624C102.149 323.563 100.976 324.309 99.8235 324.864C98.6715 325.376 97.4555 325.803 96.1755 326.144C94.9382 326.443 93.8715 326.656 92.9755 326.784C92.0795 326.869 91.2475 326.912 90.4795 326.912H73.3275V336H58.4155V291.072ZM89.5195 313.664C93.4448 313.664 95.4075 312.043 95.4075 308.8C95.4075 308.075 95.3008 307.456 95.0875 306.944C94.9168 306.432 94.6395 306.027 94.2555 305.728C93.8715 305.387 93.4875 305.109 93.1035 304.896C92.7195 304.683 92.2502 304.555 91.6955 304.512C91.1835 304.427 90.7568 304.363 90.4155 304.32C90.0742 304.277 89.6902 304.256 89.2635 304.256H73.3275V313.664H89.5195ZM112.983 332.032V291.584V291.2H127.895V336H112.983V332.032ZM184.339 336.064H169.619C169.619 334.997 169.598 333.867 169.555 332.672C165.032 335.36 159.806 336.704 153.875 336.704C152.126 336.704 150.632 336.683 149.395 336.64C148.2 336.597 146.707 336.491 144.915 336.32C143.123 336.149 141.608 335.915 140.371 335.616C139.134 335.317 137.832 334.869 136.467 334.272C135.102 333.675 133.992 332.971 133.139 332.16C132.286 331.307 131.582 330.24 131.027 328.96C130.472 327.637 130.195 326.187 130.195 324.608C130.195 322.603 130.835 320.875 132.115 319.424C133.438 317.931 135.23 316.757 137.491 315.904C139.752 315.051 142.227 314.432 144.915 314.048C147.603 313.621 150.504 313.408 153.619 313.408C158.91 313.408 163.688 314.197 167.955 315.776C167.102 313.216 165.651 311.552 163.603 310.784C161.598 309.973 158.398 309.568 154.003 309.568C150.419 309.568 146.963 309.824 143.635 310.336C140.35 310.805 138.238 311.189 137.299 311.488C136.403 311.744 135.635 311.979 134.995 312.192L131.667 302.08C138.92 299.392 146.664 298.048 154.899 298.048C156.691 298.048 158.44 298.112 160.147 298.24C161.854 298.325 163.88 298.581 166.227 299.008C168.574 299.392 170.664 299.925 172.499 300.608C174.376 301.291 176.147 302.293 177.811 303.616C179.475 304.896 180.691 306.389 181.459 308.096C182.696 310.912 183.486 314.475 183.827 318.784C184.168 323.051 184.339 328.811 184.339 336.064ZM155.539 327.296C158.654 327.296 161.512 326.976 164.115 326.336C166.718 325.653 168.211 325.035 168.595 324.48C168.595 324.096 168.595 323.861 168.595 323.776C167.4 322.667 163.304 322.112 156.307 322.112C152.766 322.112 150.227 322.325 148.691 322.752C147.155 323.136 146.387 323.755 146.387 324.608C146.387 326.4 149.438 327.296 155.539 327.296ZM235.62 306.496C236.644 308.8 237.262 311.765 237.476 315.392C237.732 318.976 237.86 324.864 237.86 333.056V336H222.948V323.776C222.948 323.648 222.948 323.456 222.948 323.2C222.948 322.389 222.948 321.771 222.948 321.344C222.948 320.875 222.905 320.213 222.819 319.36C222.777 318.507 222.692 317.845 222.564 317.376C222.478 316.864 222.308 316.245 222.052 315.52C221.838 314.752 221.561 314.155 221.22 313.728C220.921 313.259 220.516 312.768 220.004 312.256C219.534 311.744 218.98 311.339 218.34 311.04C217.7 310.741 216.932 310.507 216.036 310.336C215.14 310.123 214.158 310.016 213.092 310.016C210.361 310.016 208.164 310.421 206.5 311.232C204.878 312 203.364 313.109 201.956 314.56V336H186.916V298.944H201.956V304.064C203.321 303.083 204.366 302.379 205.092 301.952C205.86 301.483 206.905 300.949 208.228 300.352C209.593 299.712 211.065 299.264 212.644 299.008C214.222 298.752 216.036 298.624 218.083 298.624C220.089 298.624 221.86 298.709 223.396 298.88C224.932 299.051 226.532 299.392 228.196 299.904C229.902 300.416 231.374 301.227 232.612 302.336C233.892 303.445 234.894 304.832 235.62 306.496ZM267.361 298.048C271.756 298.048 275.574 298.432 278.817 299.2C282.06 299.968 284.876 301.227 287.265 302.976C289.654 304.725 291.404 307.115 292.513 310.144C293.622 313.131 294.006 316.736 293.665 320.96H255.649C255.862 322.112 256.908 323.051 258.785 323.776C260.662 324.501 263.478 324.864 267.233 324.864C270.518 324.864 273.782 324.651 277.025 324.224C280.31 323.797 282.785 323.371 284.449 322.944L286.881 322.304L293.281 332.672C293.153 332.757 292.918 332.885 292.577 333.056C292.236 333.184 291.361 333.44 289.953 333.824C288.588 334.208 287.03 334.549 285.281 334.848C283.532 335.147 281.1 335.424 277.985 335.68C274.87 335.893 271.457 336 267.745 336C263.393 336 259.596 335.701 256.353 335.104C253.153 334.507 250.529 333.675 248.481 332.608C246.476 331.541 244.854 330.197 243.617 328.576C242.38 326.955 241.526 325.227 241.057 323.392C240.588 321.557 240.353 319.424 240.353 316.992C240.353 311.019 242.614 306.368 247.137 303.04C251.702 299.712 258.444 298.048 267.361 298.048ZM267.489 309.504C265.142 309.504 263.137 309.675 261.473 310.016C259.809 310.357 258.593 310.805 257.825 311.36C257.057 311.872 256.502 312.384 256.161 312.896C255.82 313.408 255.649 313.92 255.649 314.432H278.561C278.561 313.024 277.708 311.851 276.001 310.912C274.337 309.973 271.5 309.504 267.489 309.504ZM321.808 323.84C322.874 323.84 324.026 323.776 325.264 323.648C326.501 323.477 327.61 323.285 328.592 323.072C329.573 322.859 330.469 322.645 331.28 322.432C332.133 322.176 332.794 321.984 333.264 321.856C333.776 321.685 334.01 321.6 333.968 321.6L339.28 333.12C338.64 333.376 337.701 333.675 336.464 334.016C335.226 334.315 332.56 334.763 328.464 335.36C324.41 335.915 320.186 336.192 315.792 336.192C313.701 336.192 311.973 336.128 310.608 336C309.285 335.829 308.069 335.488 306.96 334.976C305.85 334.421 304.997 333.76 304.4 332.992C303.802 332.181 303.29 331.029 302.864 329.536C302.437 328.043 302.16 326.357 302.032 324.48C301.904 322.603 301.84 320.213 301.84 317.312V309.888H294.416V298.752H301.84V291.008H316.688V298.752H334.8V309.888H316.688V317.312C316.688 317.397 316.688 317.525 316.688 317.696C316.688 317.824 316.709 318.123 316.752 318.592C316.794 319.061 316.858 319.509 316.944 319.936C317.072 320.32 317.242 320.768 317.456 321.28C317.712 321.792 318.01 322.24 318.352 322.624C318.736 322.965 319.226 323.264 319.824 323.52C320.421 323.733 321.082 323.84 321.808 323.84ZM402.35 336C395.651 336 390.062 335.339 385.582 334.016C381.102 332.693 378.008 330.411 376.302 327.168C375.064 324.736 374.232 321.728 373.806 318.144C373.379 314.517 373.166 309.077 373.166 301.824L373.23 291.072H388.974V311.168C388.974 312.448 389.038 313.6 389.166 314.624C389.294 315.605 389.614 316.693 390.126 317.888C390.68 319.083 391.427 320.085 392.366 320.896C393.304 321.664 394.627 322.325 396.334 322.88C398.04 323.392 400.046 323.648 402.35 323.648C404.696 323.648 406.702 323.392 408.366 322.88C410.072 322.325 411.352 321.664 412.206 320.896C413.102 320.128 413.806 319.147 414.318 317.952C414.83 316.715 415.128 315.605 415.214 314.624C415.342 313.643 415.406 312.491 415.406 311.168V291.072H431.15V301.824C431.192 309.077 431 314.517 430.574 318.144C430.147 321.728 429.315 324.736 428.078 327.168C427.182 328.875 425.902 330.325 424.238 331.52C422.616 332.672 420.654 333.568 418.35 334.208C416.046 334.848 413.614 335.317 411.054 335.616C408.494 335.872 405.592 336 402.35 336ZM483.37 306.496C484.394 308.8 485.012 311.765 485.226 315.392C485.482 318.976 485.61 324.864 485.61 333.056V336H470.698V323.776C470.698 323.648 470.698 323.456 470.698 323.2C470.698 322.389 470.698 321.771 470.698 321.344C470.698 320.875 470.655 320.213 470.569 319.36C470.527 318.507 470.442 317.845 470.314 317.376C470.228 316.864 470.058 316.245 469.802 315.52C469.588 314.752 469.311 314.155 468.97 313.728C468.671 313.259 468.266 312.768 467.754 312.256C467.284 311.744 466.73 311.339 466.09 311.04C465.45 310.741 464.682 310.507 463.786 310.336C462.89 310.123 461.908 310.016 460.842 310.016C458.111 310.016 455.914 310.421 454.25 311.232C452.628 312 451.114 313.109 449.706 314.56V336H434.666V298.944H449.706V304.064C451.071 303.083 452.116 302.379 452.842 301.952C453.61 301.483 454.655 300.949 455.978 300.352C457.343 299.712 458.815 299.264 460.394 299.008C461.972 298.752 463.786 298.624 465.833 298.624C467.839 298.624 469.61 298.709 471.146 298.88C472.682 299.051 474.282 299.392 475.946 299.904C477.652 300.416 479.124 301.227 480.362 302.336C481.642 303.445 482.644 304.832 483.37 306.496ZM510.996 312.896C515.391 312.896 518.996 313.003 521.812 313.216C524.671 313.429 527.145 313.771 529.236 314.24C531.369 314.709 532.969 315.413 534.036 316.352C535.145 317.291 535.935 318.421 536.404 319.744C536.916 321.024 537.172 322.667 537.172 324.672C537.172 326.421 537.044 327.893 536.788 329.088C536.575 330.24 536.105 331.328 535.38 332.352C534.655 333.333 533.695 334.123 532.5 334.72C531.348 335.317 529.769 335.829 527.764 336.256C525.801 336.683 523.476 336.981 520.788 337.152C518.143 337.323 514.943 337.408 511.188 337.408C498.175 337.408 490.516 336.341 488.212 334.208L492.372 323.584C493.396 324.267 495.913 324.843 499.924 325.312C503.935 325.739 507.881 325.952 511.764 325.952C512.447 325.952 513.385 325.952 514.58 325.952C518.121 325.952 520.447 325.909 521.556 325.824C522.665 325.696 523.22 325.376 523.22 324.864C523.22 323.456 519.081 322.752 510.804 322.752C507.433 322.752 504.553 322.667 502.164 322.496C499.817 322.283 497.62 321.92 495.572 321.408C493.567 320.896 491.967 320.213 490.772 319.36C489.577 318.464 488.639 317.333 487.956 315.968C487.316 314.56 486.996 312.896 486.996 310.976C486.996 309.568 487.103 308.309 487.316 307.2C487.572 306.091 487.977 305.131 488.532 304.32C489.087 303.467 489.705 302.741 490.388 302.144C491.071 301.504 491.967 300.971 493.076 300.544C494.228 300.117 495.38 299.776 496.532 299.52C497.727 299.264 499.199 299.072 500.948 298.944C502.697 298.816 504.404 298.731 506.068 298.688C507.732 298.603 509.737 298.56 512.084 298.56C517.289 298.56 521.513 298.731 524.756 299.072C528.041 299.413 530.388 299.819 531.796 300.288C533.247 300.757 534.783 301.419 536.404 302.272L531.796 312.448C529.791 311.723 526.783 311.104 522.772 310.592C518.804 310.037 514.921 309.76 511.124 309.76C510.783 309.76 510.292 309.76 509.652 309.76C506.111 309.76 503.828 309.824 502.804 309.952C501.78 310.08 501.268 310.464 501.268 311.104C501.311 312.299 504.553 312.896 510.996 312.896ZM298.725 385C292.026 385 286.437 384.339 281.957 383.016C277.477 381.693 274.383 379.411 272.677 376.168C271.439 373.736 270.607 370.728 270.181 367.144C269.754 363.517 269.541 358.077 269.541 350.824L269.605 340.072H285.349V360.168C285.349 361.448 285.413 362.6 285.541 363.624C285.669 364.605 285.989 365.693 286.501 366.888C287.055 368.083 287.802 369.085 288.741 369.896C289.679 370.664 291.002 371.325 292.709 371.88C294.415 372.392 296.421 372.648 298.725 372.648C301.071 372.648 303.077 372.392 304.741 371.88C306.447 371.325 307.727 370.664 308.581 369.896C309.477 369.128 310.181 368.147 310.693 366.952C311.205 365.715 311.503 364.605 311.589 363.624C311.717 362.643 311.781 361.491 311.781 360.168V340.072H327.525V350.824C327.567 358.077 327.375 363.517 326.949 367.144C326.522 370.728 325.69 373.736 324.453 376.168C323.557 377.875 322.277 379.325 320.613 380.52C318.991 381.672 317.029 382.568 314.725 383.208C312.421 383.848 309.989 384.317 307.429 384.616C304.869 384.872 301.967 385 298.725 385ZM379.745 355.496C380.769 357.8 381.387 360.765 381.601 364.392C381.857 367.976 381.985 373.864 381.985 382.056V385H367.073V372.776C367.073 372.648 367.073 372.456 367.073 372.2C367.073 371.389 367.073 370.771 367.073 370.344C367.073 369.875 367.03 369.213 366.944 368.36C366.902 367.507 366.817 366.845 366.689 366.376C366.603 365.864 366.433 365.245 366.177 364.52C365.963 363.752 365.686 363.155 365.345 362.728C365.046 362.259 364.641 361.768 364.129 361.256C363.659 360.744 363.105 360.339 362.465 360.04C361.825 359.741 361.057 359.507 360.161 359.336C359.265 359.123 358.283 359.016 357.217 359.016C354.486 359.016 352.289 359.421 350.625 360.232C349.003 361 347.489 362.109 346.081 363.56V385H331.041V347.944H346.081V353.064C347.446 352.083 348.491 351.379 349.217 350.952C349.985 350.483 351.03 349.949 352.353 349.352C353.718 348.712 355.19 348.264 356.769 348.008C358.347 347.752 360.161 347.624 362.208 347.624C364.214 347.624 365.985 347.709 367.521 347.88C369.057 348.051 370.657 348.392 372.321 348.904C374.027 349.416 375.499 350.227 376.737 351.336C378.017 352.445 379.019 353.832 379.745 355.496ZM407.371 361.896C411.766 361.896 415.371 362.003 418.187 362.216C421.046 362.429 423.52 362.771 425.611 363.24C427.744 363.709 429.344 364.413 430.411 365.352C431.52 366.291 432.31 367.421 432.779 368.744C433.291 370.024 433.547 371.667 433.547 373.672C433.547 375.421 433.419 376.893 433.163 378.088C432.95 379.24 432.48 380.328 431.755 381.352C431.03 382.333 430.07 383.123 428.875 383.72C427.723 384.317 426.144 384.829 424.139 385.256C422.176 385.683 419.851 385.981 417.163 386.152C414.518 386.323 411.318 386.408 407.563 386.408C394.55 386.408 386.891 385.341 384.587 383.208L388.747 372.584C389.771 373.267 392.288 373.843 396.299 374.312C400.31 374.739 404.256 374.952 408.139 374.952C408.822 374.952 409.76 374.952 410.955 374.952C414.496 374.952 416.822 374.909 417.931 374.824C419.04 374.696 419.595 374.376 419.595 373.864C419.595 372.456 415.456 371.752 407.179 371.752C403.808 371.752 400.928 371.667 398.539 371.496C396.192 371.283 393.995 370.92 391.947 370.408C389.942 369.896 388.342 369.213 387.147 368.36C385.952 367.464 385.014 366.333 384.331 364.968C383.691 363.56 383.371 361.896 383.371 359.976C383.371 358.568 383.478 357.309 383.691 356.2C383.947 355.091 384.352 354.131 384.907 353.32C385.462 352.467 386.08 351.741 386.763 351.144C387.446 350.504 388.342 349.971 389.451 349.544C390.603 349.117 391.755 348.776 392.907 348.52C394.102 348.264 395.574 348.072 397.323 347.944C399.072 347.816 400.779 347.731 402.443 347.688C404.107 347.603 406.112 347.56 408.459 347.56C413.664 347.56 417.888 347.731 421.131 348.072C424.416 348.413 426.763 348.819 428.171 349.288C429.622 349.757 431.158 350.419 432.779 351.272L428.171 361.448C426.166 360.723 423.158 360.104 419.147 359.592C415.179 359.037 411.296 358.76 407.499 358.76C407.158 358.76 406.667 358.76 406.027 358.76C402.486 358.76 400.203 358.824 399.179 358.952C398.155 359.08 397.643 359.464 397.643 360.104C397.686 361.299 400.928 361.896 407.371 361.896ZM462.174 347.048C466.568 347.048 470.387 347.432 473.63 348.2C476.872 348.968 479.688 350.227 482.078 351.976C484.467 353.725 486.216 356.115 487.326 359.144C488.435 362.131 488.819 365.736 488.478 369.96H450.462C450.675 371.112 451.72 372.051 453.598 372.776C455.475 373.501 458.291 373.864 462.046 373.864C465.331 373.864 468.595 373.651 471.838 373.224C475.123 372.797 477.598 372.371 479.262 371.944L481.694 371.304L488.094 381.672C487.966 381.757 487.731 381.885 487.39 382.056C487.048 382.184 486.174 382.44 484.766 382.824C483.4 383.208 481.843 383.549 480.094 383.848C478.344 384.147 475.912 384.424 472.798 384.68C469.683 384.893 466.27 385 462.558 385C458.206 385 454.408 384.701 451.166 384.104C447.966 383.507 445.342 382.675 443.294 381.608C441.288 380.541 439.667 379.197 438.43 377.576C437.192 375.955 436.339 374.227 435.87 372.392C435.4 370.557 435.166 368.424 435.166 365.992C435.166 360.019 437.427 355.368 441.95 352.04C446.515 348.712 453.256 347.048 462.174 347.048ZM462.302 358.504C459.955 358.504 457.95 358.675 456.286 359.016C454.622 359.357 453.406 359.805 452.638 360.36C451.87 360.872 451.315 361.384 450.974 361.896C450.632 362.408 450.462 362.92 450.462 363.432H473.374C473.374 362.024 472.52 360.851 470.814 359.912C469.15 358.973 466.312 358.504 462.302 358.504ZM522.009 347.944C528.068 347.944 532.953 349.16 536.665 351.592C536.964 351.763 537.134 351.869 537.177 351.912L531.609 363.304C531.225 363.091 530.67 362.835 529.945 362.536C529.22 362.195 527.854 361.747 525.849 361.192C523.844 360.637 521.945 360.296 520.153 360.168C518.574 360.083 517.081 360.168 515.673 360.424C514.265 360.68 513.156 360.957 512.345 361.256C511.534 361.512 510.617 362.003 509.593 362.728C508.612 363.411 507.993 363.88 507.737 364.136C507.524 364.349 507.033 364.819 506.265 365.544V385H491.353V347.88H492.441H506.265V353.064C508.996 349.651 514.244 347.944 522.009 347.944ZM164.478 389.072H196.03C196.883 389.072 197.694 389.093 198.462 389.136C199.23 389.179 200.297 389.328 201.662 389.584C203.07 389.797 204.329 390.139 205.438 390.608C206.59 391.035 207.806 391.675 209.086 392.528C210.366 393.381 211.433 394.405 212.286 395.6C213.182 396.752 213.907 398.267 214.462 400.144C215.059 401.979 215.358 404.048 215.358 406.352C215.358 408.613 215.081 410.683 214.526 412.56C214.014 414.437 213.331 416.016 212.478 417.296C211.625 418.533 210.601 419.643 209.406 420.624C208.211 421.563 207.038 422.309 205.886 422.864C204.734 423.376 203.518 423.803 202.238 424.144C201.001 424.443 199.934 424.656 199.038 424.784C198.142 424.869 197.31 424.912 196.542 424.912H179.39V434H164.478V389.072ZM195.582 411.664C199.507 411.664 201.47 410.043 201.47 406.8C201.47 406.075 201.363 405.456 201.15 404.944C200.979 404.432 200.702 404.027 200.318 403.728C199.934 403.387 199.55 403.109 199.166 402.896C198.782 402.683 198.313 402.555 197.758 402.512C197.246 402.427 196.819 402.363 196.478 402.32C196.137 402.277 195.753 402.256 195.326 402.256H179.39V411.664H195.582ZM219.045 430.032V389.584V389.2H233.957V434H219.045V430.032ZM290.402 434.064H275.682C275.682 432.997 275.66 431.867 275.618 430.672C271.095 433.36 265.868 434.704 259.938 434.704C258.188 434.704 256.695 434.683 255.458 434.64C254.263 434.597 252.77 434.491 250.978 434.32C249.186 434.149 247.671 433.915 246.434 433.616C245.196 433.317 243.895 432.869 242.53 432.272C241.164 431.675 240.055 430.971 239.202 430.16C238.348 429.307 237.644 428.24 237.09 426.96C236.535 425.637 236.258 424.187 236.258 422.608C236.258 420.603 236.898 418.875 238.178 417.424C239.5 415.931 241.292 414.757 243.554 413.904C245.815 413.051 248.29 412.432 250.978 412.048C253.666 411.621 256.567 411.408 259.682 411.408C264.972 411.408 269.751 412.197 274.018 413.776C273.164 411.216 271.714 409.552 269.666 408.784C267.66 407.973 264.46 407.568 260.066 407.568C256.482 407.568 253.026 407.824 249.698 408.336C246.412 408.805 244.3 409.189 243.362 409.488C242.466 409.744 241.698 409.979 241.058 410.192L237.73 400.08C244.983 397.392 252.727 396.048 260.962 396.048C262.754 396.048 264.503 396.112 266.21 396.24C267.916 396.325 269.943 396.581 272.29 397.008C274.636 397.392 276.727 397.925 278.562 398.608C280.439 399.291 282.21 400.293 283.874 401.616C285.538 402.896 286.754 404.389 287.522 406.096C288.759 408.912 289.548 412.475 289.89 416.784C290.231 421.051 290.402 426.811 290.402 434.064ZM261.602 425.296C264.716 425.296 267.575 424.976 270.178 424.336C272.78 423.653 274.274 423.035 274.658 422.48C274.658 422.096 274.658 421.861 274.658 421.776C273.463 420.667 269.367 420.112 262.37 420.112C258.828 420.112 256.29 420.325 254.753 420.752C253.218 421.136 252.45 421.755 252.45 422.608C252.45 424.4 255.5 425.296 261.602 425.296ZM341.682 404.496C342.706 406.8 343.325 409.765 343.538 413.392C343.794 416.976 343.922 422.864 343.922 431.056V434H329.01V421.776C329.01 421.648 329.01 421.456 329.01 421.2C329.01 420.389 329.01 419.771 329.01 419.344C329.01 418.875 328.967 418.213 328.882 417.36C328.839 416.507 328.754 415.845 328.626 415.376C328.541 414.864 328.37 414.245 328.114 413.52C327.901 412.752 327.623 412.155 327.282 411.728C326.983 411.259 326.578 410.768 326.066 410.256C325.597 409.744 325.042 409.339 324.402 409.04C323.762 408.741 322.994 408.507 322.098 408.336C321.202 408.123 320.221 408.016 319.154 408.016C316.423 408.016 314.226 408.421 312.562 409.232C310.941 410 309.426 411.109 308.018 412.56V434H292.978V396.944H308.018V402.064C309.383 401.083 310.429 400.379 311.154 399.952C311.922 399.483 312.967 398.949 314.29 398.352C315.655 397.712 317.127 397.264 318.706 397.008C320.285 396.752 322.098 396.624 324.146 396.624C326.151 396.624 327.922 396.709 329.458 396.88C330.994 397.051 332.594 397.392 334.258 397.904C335.965 398.416 337.437 399.227 338.674 400.336C339.954 401.445 340.957 402.832 341.682 404.496ZM373.424 396.048C377.818 396.048 381.637 396.432 384.88 397.2C388.122 397.968 390.938 399.227 393.328 400.976C395.717 402.725 397.466 405.115 398.576 408.144C399.685 411.131 400.069 414.736 399.728 418.96H361.712C361.925 420.112 362.97 421.051 364.848 421.776C366.725 422.501 369.541 422.864 373.296 422.864C376.581 422.864 379.845 422.651 383.088 422.224C386.373 421.797 388.848 421.371 390.512 420.944L392.944 420.304L399.344 430.672C399.216 430.757 398.981 430.885 398.64 431.056C398.298 431.184 397.424 431.44 396.016 431.824C394.65 432.208 393.093 432.549 391.344 432.848C389.594 433.147 387.162 433.424 384.048 433.68C380.933 433.893 377.52 434 373.808 434C369.456 434 365.658 433.701 362.416 433.104C359.216 432.507 356.592 431.675 354.544 430.608C352.538 429.541 350.917 428.197 349.68 426.576C348.442 424.955 347.589 423.227 347.12 421.392C346.65 419.557 346.416 417.424 346.416 414.992C346.416 409.019 348.677 404.368 353.2 401.04C357.765 397.712 364.506 396.048 373.424 396.048ZM373.552 407.504C371.205 407.504 369.2 407.675 367.536 408.016C365.872 408.357 364.656 408.805 363.888 409.36C363.12 409.872 362.565 410.384 362.224 410.896C361.882 411.408 361.712 411.92 361.712 412.432H384.624C384.624 411.024 383.77 409.851 382.064 408.912C380.4 407.973 377.562 407.504 373.552 407.504ZM427.87 421.84C428.937 421.84 430.089 421.776 431.326 421.648C432.563 421.477 433.673 421.285 434.654 421.072C435.635 420.859 436.531 420.645 437.342 420.432C438.195 420.176 438.857 419.984 439.326 419.856C439.838 419.685 440.073 419.6 440.03 419.6L445.342 431.12C444.702 431.376 443.763 431.675 442.526 432.016C441.289 432.315 438.622 432.763 434.526 433.36C430.473 433.915 426.249 434.192 421.854 434.192C419.763 434.192 418.035 434.128 416.67 434C415.347 433.829 414.131 433.488 413.022 432.976C411.913 432.421 411.059 431.76 410.462 430.992C409.865 430.181 409.353 429.029 408.926 427.536C408.499 426.043 408.222 424.357 408.094 422.48C407.966 420.603 407.902 418.213 407.902 415.312V407.888H400.478V396.752H407.902V389.008H422.75V396.752H440.862V407.888H422.75V415.312C422.75 415.397 422.75 415.525 422.75 415.696C422.75 415.824 422.771 416.123 422.814 416.592C422.857 417.061 422.921 417.509 423.006 417.936C423.134 418.32 423.305 418.768 423.518 419.28C423.774 419.792 424.073 420.24 424.414 420.624C424.798 420.965 425.289 421.264 425.886 421.52C426.483 421.733 427.145 421.84 427.87 421.84ZM508.412 434C501.713 434 496.124 433.339 491.644 432.016C487.164 430.693 484.071 428.411 482.364 425.168C481.127 422.736 480.295 419.728 479.868 416.144C479.441 412.517 479.228 407.077 479.228 399.824L479.292 389.072H495.036V409.168C495.036 410.448 495.1 411.6 495.228 412.624C495.356 413.605 495.676 414.693 496.188 415.888C496.743 417.083 497.489 418.085 498.428 418.896C499.367 419.664 500.689 420.325 502.396 420.88C504.103 421.392 506.108 421.648 508.412 421.648C510.759 421.648 512.764 421.392 514.428 420.88C516.135 420.325 517.415 419.664 518.268 418.896C519.164 418.128 519.868 417.147 520.38 415.952C520.892 414.715 521.191 413.605 521.276 412.624C521.404 411.643 521.468 410.491 521.468 409.168V389.072H537.212V399.824C537.255 407.077 537.063 412.517 536.636 416.144C536.209 419.728 535.377 422.736 534.14 425.168C533.244 426.875 531.964 428.325 530.3 429.52C528.679 430.672 526.716 431.568 524.412 432.208C522.108 432.848 519.676 433.317 517.116 433.616C514.556 433.872 511.655 434 508.412 434Z" fill="black"/>
</svg>
