<svg fill="none" height="179" viewBox="0 0 672 179" width="672" xmlns="http://www.w3.org/2000/svg"><path d="m222.478 10.2h14.34l-15.24 34.8h-13.5l-10.2-18.84-10.26 18.84h-13.5l-15.24-34.8h14.64l8.1 20.4 10.86-20.4h10.56l10.74 19.92zm16.385.06h13.98v34.74h-13.98zm0-9.480003h13.98v6.780003h-13.98zm46.196 9.480003c5.68 0 10.26 1.14 13.74 3.42.28.16.44.26.48.3l-5.22 10.68c-.36-.2-.88-.44-1.56-.72-.68-.32-1.96-.74-3.84-1.26s-3.66-.84-5.34-.96c-1.48-.08-2.88 0-4.2.24s-2.36.5-3.12.78c-.76.24-1.62.7-2.58 1.38-.92.64-1.5 1.08-1.74 1.32-.2.2-.66.64-1.38 1.32v18.24h-13.98v-34.8h1.02 12.96v4.86c2.56-3.2 7.48-4.8 14.76-4.8zm69.246 13.08c4.12 0 7.5.1 10.14.3 2.68.2 5 .52 6.96.96 2 .44 3.5 1.1 4.5 1.98 1.04.88 1.78 1.94 2.22 3.18.48 1.2.72 2.74.72 4.62 0 1.64-.12 3.02-.36 4.14-.2 1.08-.64 2.1-1.32 3.06-.68.92-1.58 1.66-2.7 2.22-1.08.56-2.56 1.04-4.44 1.44-1.84.4-4.02.68-6.54.84-2.48.16-5.48.24-9 .24-12.2 0-19.38-1-21.54-3l3.9-9.96c.96.64 3.32 1.18 7.08 1.62 3.76.4 7.46.6 11.1.6h2.64c3.32 0 5.5-.04 6.54-.12 1.04-.12 1.56-.42 1.56-.9 0-1.32-3.88-1.98-11.64-1.98-3.16 0-5.86-.08-8.1-.24-2.2-.2-4.26-.54-6.18-1.02-1.88-.48-3.38-1.12-4.5-1.92-1.12-.84-2-1.9-2.64-3.18-.6-1.32-.9-2.88-.9-4.68 0-1.32.1-2.5.3-3.54.24-1.04.62-1.94 1.14-2.7.52-.8 1.1-1.48 1.74-2.04.64-.6 1.48-1.1 2.52-1.5 1.08-.4 2.16-.72 3.24-.96 1.12-.24 2.5-.42 4.14-.54s3.24-.2 4.8-.24c1.56-.08 3.44-.12 5.64-.12 4.88 0 8.84.16 11.88.48 3.08.32 5.28.7 6.6 1.14 1.36.44 2.8 1.06 4.32 1.86l-4.32 9.54c-1.88-.68-4.7-1.26-8.46-1.74-3.72-.52-7.36-.78-10.92-.78-.32 0-.78 0-1.38 0-3.32 0-5.46.06-6.42.18s-1.44.48-1.44 1.08c.04 1.12 3.08 1.68 9.12 1.68zm27.468-13.08h13.98v34.74h-13.98zm0-9.480003h13.98v6.780003h-13.98zm63.702 16.560003c.96 2.16 1.54 4.94 1.74 8.34.24 3.36.36 8.88.36 16.56v2.76h-13.98v-11.46c0-.12 0-.3 0-.54 0-.76 0-1.34 0-1.74 0-.44-.04-1.06-.12-1.86-.04-.8-.12-1.42-.24-1.86-.08-.48-.24-1.06-.48-1.74-.2-.72-.46-1.28-.78-1.68-.28-.44-.66-.9-1.14-1.38-.44-.48-.96-.86-1.56-1.14s-1.32-.5-2.16-.66c-.84-.2-1.76-.3-2.76-.3-2.56 0-4.62.38-6.18 1.14-1.52.72-2.94 1.76-4.26 3.12v20.1h-14.1v-34.74h14.1v4.8c1.28-.92 2.26-1.58 2.94-1.98.72-.44 1.7-.94 2.94-1.5 1.28-.6 2.66-1.02 4.14-1.26s3.18-.36 5.1-.36c1.88 0 3.54.08 4.98.24s2.94.48 4.5.96c1.6.48 2.98 1.24 4.14 2.28 1.2 1.04 2.14 2.34 2.82 3.9zm43.078-14.34h13.92v42h-13.92v-3.72c-3.8 2.68-9.18 4.02-16.14 4.02-1.68 0-3.2-.06-4.56-.18-1.36-.08-2.84-.26-4.44-.54-1.6-.32-3.02-.74-4.26-1.26s-2.46-1.24-3.66-2.16-2.2-1.98-3-3.18c-.76-1.24-1.38-2.76-1.86-4.56-.48-1.84-.72-3.88-.72-6.12 0-2.8.6-5.3 1.8-7.5 1.24-2.24 2.9-4.02 4.98-5.34 2.08-1.36 4.42-2.38 7.02-3.06 2.64-.72 5.44-1.08 8.4-1.08 6.08 0 11.56 1.22 16.44 3.66zm0 27.42v-4.74c-1.28-3.44-6.02-5.16-14.22-5.16-.04 0-.12 0-.24 0-.52 0-.94 0-1.26 0-.28 0-.74.04-1.38.12-.6.04-1.12.12-1.56.24-.4.12-.9.3-1.5.54-.56.2-1.04.48-1.44.84-.36.36-.72.78-1.08 1.26s-.64 1.08-.84 1.8c-.16.72-.24 1.52-.24 2.4 0 4.76 3.46 7.14 10.38 7.14 3.88 0 6.78-.28 8.7-.84 1.96-.6 3.52-1.8 4.68-3.6zm95.116 14.64h-13.8c0-1-.02-2.06-.06-3.18-4.24 2.52-9.14 3.78-14.7 3.78-1.64 0-3.04-.02-4.2-.06-1.12-.04-2.52-.14-4.2-.3s-3.1-.38-4.26-.66-2.38-.7-3.66-1.26-2.32-1.22-3.12-1.98c-.8-.8-1.46-1.8-1.98-3-.52-1.24-.78-2.6-.78-4.08 0-1.88.6-3.5 1.8-4.86 1.24-1.4 2.92-2.5 5.04-3.3s4.44-1.38 6.96-1.74c2.52-.4 5.24-.6 8.16-.6 4.96 0 9.44.74 13.44 2.22-.8-2.4-2.16-3.96-4.08-4.68-1.88-.76-4.88-1.14-9-1.14-3.36 0-6.6.24-9.72.72-3.08.44-5.06.8-5.94 1.08-.84.24-1.56.46-2.16.66l-3.12-9.48c6.8-2.52 14.06-3.78 21.78-3.78 1.68 0 3.32.06 4.92.18 1.6.08 3.5.32 5.7.72 2.2.36 4.16.86 5.88 1.5 1.76.64 3.42 1.58 4.98 2.82 1.56 1.2 2.7 2.6 3.42 4.2 1.16 2.64 1.9 5.98 2.22 10.02.32 4 .48 9.4.48 16.2zm-27-8.22c2.92 0 5.6-.3 8.04-.9 2.44-.64 3.84-1.22 4.2-1.74 0-.36 0-.58 0-.66-1.12-1.04-4.96-1.56-11.52-1.56-3.32 0-5.7.2-7.14.6-1.44.36-2.16.94-2.16 1.74 0 1.68 2.86 2.52 8.58 2.52zm30.182 4.44v-37.92-.36h13.98v42h-13.98zm17.637 0v-37.92-.36h13.98v42h-13.98zm42.132-31.86c4.12 0 7.7.36 10.74 1.08s5.68 1.9 7.92 3.54 3.88 3.88 4.92 6.72c1.04 2.8 1.4 6.18 1.08 10.14h-35.64c.2 1.08 1.18 1.96 2.94 2.64s4.4 1.02 7.92 1.02c3.08 0 6.14-.2 9.18-.6 3.08-.4 5.4-.8 6.96-1.2l2.28-.6 6 9.72c-.12.08-.34.2-.66.36-.32.12-1.14.36-2.46.72-1.28.36-2.74.68-4.38.96s-3.92.54-6.84.78c-2.92.2-6.12.3-9.6.3-4.08 0-7.64-.28-10.68-.84-3-.56-5.46-1.34-7.38-2.34-1.88-1-3.4-2.26-4.56-3.78s-1.96-3.14-2.4-4.86-.66-3.72-.66-6c0-5.6 2.12-9.96 6.36-13.08 4.28-3.12 10.6-4.68 18.96-4.68zm.12 10.74c-2.2 0-4.08.16-5.64.48s-2.7.74-3.42 1.26c-.72.48-1.24.96-1.56 1.44s-.48.96-.48 1.44h21.48c0-1.32-.8-2.42-2.4-3.3-1.56-.88-4.22-1.32-7.98-1.32zm-599.8667 36.7h13.92v29.4c0 6.92-2.06 12-6.18 15.24-4.12 3.28-10.82 4.92-20.1 4.92-2.52 0-4.94-.08-7.26-.24-2.32-.12-4.32-.3-6-.54-1.68-.2-3.24-.44-4.68-.72-1.4-.24-2.56-.5-3.48-.78s-1.72-.54-2.4-.78c-.64-.2-1.10002-.36-1.38002-.48l-.42-.18 4.56002-10.8c.12.12.3.26.54.42.28.2.94.54 1.98 1.02s2.18.9 3.42 1.26c1.28.36 3 .68 5.16.96 2.2.28 4.54.42 7.02.42 1.76 0 3.36-.1 4.8-.3 1.48-.2 2.72-.48 3.72-.84s1.9-.78 2.7-1.26 1.42-.98 1.86-1.5c.48-.48.88-.98 1.2-1.5s.54-1 .66-1.44c.12-.48.2-.9.24-1.26.08-.36.12-.66.12-.9v-.3-1.44c-.68 1.68-2.62 3.12-5.82 4.32s-6.74 1.8-10.62 1.8c-2.44 0-4.7-.14-6.78-.42-2.08-.32-4.1-.86-6.06-1.62-1.92-.76-3.56-1.72-4.92-2.88-1.32-1.16-2.4-2.66-3.24002-4.5-.8-1.88-1.2-4.02-1.2-6.42 0-2.36.24-4.48.72-6.36.48-1.92 1.10002-3.52 1.86002-4.8.8-1.32 1.8-2.46 3-3.42 1.2-1 2.42-1.76 3.66-2.28 1.24-.56 2.66-1 4.26-1.32s3.08-.52 4.44-.6c1.36-.12 2.88-.18 4.56-.18 6.96 0 12.34 1.42 16.14 4.26zm0 18.24v-2.64c0-.92-.42-1.74-1.26-2.46-.8-.72-1.9-1.28-3.3-1.68-1.36-.4-2.88-.7-4.56-.9-1.64-.24-3.4-.36-5.28-.36-6.72 0-10.08 2.3-10.08 6.9 0 1.12.2 2.1.6 2.94s.96 1.5 1.68 1.98 1.42.88 2.1 1.2c.72.32 1.52.54 2.4.66.92.12 1.6.2 2.04.24h1.5 1.68c.52-.04 1.36-.1 2.52-.18 1.16-.12 2.2-.3 3.12-.54.92-.28 1.88-.62 2.88-1.02 1.04-.4 1.9-.96 2.58-1.68s1.14-1.54 1.38-2.46zm17.3798 12.18v-37.92-.36h13.98v42h-13.98zm42.1319-31.86c4.12 0 7.7.36 10.74 1.08s5.68 1.9 7.92 3.54 3.88 3.88 4.92 6.72c1.04 2.8 1.4 6.18 1.08 10.14h-35.6397c.2 1.08 1.18 1.96 2.94 2.64 1.7597.68 4.3997 1.02 7.9197 1.02 3.08 0 6.14-.2 9.18-.6 3.08-.4 5.4-.8 6.96-1.2l2.28-.6 6 9.72c-.12.08-.34.2-.66.36-.32.12-1.14.36-2.46.72-1.28.36-2.74.68-4.38.96s-3.92.54-6.84.78c-2.92.2-6.12.3-9.6.3-4.08 0-7.6397-.28-10.6797-.84-3-.56-5.46-1.34-7.38-2.34-1.88-1-3.4-2.26-4.56-3.78s-1.96-3.14-2.4-4.86-.66-3.72-.66-6c0-5.6 2.12-9.96 6.36-13.08 4.28-3.12 10.6-4.68 18.9597-4.68zm.12 10.74c-2.2 0-4.08.16-5.64.48-1.5597.32-2.6997.74-3.4197 1.26-.72.48-1.24.96-1.56 1.44s-.48.96-.48 1.44h21.4797c0-1.32-.8-2.42-2.4-3.3-1.56-.88-4.22-1.32-7.98-1.32zm27.416-9.9h13.98v34.74h-13.98zm0-9.48h13.98v6.78h-13.98zm41.228 9.24c3.76 0 7.14.26 10.14.78s5.46 1.22 7.38 2.1c1.96.84 3.58 1.84 4.86 3 1.32 1.16 2.26 2.36 2.82 3.6.56 1.2.84 2.44.84 3.72l-14.04 2.1c0-.12-.06-.28-.18-.48-.08-.2-.36-.56-.84-1.08s-1.08-.98-1.8-1.38-1.82-.76-3.3-1.08c-1.44-.36-3.1-.54-4.98-.54s-3.52.16-4.92.48c-1.4.28-2.48.64-3.24 1.08-.72.44-1.3 1-1.74 1.68-.44.64-.72 1.24-.84 1.8-.12.52-.18 1.14-.18 1.86 0 .56.04 1.08.12 1.56.08.44.24.96.48 1.56.24.56.62 1.06 1.14 1.5s1.16.86 1.92 1.26c.76.36 1.76.64 3 .84s2.66.3 4.26.3c1.44 0 2.74-.08 3.9-.24 1.2-.16 2.16-.36 2.88-.6.76-.28 1.42-.58 1.98-.9.6-.32 1.04-.64 1.32-.96.32-.32.56-.6.72-.84.2-.28.32-.5.36-.66l.06-.24 13.92 1.92c0 1.36-.26 2.66-.78 3.9-.48 1.2-1.36 2.38-2.64 3.54-1.24 1.16-2.82 2.16-4.74 3-1.88.84-4.32 1.52-7.32 2.04-3 .48-6.4.72-10.2.72-3.72 0-7.02-.3-9.9-.9-2.84-.6-5.18-1.4-7.02-2.4-1.8-1.04-3.3-2.32-4.5-3.84-1.16-1.52-1.98-3.12-2.46-4.8-.48-1.72-.72-3.62-.72-5.7 0-5.6 1.96-9.94 5.88-13.02 3.92-3.12 10.04-4.68 18.36-4.68zm74.887 7.02c.88 2.2 1.44 5.14 1.68 8.82.28 3.68.42 9.14.42 16.38v2.76h-13.98v-11.46c0-.08 0-.24 0-.48 0-.76 0-1.34 0-1.74 0-.44-.02-1.06-.06-1.86s-.12-1.42-.24-1.86c-.08-.48-.22-1.06-.42-1.74-.2-.72-.44-1.28-.72-1.68-.28-.44-.64-.9-1.08-1.38-.44-.52-.94-.9-1.5-1.14-.56-.28-1.24-.5-2.04-.66-.76-.2-1.6-.3-2.52-.3-5.68 0-9.84 1.24-12.48 3.72v20.58h-13.98v-42h13.98v12.18c4.48-3.44 9.9-5.16 16.26-5.16 1.48 0 2.76.04 3.84.12 1.12.04 2.4.2 3.84.48s2.68.66 3.72 1.14c1.08.48 2.1 1.18 3.06 2.1.96.88 1.7 1.94 2.22 3.18zm73.301-6.84h15.48l-17.94 34.8h-18.3l-17.94-34.8h15.6l11.46 22.5zm17.713.06h13.98v34.74h-13.98zm0-9.48h13.98v6.78h-13.98zm42.132 8.64c4.12 0 7.7.36 10.74 1.08s5.68 1.9 7.92 3.54 3.88 3.88 4.92 6.72c1.04 2.8 1.4 6.18 1.08 10.14h-35.64c.2 1.08 1.18 1.96 2.94 2.64s4.4 1.02 7.92 1.02c3.08 0 6.14-.2 9.18-.6 3.08-.4 5.4-.8 6.96-1.2l2.28-.6 6 9.72c-.12.08-.34.2-.66.36-.32.12-1.14.36-2.46.72-1.28.36-2.74.68-4.38.96s-3.92.54-6.84.78c-2.92.2-6.12.3-9.6.3-4.08 0-7.64-.28-10.68-.84-3-.56-5.46-1.34-7.38-2.34-1.88-1-3.4-2.26-4.56-3.78s-1.96-3.14-2.4-4.86-.66-3.72-.66-6c0-5.6 2.12-9.96 6.36-13.08 4.28-3.12 10.6-4.68 18.96-4.68zm.12 10.74c-2.2 0-4.08.16-5.64.48s-2.7.74-3.42 1.26c-.72.48-1.24.96-1.56 1.44s-.48.96-.48 1.44h21.48c0-1.32-.8-2.42-2.4-3.3-1.56-.88-4.22-1.32-7.98-1.32zm28.061 21.12v-37.92-.36h13.98v42h-13.98zm109.533-31.08h14.34l-15.24 34.8h-13.5l-10.2-18.84-10.26 18.84h-13.5l-15.24-34.8h14.64l8.1 20.4 10.86-20.4h10.56l10.74 19.92zm36.251-.78c4.12 0 7.7.36 10.74 1.08s5.68 1.9 7.92 3.54 3.88 3.88 4.92 6.72c1.04 2.8 1.4 6.18 1.08 10.14h-35.64c.2 1.08 1.18 1.96 2.94 2.64s4.4 1.02 7.92 1.02c3.08 0 6.14-.2 9.18-.6 3.08-.4 5.4-.8 6.96-1.2l2.28-.6 6 9.72c-.12.08-.34.2-.66.36-.32.12-1.14.36-2.46.72-1.28.36-2.74.68-4.38.96s-3.92.54-6.84.78c-2.92.2-6.12.3-9.6.3-4.08 0-7.64-.28-10.68-.84-3-.56-5.46-1.34-7.38-2.34-1.88-1-3.4-2.26-4.56-3.78s-1.96-3.14-2.4-4.86-.66-3.72-.66-6c0-5.6 2.12-9.96 6.36-13.08 4.28-3.12 10.6-4.68 18.96-4.68zm.12 10.74c-2.2 0-4.08.16-5.64.48s-2.7.74-3.42 1.26c-.72.48-1.24.96-1.56 1.44s-.48.96-.48 1.44h21.48c0-1.32-.8-2.42-2.4-3.3-1.56-.88-4.22-1.32-7.98-1.32zm55.976-9.9c5.68 0 10.26 1.14 13.74 3.42.28.16.44.26.48.3l-5.22 10.68c-.36-.2-.88-.44-1.56-.72-.68-.32-1.96-.74-3.84-1.26s-3.66-.84-5.34-.96c-1.48-.08-2.88 0-4.2.24s-2.36.5-3.12.78c-.76.24-1.62.7-2.58 1.38-.92.64-1.5 1.08-1.74 1.32-.2.2-.66.64-1.38 1.32v18.24h-13.98v-34.8h1.02 12.96v4.86c2.56-3.2 7.48-4.8 14.76-4.8zm41.705 23.34c1 0 2.08-.06 3.24-.18 1.16-.16 2.2-.34 3.12-.54s1.76-.4 2.52-.6c.8-.24 1.42-.42 1.86-.54.48-.16.7-.24.66-.24l4.98 10.8c-.6.24-1.48.52-2.64.84-1.16.28-3.66.7-7.5 1.26-3.8.52-7.76.78-11.88.78-1.96 0-3.58-.06-4.86-.18-1.24-.16-2.38-.48-3.42-.96-1.04-.52-1.84-1.14-2.4-1.86-.56-.76-1.04-1.84-1.44-3.24s-.66-2.98-.78-4.74-.18-4-.18-6.72v-6.96h-6.96v-10.44h6.96v-7.26h13.92v7.26h16.98v10.44h-16.98v6.96.36c0 .12.02.4.06.84s.1.86.18 1.26c.12.36.28.78.48 1.26.24.48.52.9.84 1.26.36.32.82.6 1.38.84.56.2 1.18.3 1.86.3zm-509.404 22.6h14.34l-15.24 34.8h-13.5l-10.2-18.84-10.26 18.84h-13.4998l-15.24-34.8h14.64l8.0998 20.4 10.86-20.4h10.56l10.74 19.92zm36.251-.78c4.12 0 7.7.36 10.74 1.08s5.68 1.9 7.92 3.54 3.88 3.88 4.92 6.72c1.04 2.8 1.4 6.18 1.08 10.14h-35.64c.2 1.08 1.18 1.96 2.94 2.64s4.4 1.02 7.92 1.02c3.08 0 6.14-.2 9.18-.6 3.08-.4 5.4-.8 6.96-1.2l2.28-.6 6 9.72c-.12.08-.34.2-.66.36-.32.12-1.14.36-2.46.72-1.28.36-2.74.68-4.38.96s-3.92.54-6.84.78c-2.92.2-6.12.3-9.6.3-4.08 0-7.64-.28-10.68-.84-3-.56-5.46-1.34-7.38-2.34-1.88-1-3.4-2.26-4.56-3.78s-1.96-3.14-2.4-4.86-.66-3.72-.66-6c0-5.6 2.12-9.96 6.36-13.08 4.28-3.12 10.6-4.68 18.96-4.68zm.12 10.74c-2.2 0-4.08.16-5.64.48s-2.7.74-3.42 1.26c-.72.48-1.24.96-1.56 1.44s-.48.96-.48 1.44h21.48c0-1.32-.8-2.42-2.4-3.3-1.56-.88-4.22-1.32-7.98-1.32zm55.976-9.9c5.68 0 10.26 1.14 13.74 3.42.28.16.44.26.48.3l-5.22 10.68c-.36-.2-.88-.44-1.56-.72-.68-.32-1.96-.74-3.84-1.26s-3.66-.84-5.34-.96c-1.48-.08-2.88 0-4.2.24s-2.36.5-3.12.78c-.76.24-1.62.7-2.58 1.38-.92.64-1.5 1.08-1.74 1.32-.2.2-.66.64-1.38 1.32v18.24h-13.98v-34.8h1.02 12.96v4.86c2.56-3.2 7.48-4.8 14.76-4.8zm41.706 23.34c1 0 2.08-.06 3.24-.18 1.16-.16 2.2-.34 3.12-.54s1.76-.4 2.52-.6c.8-.24 1.42-.42 1.86-.54.48-.16.7-.24.66-.24l4.98 10.8c-.6.24-1.48.52-2.64.84-1.16.28-3.66.7-7.5 1.26-3.8.52-7.76.78-11.88.78-1.96 0-3.58-.06-4.86-.18-1.24-.16-2.38-.48-3.42-.96-1.04-.52-1.84-1.14-2.4-1.86-.56-.76-1.04-1.84-1.44-3.24s-.66-2.98-.78-4.74-.18-4-.18-6.72v-6.96h-6.96v-10.44h6.96v-7.26h13.92v7.26h16.98v10.44h-16.98v6.96.36c0 .12.02.4.06.84s.1.86.18 1.26c.12.36.28.78.48 1.26.24.48.52.9.84 1.26.36.32.82.6 1.38.84.56.2 1.18.3 1.86.3zm111.748-23.4h14.34l-15.24 34.8h-13.5l-10.2-18.84-10.26 18.84h-13.5l-15.24-34.8h14.64l8.1 20.4 10.86-20.4h10.56l10.74 19.92zm16.385.06h13.98v34.74h-13.98zm0-9.48h13.98v6.78h-13.98zm46.196 9.48c5.68 0 10.26 1.14 13.74 3.42.28.16.44.26.48.3l-5.22 10.68c-.36-.2-.88-.44-1.56-.72-.68-.32-1.96-.74-3.84-1.26s-3.66-.84-5.34-.96c-1.48-.08-2.88 0-4.2.24s-2.36.5-3.12.78c-.76.24-1.62.7-2.58 1.38-.92.64-1.5 1.08-1.74 1.32-.2.2-.66.64-1.38 1.32v18.24h-13.98v-34.8h1.02 12.96v4.86c2.56-3.2 7.48-4.8 14.76-4.8zm69.246 13.08c4.12 0 7.5.1 10.14.3 2.68.2 5 .52 6.96.96 2 .44 3.5 1.1 4.5 1.98 1.04.88 1.78 1.94 2.22 3.18.48 1.2.72 2.74.72 4.62 0 1.64-.12 3.02-.36 4.14-.2 1.08-.64 2.1-1.32 3.06-.68.92-1.58 1.66-2.7 2.22-1.08.56-2.56 1.04-4.44 1.44-1.84.4-4.02.68-6.54.84-2.48.16-5.48.24-9 .24-12.2 0-19.38-1-21.54-3l3.9-9.96c.96.64 3.32 1.18 7.08 1.62 3.76.4 7.46.6 11.1.6h2.64c3.32 0 5.5-.04 6.54-.12 1.04-.12 1.56-.42 1.56-.9 0-1.32-3.88-1.98-11.64-1.98-3.16 0-5.86-.08-8.1-.24-2.2-.2-4.26-.54-6.18-1.02-1.88-.48-3.38-1.12-4.5-1.92-1.12-.84-2-1.9-2.64-3.18-.6-1.32-.9-2.88-.9-4.68 0-1.32.1-2.5.3-3.54.24-1.04.62-1.94 1.14-2.7.52-.8 1.1-1.48 1.74-2.04.64-.6 1.48-1.1 2.52-1.5 1.08-.4 2.16-.72 3.24-.96 1.12-.24 2.5-.42 4.14-.54s3.24-.2 4.8-.24c1.56-.08 3.44-.12 5.64-.12 4.88 0 8.84.16 11.88.48 3.08.32 5.28.7 6.6 1.14 1.36.44 2.8 1.06 4.32 1.86l-4.32 9.54c-1.88-.68-4.7-1.26-8.46-1.74-3.72-.52-7.36-.78-10.92-.78-.32 0-.78 0-1.38 0-3.32 0-5.46.06-6.42.18s-1.44.48-1.44 1.08c.04 1.12 3.08 1.68 9.12 1.68zm27.468-13.08h13.98v34.74h-13.98zm0-9.48h13.98v6.78h-13.98zm63.703 16.56c.96 2.16 1.54 4.94 1.74 8.34.24 3.36.36 8.88.36 16.56v2.76h-13.98v-11.46c0-.12 0-.3 0-.54 0-.76 0-1.34 0-1.74 0-.44-.04-1.06-.121-1.86-.039-.8-.119-1.42-.239-1.86-.08-.48-.24-1.06-.48-1.74-.2-.72-.46-1.28-.78-1.68-.28-.44-.66-.9-1.14-1.38-.44-.48-.96-.86-1.56-1.14s-1.32-.5-2.16-.66c-.84-.2-1.76-.3-2.76-.3-2.56 0-4.62.38-6.18 1.14-1.52.72-2.94 1.76-4.26 3.12v20.1h-14.1v-34.74h14.1v4.8c1.28-.92 2.26-1.58 2.94-1.98.72-.44 1.7-.94 2.94-1.5 1.28-.6 2.66-1.02 4.14-1.26s3.18-.36 5.099-.36c1.881 0 3.541.08 4.981.24s2.94.48 4.5.96c1.6.48 2.98 1.24 4.14 2.28 1.2 1.04 2.14 2.34 2.82 3.9zm43.077-14.34h13.92v42h-13.92v-3.72c-3.8 2.68-9.18 4.02-16.14 4.02-1.68 0-3.2-.06-4.56-.18-1.36-.08-2.84-.26-4.44-.54-1.6-.32-3.02-.74-4.26-1.26s-2.46-1.24-3.66-2.16-2.2-1.98-3-3.18c-.76-1.24-1.38-2.76-1.86-4.56-.48-1.84-.72-3.88-.72-6.12 0-2.8.6-5.3 1.8-7.5 1.24-2.24 2.9-4.02 4.98-5.34 2.08-1.36 4.42-2.38 7.02-3.06 2.64-.72 5.44-1.08 8.4-1.08 6.08 0 11.56 1.22 16.44 3.66zm0 27.42v-4.74c-1.28-3.44-6.02-5.16-14.22-5.16-.04 0-.12 0-.24 0-.52 0-.94 0-1.26 0-.28 0-.74.04-1.38.12-.6.04-1.12.12-1.56.24-.4.12-.9.3-1.5.54-.56.2-1.04.48-1.44.84-.36.36-.72.78-1.08 1.26s-.64 1.08-.84 1.8c-.16.72-.24 1.52-.24 2.4 0 4.76 3.46 7.14 10.38 7.14 3.88 0 6.78-.28 8.7-.84 1.96-.6 3.52-1.8 4.68-3.6zm-522.813 60.64h-13.8c0-1-.02-2.06-.06-3.18-4.24 2.52-9.14 3.78-14.7 3.78-1.64 0-3.04-.02-4.2-.06-1.12-.04-2.5201-.14-4.2001-.3s-3.1-.38-4.26-.66-2.38-.7-3.66-1.26-2.32-1.22-3.12-1.98c-.8-.8-1.46-1.8-1.98-3-.52-1.24-.78-2.6-.78-4.08 0-1.88.6-3.5 1.8-4.86 1.24-1.4 2.92-2.5 5.04-3.3s4.44-1.38 6.96-1.74c2.5201-.4 5.2401-.6 8.1601-.6 4.96 0 9.44.74 13.44 2.22-.8-2.4-2.16-3.96-4.08-4.68-1.88-.76-4.88-1.14-9-1.14-3.36 0-6.6001.24-9.7201.72-3.08.44-5.06.8-5.94 1.08-.84.24-1.56.46-2.16.66l-3.12-9.48c6.8-2.52 14.06-3.78 21.7801-3.78 1.68 0 3.32.06 4.92.18 1.6.08 3.5.32 5.7.72 2.2.36 4.16.86 5.88 1.5 1.76.64 3.42 1.58 4.98 2.82 1.56 1.2 2.7 2.6 3.42 4.2 1.16 2.64 1.9 5.98 2.22 10.02.32 4 .48 9.4.48 16.2zm-27-8.22c2.92 0 5.6-.3 8.04-.9 2.44-.64 3.84-1.22 4.2-1.74 0-.36 0-.58 0-.66-1.12-1.04-4.96-1.56-11.52-1.56-3.32 0-5.7.2-7.14.6-1.4401.36-2.1601.94-2.1601 1.74 0 1.68 2.8601 2.52 8.5801 2.52zm30.181 4.44v-37.92-.36h13.98v42h-13.98zm17.637 0v-37.92-.36h13.98v42h-13.98zm42.132-31.86c4.12 0 7.7.36 10.74 1.08s5.68 1.9 7.92 3.54 3.88 3.88 4.92 6.72c1.04 2.8 1.4 6.18 1.08 10.14h-35.64c.2 1.08 1.18 1.96 2.94 2.64s4.4 1.02 7.92 1.02c3.08 0 6.14-.2 9.18-.6 3.08-.4 5.4-.8 6.96-1.2l2.28-.6 6 9.72c-.12.08-.34.2-.66.36-.32.12-1.14.36-2.46.72-1.28.36-2.74.68-4.38.96s-3.92.54-6.84.78c-2.92.2-6.12.3-9.6.3-4.08 0-7.64-.28-10.68-.84-3-.56-5.46-1.34-7.38-2.34-1.88-1-3.4-2.26-4.56-3.78s-1.96-3.14-2.4-4.86-.66-3.72-.66-6c0-5.6 2.12-9.96 6.36-13.08 4.28-3.12 10.6-4.68 18.96-4.68zm.12 10.74c-2.2 0-4.08.16-5.64.48s-2.7.74-3.42 1.26c-.72.48-1.24.96-1.56 1.44s-.48.96-.48 1.44h21.48c0-1.32-.8-2.42-2.4-3.3-1.56-.88-4.22-1.32-7.98-1.32zm94.997-9.3h13.92v29.4c0 6.92-2.06 12-6.18 15.24-4.12 3.28-10.82 4.92-20.1 4.92-2.52 0-4.94-.08-7.26-.24-2.32-.12-4.32-.3-6-.54-1.68-.2-3.24-.44-4.68-.72-1.4-.24-2.56-.5-3.48-.78s-1.72-.54-2.4-.78c-.64-.2-1.1-.36-1.38-.48l-.42-.18 4.56-10.8c.12.12.3.26.54.42.28.2.94.54 1.98 1.02s2.18.9 3.42 1.26c1.28.36 3 .68 5.16.96 2.2.28 4.54.42 7.02.42 1.76 0 3.36-.1 4.8-.3 1.48-.2 2.72-.48 3.72-.84s1.9-.78 2.7-1.26 1.42-.98 1.86-1.5c.48-.48.88-.98 1.2-1.5s.54-1 .66-1.44c.12-.48.2-.9.24-1.26.08-.36.12-.66.12-.9v-.3-1.44c-.68 1.68-2.62 3.12-5.82 4.32s-6.74 1.8-10.62 1.8c-2.44 0-4.7-.14-6.78-.42-2.08-.32-4.1-.86-6.06-1.62-1.92-.76-3.56-1.72-4.92-2.88-1.32-1.16-2.4-2.66-3.24-4.5-.8-1.88-1.2-4.02-1.2-6.42 0-2.36.24-4.48.72-6.36.48-1.92 1.1-3.52 1.86-4.8.8-1.32 1.8-2.46 3-3.42 1.2-1 2.42-1.76 3.66-2.28 1.24-.56 2.66-1 4.26-1.32s3.08-.52 4.44-.6c1.36-.12 2.88-.18 4.56-.18 6.96 0 12.34 1.42 16.14 4.26zm0 18.24v-2.64c0-.92-.42-1.74-1.26-2.46-.8-.72-1.9-1.28-3.3-1.68-1.36-.4-2.88-.7-4.56-.9-1.64-.24-3.4-.36-5.28-.36-6.72 0-10.08 2.3-10.08 6.9 0 1.12.2 2.1.6 2.94s.96 1.5 1.68 1.98 1.42.88 2.1 1.2c.72.32 1.52.54 2.4.66.92.12 1.6.2 2.04.24h1.5 1.68c.52-.04 1.36-.1 2.52-.18 1.16-.12 2.2-.3 3.12-.54.92-.28 1.88-.62 2.88-1.02 1.04-.4 1.9-.96 2.58-1.68s1.14-1.54 1.38-2.46zm17.38 12.18v-37.92-.36h13.98v42h-13.98zm42.132-31.86c4.12 0 7.7.36 10.74 1.08s5.68 1.9 7.92 3.54 3.88 3.88 4.92 6.72c1.04 2.8 1.4 6.18 1.08 10.14h-35.64c.2 1.08 1.18 1.96 2.94 2.64s4.4 1.02 7.92 1.02c3.08 0 6.14-.2 9.18-.6 3.08-.4 5.4-.8 6.96-1.2l2.28-.6 6 9.72c-.12.08-.34.2-.66.36-.32.12-1.14.36-2.46.72-1.28.36-2.74.68-4.38.96s-3.92.54-6.84.78c-2.92.2-6.12.3-9.6.3-4.08 0-7.64-.28-10.68-.84-3-.56-5.46-1.34-7.38-2.34-1.88-1-3.4-2.26-4.56-3.78s-1.96-3.14-2.4-4.86-.66-3.72-.66-6c0-5.6 2.12-9.96 6.36-13.08 4.28-3.12 10.6-4.68 18.96-4.68zm.12 10.74c-2.2 0-4.08.16-5.64.48s-2.7.74-3.42 1.26c-.72.48-1.24.96-1.56 1.44s-.48.96-.48 1.44h21.48c0-1.32-.8-2.42-2.4-3.3-1.56-.88-4.22-1.32-7.98-1.32zm27.416-9.9h13.98v34.74h-13.98zm0-9.48h13.98v6.78h-13.98zm41.228 9.24c3.76 0 7.14.26 10.14.78s5.46 1.22 7.38 2.1c1.96.84 3.58 1.84 4.86 3 1.32 1.16 2.26 2.36 2.82 3.6.56 1.2.84 2.44.84 3.72l-14.04 2.1c0-.12-.06-.28-.18-.48-.08-.2-.36-.56-.84-1.08s-1.08-.98-1.8-1.38-1.82-.76-3.3-1.08c-1.44-.36-3.1-.54-4.98-.54s-3.52.16-4.92.48c-1.4.28-2.48.64-3.24 1.08-.72.44-1.3 1-1.74 1.68-.44.64-.72 1.24-.84 1.8-.12.52-.18 1.14-.18 1.86 0 .56.04 1.08.12 1.56.08.44.24.96.48 1.56.24.56.62 1.06 1.14 1.5s1.16.86 1.92 1.26c.76.36 1.76.64 3 .84s2.66.3 4.26.3c1.44 0 2.74-.08 3.9-.24 1.2-.16 2.16-.36 2.88-.6.76-.28 1.42-.58 1.98-.9.6-.32 1.04-.64 1.32-.96.32-.32.56-.6.72-.84.2-.28.32-.5.36-.66l.06-.24 13.92 1.92c0 1.36-.26 2.66-.78 3.9-.48 1.2-1.36 2.38-2.64 3.54-1.24 1.16-2.82 2.16-4.74 3-1.88.84-4.32 1.52-7.32 2.04-3 .48-6.4.72-10.2.72-3.72 0-7.02-.3-9.9-.9-2.84-.6-5.18-1.4-7.02-2.4-1.8-1.04-3.3-2.32-4.5-3.84-1.16-1.52-1.98-3.12-2.46-4.8-.48-1.72-.72-3.62-.72-5.7 0-5.6 1.96-9.94 5.88-13.02 3.92-3.12 10.04-4.68 18.36-4.68zm74.887 7.02c.88 2.2 1.44 5.14 1.68 8.82.28 3.68.42 9.14.42 16.38v2.76h-13.98v-11.46c0-.08 0-.24 0-.48 0-.76 0-1.34 0-1.74 0-.44-.02-1.06-.06-1.86s-.12-1.42-.24-1.86c-.08-.48-.22-1.06-.42-1.74-.2-.72-.44-1.28-.72-1.68-.28-.44-.64-.9-1.08-1.38-.44-.52-.94-.9-1.5-1.14-.56-.28-1.24-.5-2.04-.66-.76-.2-1.6-.3-2.52-.3-5.68 0-9.84 1.24-12.48 3.72v20.58h-13.98v-42h13.98v12.18c4.48-3.44 9.9-5.16 16.26-5.16 1.48 0 2.76.04 3.84.12 1.12.04 2.4.2 3.84.48s2.68.66 3.72 1.14c1.08.48 2.1 1.18 3.06 2.1.96.88 1.7 1.94 2.22 3.18zm73.301-6.84h15.48l-17.94 34.8h-18.3l-17.94-34.8h15.6l11.46 22.5zm17.713.06h13.98v34.74h-13.98zm0-9.48h13.98v6.78h-13.98zm42.132 8.64c4.12 0 7.7.36 10.74 1.08s5.68 1.9 7.92 3.54 3.88 3.88 4.92 6.72c1.04 2.8 1.4 6.18 1.08 10.14h-35.64c.2 1.08 1.18 1.96 2.94 2.64s4.4 1.02 7.92 1.02c3.08 0 6.14-.2 9.18-.6 3.08-.4 5.4-.8 6.96-1.2l2.28-.6 6 9.72c-.12.08-.34.2-.66.36-.32.12-1.14.36-2.46.72-1.28.36-2.74.68-4.38.96s-3.92.54-6.84.78c-2.92.2-6.12.3-9.6.3-4.08 0-7.64-.28-10.68-.84-3-.56-5.46-1.34-7.38-2.34-1.88-1-3.4-2.26-4.56-3.78s-1.96-3.14-2.4-4.86-.66-3.72-.66-6c0-5.6 2.12-9.96 6.36-13.08 4.28-3.12 10.6-4.68 18.96-4.68zm.12 10.74c-2.2 0-4.08.16-5.64.48s-2.7.74-3.42 1.26c-.72.48-1.24.96-1.56 1.44s-.48.96-.48 1.44h21.48c0-1.32-.8-2.42-2.4-3.3-1.56-.88-4.22-1.32-7.98-1.32zm28.06 21.12v-37.92-.36h13.98v42h-13.98zm-592.8297 14.92h14.34l-15.24 34.8h-13.5l-10.2-18.84-10.26 18.84h-13.5l-15.240019-34.8h14.640019l8.1 20.4 10.86-20.4h10.56l10.74 19.92zm36.2517-.78c4.12 0 7.7.36 10.74 1.08s5.68 1.9 7.92 3.54 3.88 3.88 4.92 6.72c1.04 2.8 1.4 6.18 1.08 10.14h-35.6405c.2 1.08 1.18 1.96 2.94 2.64s4.4 1.02 7.9205 1.02c3.08 0 6.14-.2 9.18-.6 3.08-.4 5.4-.8 6.96-1.2l2.28-.6 6 9.72c-.12.08-.34.2-.66.36-.32.12-1.14.36-2.46.72-1.28.36-2.74.68-4.38.96s-3.92.54-6.84.78c-2.92.2-6.12.3-9.6.3-4.0805 0-7.6405-.28-10.6805-.84-3-.56-5.46-1.34-7.38-2.34-1.88-1-3.4-2.26-4.56-3.78s-1.96-3.14-2.4-4.86-.66-3.72-.66-6c0-5.6 2.12-9.96 6.36-13.08 4.28-3.12 10.6-4.68 18.9605-4.68zm.12 10.74c-2.2005 0-4.0805.16-5.6405.48s-2.7.74-3.42 1.26c-.72.48-1.24.96-1.56 1.44s-.48.96-.48 1.44h21.4805c0-1.32-.8-2.42-2.4-3.3-1.56-.88-4.22-1.32-7.98-1.32zm55.975-9.9c5.68 0 10.26 1.14 13.74 3.42.28.16.44.26.48.3l-5.22 10.68c-.36-.2-.88-.44-1.56-.72-.68-.32-1.96-.74-3.84-1.26s-3.66-.84-5.34-.96c-1.48-.08-2.88 0-4.2.24s-2.36.5-3.12.78c-.76.24-1.62.7-2.58 1.38-.92.64-1.5 1.08-1.74 1.32-.2.2-.66.64-1.38 1.32v18.24h-13.98v-34.8h1.02 12.96v4.86c2.56-3.2 7.48-4.8 14.76-4.8zm41.706 23.34c1 0 2.08-.06 3.24-.18 1.16-.16 2.2-.34 3.12-.54s1.76-.4 2.52-.6c.8-.24 1.42-.42 1.86-.54.48-.16.7-.24.66-.24l4.98 10.8c-.6.24-1.48.52-2.64.84-1.16.28-3.66.7-7.5 1.26-3.8.52-7.76.78-11.88.78-1.96 0-3.58-.06-4.86-.18-1.24-.16-2.38-.48-3.42-.96-1.04-.52-1.84-1.14-2.4-1.86-.56-.76-1.04-1.84-1.44-3.24s-.66-2.98-.78-4.74-.18-4-.18-6.72v-6.96h-6.96v-10.44h6.96v-7.26h13.92v7.26h16.98v10.44h-16.98v6.96.36c0 .12.02.4.06.84s.1.86.18 1.26c.12.36.28.78.48 1.26.24.48.52.9.84 1.26.36.32.82.6 1.38.84.56.2 1.18.3 1.86.3zm111.748-23.4h14.34l-15.24 34.8h-13.5l-10.2-18.84-10.26 18.84h-13.5l-15.24-34.8h14.64l8.1 20.4 10.86-20.4h10.56l10.74 19.92zm16.385.06h13.98v34.74h-13.98zm0-9.48h13.98v6.78h-13.98zm46.196 9.48c5.68 0 10.26 1.14 13.74 3.42.28.16.44.26.48.3l-5.22 10.68c-.36-.2-.88-.44-1.56-.72-.68-.32-1.96-.74-3.84-1.26s-3.66-.84-5.34-.96c-1.48-.08-2.88 0-4.2.24s-2.36.5-3.12.78c-.76.24-1.62.7-2.58 1.38-.92.64-1.5 1.08-1.74 1.32-.2.2-.66.64-1.38 1.32v18.24h-13.98v-34.8h1.02 12.96v4.86c2.56-3.2 7.48-4.8 14.76-4.8zm69.246 13.08c4.12 0 7.5.1 10.14.3 2.68.2 5 .52 6.96.96 2 .44 3.5 1.1 4.5 1.98 1.04.88 1.78 1.94 2.22 3.18.48 1.2.72 2.74.72 4.62 0 1.64-.12 3.02-.36 4.14-.2 1.08-.64 2.1-1.32 3.06-.68.92-1.58 1.66-2.7 2.22-1.08.56-2.56 1.04-4.44 1.44-1.84.4-4.02.68-6.54.84-2.48.16-5.48.24-9 .24-12.2 0-19.38-1-21.54-3l3.9-9.96c.96.64 3.32 1.18 7.08 1.62 3.76.4 7.46.6 11.1.6h2.64c3.32 0 5.5-.04 6.54-.12 1.04-.12 1.56-.42 1.56-.9 0-1.32-3.88-1.98-11.64-1.98-3.16 0-5.86-.08-8.1-.24-2.2-.2-4.26-.54-6.18-1.02-1.88-.48-3.38-1.12-4.5-1.92-1.12-.84-2-1.9-2.64-3.18-.6-1.32-.9-2.88-.9-4.68 0-1.32.1-2.5.3-3.54.24-1.04.62-1.94 1.14-2.7.52-.8 1.1-1.48 1.74-2.04.64-.6 1.48-1.1 2.52-1.5 1.08-.4 2.16-.72 3.24-.96 1.12-.24 2.5-.42 4.14-.54s3.24-.2 4.8-.24c1.56-.08 3.44-.12 5.64-.12 4.88 0 8.84.16 11.88.48 3.08.32 5.28.7 6.6 1.14 1.36.44 2.8 1.06 4.32 1.86l-4.32 9.54c-1.88-.68-4.7-1.26-8.46-1.74-3.72-.52-7.36-.78-10.92-.78-.32 0-.78 0-1.38 0-3.32 0-5.46.06-6.42.18s-1.44.48-1.44 1.08c.04 1.12 3.08 1.68 9.12 1.68zm27.468-13.08h13.98v34.74h-13.98zm0-9.48h13.98v6.78h-13.98zm63.703 16.56c.96 2.16 1.54 4.94 1.74 8.34.24 3.36.36 8.88.36 16.56v2.76h-13.98v-11.46c0-.12 0-.3 0-.54 0-.76 0-1.34 0-1.74 0-.44-.04-1.06-.12-1.86-.04-.8-.12-1.42-.24-1.86-.08-.48-.24-1.06-.48-1.74-.2-.72-.46-1.28-.78-1.68-.28-.44-.66-.9-1.14-1.38-.44-.48-.96-.86-1.56-1.14s-1.32-.5-2.16-.66c-.84-.2-1.76-.3-2.76-.3-2.56 0-4.62.38-6.18 1.14-1.52.72-2.94 1.76-4.26 3.12v20.1h-14.1v-34.74h14.1v4.8c1.28-.92 2.26-1.58 2.94-1.98.72-.44 1.7-.94 2.94-1.5 1.28-.6 2.66-1.02 4.14-1.26s3.18-.36 5.1-.36c1.88 0 3.54.08 4.98.24s2.94.48 4.5.96c1.6.48 2.98 1.24 4.14 2.28 1.2 1.04 2.14 2.34 2.82 3.9zm43.077-14.34h13.92v42h-13.92v-3.72c-3.8 2.68-9.18 4.02-16.14 4.02-1.68 0-3.2-.06-4.56-.18-1.36-.08-2.84-.26-4.44-.54-1.6-.32-3.02-.74-4.26-1.26s-2.46-1.24-3.66-2.16-2.2-1.98-3-3.18c-.76-1.24-1.38-2.76-1.86-4.56-.48-1.84-.72-3.88-.72-6.12 0-2.8.6-5.3 1.8-7.5 1.24-2.24 2.9-4.02 4.98-5.34 2.08-1.36 4.42-2.38 7.02-3.06 2.64-.72 5.44-1.08 8.4-1.08 6.08 0 11.56 1.22 16.44 3.66zm0 27.42v-4.74c-1.28-3.44-6.02-5.16-14.22-5.16-.04 0-.12 0-.24 0-.52 0-.94 0-1.26 0-.28 0-.74.04-1.38.12-.6.04-1.12.12-1.56.24-.4.12-.9.3-1.5.54-.56.2-1.04.48-1.44.84-.36.36-.72.78-1.08 1.26s-.64 1.08-.84 1.8c-.16.72-.24 1.52-.24 2.4 0 4.76 3.46 7.14 10.38 7.14 3.88 0 6.78-.28 8.7-.84 1.96-.6 3.52-1.8 4.68-3.6zm95.117 14.64h-13.8c0-1-.02-2.06-.06-3.18-4.24 2.52-9.14 3.78-14.7 3.78-1.64 0-3.04-.02-4.2-.06-1.12-.04-2.52-.14-4.2-.3s-3.1-.38-4.26-.66-2.38-.7-3.66-1.26-2.32-1.22-3.12-1.98c-.8-.8-1.46-1.8-1.98-3-.52-1.24-.78-2.6-.78-4.08 0-1.88.6-3.5 1.8-4.86 1.24-1.4 2.92-2.5 5.04-3.3s4.44-1.38 6.96-1.74c2.52-.4 5.24-.6 8.16-.6 4.96 0 9.44.74 13.44 2.22-.8-2.4-2.16-3.96-4.08-4.68-1.88-.76-4.88-1.14-9-1.14-3.36 0-6.6.24-9.72.72-3.08.44-5.06.8-5.94 1.08-.84.24-1.56.46-2.16.66l-3.12-9.48c6.8-2.52 14.06-3.78 21.78-3.78 1.68 0 3.32.06 4.92.18 1.6.08 3.5.32 5.7.72 2.2.36 4.16.86 5.88 1.5 1.76.64 3.42 1.58 4.98 2.82 1.56 1.2 2.7 2.6 3.42 4.2 1.16 2.64 1.9 5.98 2.22 10.02.32 4 .48 9.4.48 16.2zm-27-8.22c2.92 0 5.6-.3 8.04-.9 2.44-.64 3.84-1.22 4.2-1.74 0-.36 0-.58 0-.66-1.12-1.04-4.96-1.56-11.52-1.56-3.32 0-5.7.2-7.14.6-1.44.36-2.16.94-2.16 1.74 0 1.68 2.86 2.52 8.58 2.52zm-493.196 19.36h15.48l-17.94 34.8h-18.3l-17.94-34.8h15.6l11.46 22.5zm17.713.06h13.98v34.74h-13.98zm0-9.48h13.98v6.78h-13.98zm42.132 8.64c4.12 0 7.7.36 10.74 1.08s5.68 1.9 7.92 3.54 3.88 3.88 4.92 6.72c1.04 2.8 1.4 6.18 1.08 10.14h-35.64c.2 1.08 1.18 1.96 2.94 2.64s4.4 1.02 7.92 1.02c3.08 0 6.14-.2 9.18-.6 3.08-.4 5.4-.8 6.96-1.2l2.28-.6 6 9.72c-.12.08-.34.2-.66.36-.32.12-1.14.36-2.46.72-1.28.36-2.74.68-4.38.96s-3.92.54-6.84.78c-2.92.2-6.12.3-9.6.3-4.08 0-7.64-.28-10.68-.84-3-.56-5.46-1.34-7.38-2.34-1.88-1-3.4-2.26-4.56-3.78s-1.96-3.14-2.4-4.86-.66-3.72-.66-6c0-5.6 2.12-9.96 6.36-13.08 4.28-3.12 10.6-4.68 18.96-4.68zm.12 10.74c-2.2 0-4.08.16-5.64.48s-2.7.74-3.42 1.26c-.72.48-1.24.96-1.56 1.44s-.48.96-.48 1.44h21.48c0-1.32-.8-2.42-2.4-3.3-1.56-.88-4.22-1.32-7.98-1.32zm28.06 21.12v-37.92-.36h13.98v42h-13.98zm109.534-31.08h14.34l-15.24 34.8h-13.5l-10.2-18.84-10.26 18.84h-13.5l-15.24-34.8h14.64l8.1 20.4 10.86-20.4h10.56l10.74 19.92zm36.251-.78c4.12 0 7.7.36 10.74 1.08s5.68 1.9 7.92 3.54 3.88 3.88 4.92 6.72c1.04 2.8 1.4 6.18 1.08 10.14h-35.64c.2 1.08 1.18 1.96 2.94 2.64s4.4 1.02 7.92 1.02c3.08 0 6.14-.2 9.18-.6 3.08-.4 5.4-.8 6.96-1.2l2.28-.6 6 9.72c-.12.08-.34.2-.66.36-.32.12-1.14.36-2.46.72-1.28.36-2.74.68-4.38.96s-3.92.54-6.84.78c-2.92.2-6.12.3-9.6.3-4.08 0-7.64-.28-10.68-.84-3-.56-5.46-1.34-7.38-2.34-1.88-1-3.4-2.26-4.56-3.78s-1.96-3.14-2.4-4.86-.66-3.72-.66-6c0-5.6 2.12-9.96 6.36-13.08 4.28-3.12 10.6-4.68 18.96-4.68zm.12 10.74c-2.2 0-4.08.16-5.64.48s-2.7.74-3.42 1.26c-.72.48-1.24.96-1.56 1.44s-.48.96-.48 1.44h21.48c0-1.32-.8-2.42-2.4-3.3-1.56-.88-4.22-1.32-7.98-1.32zm55.976-9.9c5.68 0 10.26 1.14 13.74 3.42.28.16.44.26.48.3l-5.22 10.68c-.36-.2-.88-.44-1.56-.72-.68-.32-1.96-.74-3.84-1.26s-3.66-.84-5.34-.96c-1.48-.08-2.88 0-4.2.24s-2.36.5-3.12.78c-.76.24-1.62.7-2.58 1.38-.92.64-1.5 1.08-1.74 1.32-.2.2-.66.64-1.38 1.32v18.24h-13.98v-34.8h1.02 12.96v4.86c2.56-3.2 7.48-4.8 14.76-4.8zm41.705 23.34c1 0 2.08-.06 3.24-.18 1.16-.16 2.2-.34 3.12-.54s1.76-.4 2.52-.6c.8-.24 1.42-.42 1.86-.54.48-.16.7-.24.66-.24l4.98 10.8c-.6.24-1.48.52-2.64.84-1.16.28-3.66.7-7.5 1.26-3.8.52-7.76.78-11.88.78-1.96 0-3.58-.06-4.86-.18-1.24-.16-2.38-.48-3.42-.96-1.04-.52-1.84-1.14-2.4-1.86-.56-.76-1.04-1.84-1.44-3.24s-.66-2.98-.78-4.74-.18-4-.18-6.72v-6.96h-6.96v-10.44h6.96v-7.26h13.92v7.26h16.98v10.44h-16.98v6.96.36c0 .12.02.4.06.84s.1.86.18 1.26c.12.36.28.78.48 1.26.24.48.52.9.84 1.26.36.32.82.6 1.38.84.56.2 1.18.3 1.86.3zm111.749-23.4h14.34l-15.24 34.8h-13.5l-10.2-18.84-10.26 18.84h-13.5l-15.24-34.8h14.64l8.1 20.4 10.86-20.4h10.56l10.74 19.92zm16.384.06h13.98v34.74h-13.98zm0-9.48h13.98v6.78h-13.98zm46.197 9.48c5.68 0 10.26 1.14 13.74 3.42.28.16.44.26.48.3l-5.22 10.68c-.36-.2-.88-.44-1.56-.72-.68-.32-1.96-.74-3.84-1.26s-3.66-.84-5.34-.96c-1.48-.08-2.88 0-4.2.24s-2.36.5-3.12.78c-.76.24-1.62.7-2.58 1.38-.92.64-1.5 1.08-1.74 1.32-.2.2-.66.64-1.38 1.32v18.24h-13.98v-34.8h1.02 12.96v4.86c2.56-3.2 7.48-4.8 14.76-4.8z" fill="#000"/></svg>