<svg width="480" height="180" viewBox="0 0 480 180" fill="none" xmlns="http://www.w3.org/2000/svg">
<path d="M29.3734 43H0.393438V0.999997H29.1934C31.9134 0.999997 34.3334 1.16 36.4534 1.48C38.5734 1.76 40.7134 2.36 42.8734 3.28C45.0334 4.16 46.8334 5.36 48.2734 6.88C49.7134 8.36 50.8734 10.38 51.7534 12.94C52.6734 15.5 53.1334 18.52 53.1334 22C53.1334 25.12 52.6534 27.92 51.6934 30.4C50.7334 32.88 49.4734 34.9 47.9134 36.46C46.3534 37.98 44.5134 39.26 42.3934 40.3C40.2734 41.3 38.1334 42 35.9734 42.4C33.8534 42.8 31.6534 43 29.3734 43ZM28.4134 31.54C30.6134 31.54 32.4934 31.12 34.0534 30.28C35.6134 29.4 36.7534 28.26 37.4734 26.86C38.1934 25.46 38.5534 23.86 38.5534 22.06C38.5534 19.18 37.7334 16.88 36.0934 15.16C34.4934 13.4 31.9334 12.52 28.4134 12.52H14.3734V31.54H28.4134ZM104.501 43.06H90.7014C90.7014 42.06 90.6814 41 90.6414 39.88C86.4014 42.4 81.5014 43.66 75.9414 43.66C74.3014 43.66 72.9014 43.64 71.7414 43.6C70.6214 43.56 69.2214 43.46 67.5414 43.3C65.8614 43.14 64.4414 42.92 63.2814 42.64C62.1214 42.36 60.9014 41.94 59.6214 41.38C58.3414 40.82 57.3014 40.16 56.5014 39.4C55.7014 38.6 55.0414 37.6 54.5214 36.4C54.0014 35.16 53.7414 33.8 53.7414 32.32C53.7414 30.44 54.3414 28.82 55.5414 27.46C56.7814 26.06 58.4614 24.96 60.5814 24.16C62.7014 23.36 65.0214 22.78 67.5414 22.42C70.0614 22.02 72.7814 21.82 75.7014 21.82C80.6614 21.82 85.1414 22.56 89.1414 24.04C88.3414 21.64 86.9814 20.08 85.0614 19.36C83.1814 18.6 80.1814 18.22 76.0614 18.22C72.7014 18.22 69.4614 18.46 66.3414 18.94C63.2614 19.38 61.2814 19.74 60.4014 20.02C59.5614 20.26 58.8414 20.48 58.2414 20.68L55.1214 11.2C61.9214 8.68 69.1814 7.42 76.9014 7.42C78.5814 7.42 80.2214 7.48 81.8214 7.6C83.4214 7.68 85.3214 7.92 87.5214 8.32C89.7214 8.68 91.6814 9.18 93.4014 9.82C95.1614 10.46 96.8214 11.4 98.3814 12.64C99.9414 13.84 101.081 15.24 101.801 16.84C102.961 19.48 103.701 22.82 104.021 26.86C104.341 30.86 104.501 36.26 104.501 43.06ZM77.5014 34.84C80.4214 34.84 83.1014 34.54 85.5414 33.94C87.9814 33.3 89.3814 32.72 89.7414 32.2C89.7414 31.84 89.7414 31.62 89.7414 31.54C88.6214 30.5 84.7814 29.98 78.2214 29.98C74.9014 29.98 72.5214 30.18 71.0814 30.58C69.6414 30.94 68.9214 31.52 68.9214 32.32C68.9214 34 71.7814 34.84 77.5014 34.84ZM136.452 8.26H150.432V43H136.452V8.26ZM136.452 -1.22H150.432V5.56H136.452V-1.22ZM175.781 21.34C179.901 21.34 183.281 21.44 185.921 21.64C188.601 21.84 190.921 22.16 192.881 22.6C194.881 23.04 196.381 23.7 197.381 24.58C198.421 25.46 199.161 26.52 199.601 27.76C200.081 28.96 200.321 30.5 200.321 32.38C200.321 34.02 200.201 35.4 199.961 36.52C199.761 37.6 199.321 38.62 198.641 39.58C197.961 40.5 197.061 41.24 195.941 41.8C194.861 42.36 193.381 42.84 191.501 43.24C189.661 43.64 187.481 43.92 184.961 44.08C182.481 44.24 179.481 44.32 175.961 44.32C163.761 44.32 156.581 43.32 154.421 41.32L158.321 31.36C159.281 32 161.641 32.54 165.401 32.98C169.161 33.38 172.861 33.58 176.501 33.58C177.141 33.58 178.021 33.58 179.141 33.58C182.461 33.58 184.641 33.54 185.681 33.46C186.721 33.34 187.241 33.04 187.241 32.56C187.241 31.24 183.361 30.58 175.601 30.58C172.441 30.58 169.741 30.5 167.501 30.34C165.301 30.14 163.241 29.8 161.321 29.32C159.441 28.84 157.941 28.2 156.821 27.4C155.701 26.56 154.821 25.5 154.181 24.22C153.581 22.9 153.281 21.34 153.281 19.54C153.281 18.22 153.381 17.04 153.581 16C153.821 14.96 154.201 14.06 154.721 13.3C155.241 12.5 155.821 11.82 156.461 11.26C157.101 10.66 157.941 10.16 158.981 9.76C160.061 9.36 161.141 9.04 162.221 8.8C163.341 8.56 164.721 8.38 166.361 8.26C168.001 8.14 169.601 8.06 171.161 8.02C172.721 7.94 174.601 7.9 176.801 7.9C181.681 7.9 185.641 8.06 188.681 8.38C191.761 8.7 193.961 9.08 195.281 9.52C196.641 9.96 198.081 10.58 199.601 11.38L195.281 20.92C193.401 20.24 190.581 19.66 186.821 19.18C183.101 18.66 179.461 18.4 175.901 18.4C175.581 18.4 175.121 18.4 174.521 18.4C171.201 18.4 169.061 18.46 168.101 18.58C167.141 18.7 166.661 19.06 166.661 19.66C166.701 20.78 169.741 21.34 175.781 21.34ZM226.698 31.6C227.698 31.6 228.778 31.54 229.938 31.42C231.098 31.26 232.138 31.08 233.058 30.88C233.978 30.68 234.818 30.48 235.578 30.28C236.378 30.04 236.998 29.86 237.438 29.74C237.918 29.58 238.138 29.5 238.098 29.5L243.078 40.3C242.478 40.54 241.598 40.82 240.438 41.14C239.278 41.42 236.778 41.84 232.938 42.4C229.138 42.92 225.178 43.18 221.058 43.18C219.098 43.18 217.478 43.12 216.198 43C214.958 42.84 213.818 42.52 212.778 42.04C211.738 41.52 210.938 40.9 210.378 40.18C209.818 39.42 209.338 38.34 208.938 36.94C208.538 35.54 208.278 33.96 208.158 32.2C208.038 30.44 207.978 28.2 207.978 25.48V18.52H201.018V8.08H207.978V0.819999H221.898V8.08H238.878V18.52H221.898V25.48C221.898 25.56 221.898 25.68 221.898 25.84C221.898 25.96 221.918 26.24 221.958 26.68C221.998 27.12 222.058 27.54 222.138 27.94C222.258 28.3 222.418 28.72 222.618 29.2C222.858 29.68 223.138 30.1 223.458 30.46C223.818 30.78 224.278 31.06 224.838 31.3C225.398 31.5 226.018 31.6 226.698 31.6ZM320.507 15.34C321.467 17.5 322.047 20.28 322.247 23.68C322.487 27.04 322.607 32.56 322.607 40.24V43H308.627V31.54C308.627 31.42 308.627 31.24 308.627 31C308.627 30.24 308.627 29.66 308.627 29.26C308.627 28.82 308.587 28.2 308.507 27.4C308.467 26.6 308.387 25.98 308.267 25.54C308.187 25.06 308.027 24.48 307.787 23.8C307.587 23.08 307.327 22.52 307.007 22.12C306.727 21.68 306.347 21.22 305.867 20.74C305.427 20.26 304.907 19.88 304.307 19.6C303.707 19.32 302.987 19.1 302.147 18.94C301.307 18.74 300.387 18.64 299.387 18.64C296.827 18.64 294.767 19.02 293.207 19.78C291.687 20.5 290.267 21.54 288.947 22.9V43H274.847V8.26H288.947V13.06C290.227 12.14 291.207 11.48 291.887 11.08C292.607 10.64 293.587 10.14 294.827 9.58C296.107 8.98 297.487 8.56 298.967 8.32C300.447 8.08 302.147 7.96 304.067 7.96C305.947 7.96 307.607 8.04 309.047 8.2C310.487 8.36 311.987 8.68 313.547 9.16C315.147 9.64 316.527 10.4 317.687 11.44C318.887 12.48 319.827 13.78 320.507 15.34ZM349.795 8.02C352.755 8.02 355.415 8.16 357.775 8.44C360.135 8.68 362.495 9.2 364.855 10C367.215 10.76 369.175 11.78 370.735 13.06C372.295 14.34 373.555 16.06 374.515 18.22C375.475 20.34 375.955 22.84 375.955 25.72C375.955 29 375.355 31.8 374.155 34.12C372.995 36.44 371.255 38.28 368.935 39.64C366.615 40.96 363.935 41.92 360.895 42.52C357.855 43.08 354.275 43.36 350.155 43.36C345.955 43.36 342.335 43.06 339.295 42.46C336.255 41.86 333.615 40.9 331.375 39.58C329.135 38.22 327.455 36.4 326.335 34.12C325.255 31.8 324.715 29 324.715 25.72C324.715 22.92 325.155 20.46 326.035 18.34C326.955 16.22 328.155 14.52 329.635 13.24C331.115 11.96 332.955 10.92 335.155 10.12C337.355 9.32 339.615 8.78 341.935 8.5C344.295 8.18 346.915 8.02 349.795 8.02ZM350.275 33.52C353.795 33.52 356.475 32.94 358.315 31.78C360.195 30.58 361.135 28.56 361.135 25.72C361.135 24.16 360.775 22.84 360.055 21.76C359.335 20.64 358.375 19.82 357.175 19.3C356.015 18.78 354.855 18.42 353.695 18.22C352.575 17.98 351.375 17.86 350.095 17.86C349.175 17.86 348.255 17.94 347.335 18.1C346.415 18.22 345.475 18.46 344.515 18.82C343.555 19.18 342.715 19.64 341.995 20.2C341.315 20.76 340.735 21.5 340.255 22.42C339.815 23.3 339.595 24.3 339.595 25.42C339.595 28.18 340.455 30.22 342.175 31.54C343.935 32.86 346.635 33.52 350.275 33.52ZM402.329 8.02C406.089 8.02 409.469 8.28 412.469 8.8C415.469 9.32 417.929 10.02 419.849 10.9C421.809 11.74 423.429 12.74 424.709 13.9C426.029 15.06 426.969 16.26 427.529 17.5C428.089 18.7 428.369 19.94 428.369 21.22L414.329 23.32C414.329 23.2 414.269 23.04 414.149 22.84C414.069 22.64 413.789 22.28 413.309 21.76C412.829 21.24 412.229 20.78 411.509 20.38C410.789 19.98 409.689 19.62 408.209 19.3C406.769 18.94 405.109 18.76 403.229 18.76C401.349 18.76 399.709 18.92 398.309 19.24C396.909 19.52 395.829 19.88 395.069 20.32C394.349 20.76 393.769 21.32 393.329 22C392.889 22.64 392.609 23.24 392.489 23.8C392.369 24.32 392.309 24.94 392.309 25.66C392.309 26.22 392.349 26.74 392.429 27.22C392.509 27.66 392.669 28.18 392.909 28.78C393.149 29.34 393.529 29.84 394.049 30.28C394.569 30.72 395.209 31.14 395.969 31.54C396.729 31.9 397.729 32.18 398.969 32.38C400.209 32.58 401.629 32.68 403.229 32.68C404.669 32.68 405.969 32.6 407.129 32.44C408.329 32.28 409.289 32.08 410.009 31.84C410.769 31.56 411.429 31.26 411.989 30.94C412.589 30.62 413.029 30.3 413.309 29.98C413.629 29.66 413.869 29.38 414.029 29.14C414.229 28.86 414.349 28.64 414.389 28.48L414.449 28.24L428.369 30.16C428.369 31.52 428.109 32.82 427.589 34.06C427.109 35.26 426.229 36.44 424.949 37.6C423.709 38.76 422.129 39.76 420.209 40.6C418.329 41.44 415.889 42.12 412.889 42.64C409.889 43.12 406.489 43.36 402.689 43.36C398.969 43.36 395.669 43.06 392.789 42.46C389.949 41.86 387.609 41.06 385.769 40.06C383.969 39.02 382.469 37.74 381.269 36.22C380.109 34.7 379.289 33.1 378.809 31.42C378.329 29.7 378.089 27.8 378.089 25.72C378.089 20.12 380.049 15.78 383.969 12.7C387.889 9.58 394.009 8.02 402.329 8.02ZM477.216 15.04C478.096 17.24 478.656 20.18 478.896 23.86C479.176 27.54 479.316 33 479.316 40.24V43H465.336V31.54C465.336 31.46 465.336 31.3 465.336 31.06C465.336 30.3 465.336 29.72 465.336 29.32C465.336 28.88 465.316 28.26 465.276 27.46C465.236 26.66 465.156 26.04 465.036 25.6C464.956 25.12 464.816 24.54 464.616 23.86C464.416 23.14 464.176 22.58 463.896 22.18C463.616 21.74 463.256 21.28 462.816 20.8C462.376 20.28 461.876 19.9 461.316 19.66C460.756 19.38 460.076 19.16 459.276 19C458.516 18.8 457.676 18.7 456.756 18.7C451.076 18.7 446.916 19.94 444.276 22.42V43H430.296V0.999997H444.276V13.18C448.756 9.74 454.176 8.02 460.536 8.02C462.016 8.02 463.296 8.06 464.376 8.14C465.496 8.18 466.776 8.34 468.216 8.62C469.656 8.9 470.896 9.28 471.936 9.76C473.016 10.24 474.036 10.94 474.996 11.86C475.956 12.74 476.696 13.8 477.216 15.04ZM190.278 61.34C190.878 62.82 191.318 64.84 191.598 67.4C191.918 69.92 192.098 72.36 192.138 74.72C192.178 77.08 192.198 80.94 192.198 86.3V89H178.218V77.42C178.218 76.94 178.238 76.28 178.278 75.44C178.318 74.56 178.338 73.84 178.338 73.28C178.378 72.68 178.358 71.98 178.278 71.18C178.238 70.34 178.138 69.66 177.978 69.14C177.818 68.58 177.558 68 177.198 67.4C176.878 66.76 176.438 66.26 175.878 65.9C175.358 65.54 174.678 65.24 173.838 65C173.038 64.76 172.078 64.64 170.958 64.64C168.958 64.64 166.978 65.12 165.018 66.08C163.058 67 161.598 68.06 160.638 69.26C160.838 72.1 160.938 77.78 160.938 86.3V89H147.138V77.42C147.138 76.98 147.158 76.32 147.198 75.44C147.238 74.52 147.258 73.78 147.258 73.22C147.258 72.66 147.218 71.96 147.138 71.12C147.098 70.28 146.998 69.6 146.838 69.08C146.678 68.56 146.418 68 146.058 67.4C145.698 66.76 145.238 66.26 144.678 65.9C144.158 65.54 143.478 65.24 142.638 65C141.798 64.76 140.838 64.64 139.758 64.64C135.558 64.64 132.318 66.26 130.038 69.5V89H116.058V54.26H130.038V58.52C132.198 57.04 134.358 55.92 136.518 55.16C138.678 54.36 141.338 53.96 144.498 53.96C147.818 53.96 150.618 54.38 152.898 55.22C155.218 56.02 157.038 57.6 158.358 59.96C163.038 55.96 168.838 53.96 175.758 53.96C177.118 53.96 178.318 54.02 179.358 54.14C180.398 54.22 181.498 54.42 182.658 54.74C183.858 55.02 184.898 55.42 185.778 55.94C186.658 56.46 187.498 57.18 188.298 58.1C189.098 58.98 189.758 60.06 190.278 61.34ZM220.128 53.42C224.248 53.42 227.828 53.78 230.868 54.5C233.908 55.22 236.548 56.4 238.788 58.04C241.028 59.68 242.668 61.92 243.708 64.76C244.748 67.56 245.108 70.94 244.788 74.9H209.148C209.348 75.98 210.328 76.86 212.088 77.54C213.848 78.22 216.488 78.56 220.008 78.56C223.088 78.56 226.148 78.36 229.188 77.96C232.268 77.56 234.588 77.16 236.148 76.76L238.428 76.16L244.428 85.88C244.308 85.96 244.088 86.08 243.768 86.24C243.448 86.36 242.628 86.6 241.308 86.96C240.028 87.32 238.568 87.64 236.928 87.92C235.288 88.2 233.008 88.46 230.088 88.7C227.168 88.9 223.968 89 220.488 89C216.408 89 212.848 88.72 209.808 88.16C206.808 87.6 204.348 86.82 202.428 85.82C200.548 84.82 199.028 83.56 197.868 82.04C196.708 80.52 195.908 78.9 195.468 77.18C195.028 75.46 194.808 73.46 194.808 71.18C194.808 65.58 196.928 61.22 201.168 58.1C205.448 54.98 211.768 53.42 220.128 53.42ZM220.248 64.16C218.048 64.16 216.168 64.32 214.608 64.64C213.048 64.96 211.908 65.38 211.188 65.9C210.468 66.38 209.948 66.86 209.628 67.34C209.308 67.82 209.148 68.3 209.148 68.78H230.628C230.628 67.46 229.828 66.36 228.228 65.48C226.668 64.6 224.008 64.16 220.248 64.16ZM295.048 61.04C295.928 63.24 296.488 66.18 296.728 69.86C297.008 73.54 297.148 79 297.148 86.24V89H283.168V77.54C283.168 77.46 283.168 77.3 283.168 77.06C283.168 76.3 283.168 75.72 283.168 75.32C283.168 74.88 283.148 74.26 283.108 73.46C283.068 72.66 282.988 72.04 282.868 71.6C282.788 71.12 282.648 70.54 282.448 69.86C282.248 69.14 282.008 68.58 281.728 68.18C281.448 67.74 281.088 67.28 280.648 66.8C280.208 66.28 279.708 65.9 279.148 65.66C278.588 65.38 277.908 65.16 277.108 65C276.348 64.8 275.508 64.7 274.588 64.7C268.908 64.7 264.748 65.94 262.108 68.42V89H248.128V47H262.108V59.18C266.588 55.74 272.008 54.02 278.368 54.02C279.848 54.02 281.128 54.06 282.208 54.14C283.328 54.18 284.608 54.34 286.048 54.62C287.488 54.9 288.728 55.28 289.768 55.76C290.848 56.24 291.868 56.94 292.828 57.86C293.788 58.74 294.528 59.8 295.048 61.04ZM329.192 54.26C334.872 54.26 339.452 55.4 342.932 57.68C343.212 57.84 343.372 57.94 343.412 57.98L338.192 68.66C337.832 68.46 337.312 68.22 336.632 67.94C335.952 67.62 334.672 67.2 332.792 66.68C330.912 66.16 329.132 65.84 327.452 65.72C325.972 65.64 324.572 65.72 323.252 65.96C321.932 66.2 320.892 66.46 320.132 66.74C319.372 66.98 318.512 67.44 317.552 68.12C316.632 68.76 316.052 69.2 315.812 69.44C315.612 69.64 315.152 70.08 314.432 70.76V89H300.452V54.2H301.472H314.432V59.06C316.992 55.86 321.912 54.26 329.192 54.26ZM404.198 89H375.218V47H404.018C406.738 47 409.158 47.16 411.278 47.48C413.398 47.76 415.538 48.36 417.698 49.28C419.858 50.16 421.658 51.36 423.098 52.88C424.538 54.36 425.698 56.38 426.578 58.94C427.498 61.5 427.958 64.52 427.958 68C427.958 71.12 427.478 73.92 426.518 76.4C425.558 78.88 424.298 80.9 422.738 82.46C421.178 83.98 419.338 85.26 417.218 86.3C415.098 87.3 412.958 88 410.798 88.4C408.678 88.8 406.478 89 404.198 89ZM403.238 77.54C405.438 77.54 407.318 77.12 408.878 76.28C410.438 75.4 411.578 74.26 412.298 72.86C413.018 71.46 413.378 69.86 413.378 68.06C413.378 65.18 412.558 62.88 410.918 61.16C409.318 59.4 406.758 58.52 403.238 58.52H389.198V77.54H403.238ZM479.326 89.06H465.526C465.526 88.06 465.506 87 465.466 85.88C461.226 88.4 456.326 89.66 450.766 89.66C449.126 89.66 447.726 89.64 446.566 89.6C445.446 89.56 444.046 89.46 442.366 89.3C440.686 89.14 439.266 88.92 438.106 88.64C436.946 88.36 435.726 87.94 434.446 87.38C433.166 86.82 432.126 86.16 431.326 85.4C430.526 84.6 429.866 83.6 429.346 82.4C428.826 81.16 428.566 79.8 428.566 78.32C428.566 76.44 429.166 74.82 430.366 73.46C431.606 72.06 433.286 70.96 435.406 70.16C437.526 69.36 439.846 68.78 442.366 68.42C444.886 68.02 447.606 67.82 450.526 67.82C455.486 67.82 459.966 68.56 463.966 70.04C463.166 67.64 461.806 66.08 459.886 65.36C458.006 64.6 455.006 64.22 450.886 64.22C447.526 64.22 444.286 64.46 441.166 64.94C438.086 65.38 436.106 65.74 435.226 66.02C434.386 66.26 433.666 66.48 433.066 66.68L429.946 57.2C436.746 54.68 444.006 53.42 451.726 53.42C453.406 53.42 455.046 53.48 456.646 53.6C458.246 53.68 460.146 53.92 462.346 54.32C464.546 54.68 466.506 55.18 468.226 55.82C469.986 56.46 471.646 57.4 473.206 58.64C474.766 59.84 475.906 61.24 476.626 62.84C477.786 65.48 478.526 68.82 478.846 72.86C479.166 76.86 479.326 82.26 479.326 89.06ZM452.326 80.84C455.246 80.84 457.926 80.54 460.366 79.94C462.806 79.3 464.206 78.72 464.566 78.2C464.566 77.84 464.566 77.62 464.566 77.54C463.446 76.5 459.606 75.98 453.046 75.98C449.726 75.98 447.346 76.18 445.906 76.58C444.466 76.94 443.746 77.52 443.746 78.32C443.746 80 446.606 80.84 452.326 80.84ZM136.452 100.26H150.432V135H136.452V100.26ZM136.452 90.78H150.432V97.56H136.452V90.78ZM175.781 113.34C179.901 113.34 183.281 113.44 185.921 113.64C188.601 113.84 190.921 114.16 192.881 114.6C194.881 115.04 196.381 115.7 197.381 116.58C198.421 117.46 199.161 118.52 199.601 119.76C200.081 120.96 200.321 122.5 200.321 124.38C200.321 126.02 200.201 127.4 199.961 128.52C199.761 129.6 199.321 130.62 198.641 131.58C197.961 132.5 197.061 133.24 195.941 133.8C194.861 134.36 193.381 134.84 191.501 135.24C189.661 135.64 187.481 135.92 184.961 136.08C182.481 136.24 179.481 136.32 175.961 136.32C163.761 136.32 156.581 135.32 154.421 133.32L158.321 123.36C159.281 124 161.641 124.54 165.401 124.98C169.161 125.38 172.861 125.58 176.501 125.58C177.141 125.58 178.021 125.58 179.141 125.58C182.461 125.58 184.641 125.54 185.681 125.46C186.721 125.34 187.241 125.04 187.241 124.56C187.241 123.24 183.361 122.58 175.601 122.58C172.441 122.58 169.741 122.5 167.501 122.34C165.301 122.14 163.241 121.8 161.321 121.32C159.441 120.84 157.941 120.2 156.821 119.4C155.701 118.56 154.821 117.5 154.181 116.22C153.581 114.9 153.281 113.34 153.281 111.54C153.281 110.22 153.381 109.04 153.581 108C153.821 106.96 154.201 106.06 154.721 105.3C155.241 104.5 155.821 103.82 156.461 103.26C157.101 102.66 157.941 102.16 158.981 101.76C160.061 101.36 161.141 101.04 162.221 100.8C163.341 100.56 164.721 100.38 166.361 100.26C168.001 100.14 169.601 100.06 171.161 100.02C172.721 99.94 174.601 99.9 176.801 99.9C181.681 99.9 185.641 100.06 188.681 100.38C191.761 100.7 193.961 101.08 195.281 101.52C196.641 101.96 198.081 102.58 199.601 103.38L195.281 112.92C193.401 112.24 190.581 111.66 186.821 111.18C183.101 110.66 179.461 110.4 175.901 110.4C175.581 110.4 175.121 110.4 174.521 110.4C171.201 110.4 169.061 110.46 168.101 110.58C167.141 110.7 166.661 111.06 166.661 111.66C166.701 112.78 169.741 113.34 175.781 113.34ZM226.698 123.6C227.698 123.6 228.778 123.54 229.938 123.42C231.098 123.26 232.138 123.08 233.058 122.88C233.978 122.68 234.818 122.48 235.578 122.28C236.378 122.04 236.998 121.86 237.438 121.74C237.918 121.58 238.138 121.5 238.098 121.5L243.078 132.3C242.478 132.54 241.598 132.82 240.438 133.14C239.278 133.42 236.778 133.84 232.938 134.4C229.138 134.92 225.178 135.18 221.058 135.18C219.098 135.18 217.478 135.12 216.198 135C214.958 134.84 213.818 134.52 212.778 134.04C211.738 133.52 210.938 132.9 210.378 132.18C209.818 131.42 209.338 130.34 208.938 128.94C208.538 127.54 208.278 125.96 208.158 124.2C208.038 122.44 207.978 120.2 207.978 117.48V110.52H201.018V100.08H207.978V92.82H221.898V100.08H238.878V110.52H221.898V117.48C221.898 117.56 221.898 117.68 221.898 117.84C221.898 117.96 221.918 118.24 221.958 118.68C221.998 119.12 222.058 119.54 222.138 119.94C222.258 120.3 222.418 120.72 222.618 121.2C222.858 121.68 223.138 122.1 223.458 122.46C223.818 122.78 224.278 123.06 224.838 123.3C225.398 123.5 226.018 123.6 226.698 123.6ZM320.507 107.34C321.467 109.5 322.047 112.28 322.247 115.68C322.487 119.04 322.607 124.56 322.607 132.24V135H308.627V123.54C308.627 123.42 308.627 123.24 308.627 123C308.627 122.24 308.627 121.66 308.627 121.26C308.627 120.82 308.587 120.2 308.507 119.4C308.467 118.6 308.387 117.98 308.267 117.54C308.187 117.06 308.027 116.48 307.787 115.8C307.587 115.08 307.327 114.52 307.007 114.12C306.727 113.68 306.347 113.22 305.867 112.74C305.427 112.26 304.907 111.88 304.307 111.6C303.707 111.32 302.987 111.1 302.147 110.94C301.307 110.74 300.387 110.64 299.387 110.64C296.827 110.64 294.767 111.02 293.207 111.78C291.687 112.5 290.267 113.54 288.947 114.9V135H274.847V100.26H288.947V105.06C290.227 104.14 291.207 103.48 291.887 103.08C292.607 102.64 293.587 102.14 294.827 101.58C296.107 100.98 297.487 100.56 298.967 100.32C300.447 100.08 302.147 99.96 304.067 99.96C305.947 99.96 307.607 100.04 309.047 100.2C310.487 100.36 311.987 100.68 313.547 101.16C315.147 101.64 316.527 102.4 317.687 103.44C318.887 104.48 319.827 105.78 320.507 107.34ZM349.795 100.02C352.755 100.02 355.415 100.16 357.775 100.44C360.135 100.68 362.495 101.2 364.855 102C367.215 102.76 369.175 103.78 370.735 105.06C372.295 106.34 373.555 108.06 374.515 110.22C375.475 112.34 375.955 114.84 375.955 117.72C375.955 121 375.355 123.8 374.155 126.12C372.995 128.44 371.255 130.28 368.935 131.64C366.615 132.96 363.935 133.92 360.895 134.52C357.855 135.08 354.275 135.36 350.155 135.36C345.955 135.36 342.335 135.06 339.295 134.46C336.255 133.86 333.615 132.9 331.375 131.58C329.135 130.22 327.455 128.4 326.335 126.12C325.255 123.8 324.715 121 324.715 117.72C324.715 114.92 325.155 112.46 326.035 110.34C326.955 108.22 328.155 106.52 329.635 105.24C331.115 103.96 332.955 102.92 335.155 102.12C337.355 101.32 339.615 100.78 341.935 100.5C344.295 100.18 346.915 100.02 349.795 100.02ZM350.275 125.52C353.795 125.52 356.475 124.94 358.315 123.78C360.195 122.58 361.135 120.56 361.135 117.72C361.135 116.16 360.775 114.84 360.055 113.76C359.335 112.64 358.375 111.82 357.175 111.3C356.015 110.78 354.855 110.42 353.695 110.22C352.575 109.98 351.375 109.86 350.095 109.86C349.175 109.86 348.255 109.94 347.335 110.1C346.415 110.22 345.475 110.46 344.515 110.82C343.555 111.18 342.715 111.64 341.995 112.2C341.315 112.76 340.735 113.5 340.255 114.42C339.815 115.3 339.595 116.3 339.595 117.42C339.595 120.18 340.455 122.22 342.175 123.54C343.935 124.86 346.635 125.52 350.275 125.52ZM402.329 100.02C406.089 100.02 409.469 100.28 412.469 100.8C415.469 101.32 417.929 102.02 419.849 102.9C421.809 103.74 423.429 104.74 424.709 105.9C426.029 107.06 426.969 108.26 427.529 109.5C428.089 110.7 428.369 111.94 428.369 113.22L414.329 115.32C414.329 115.2 414.269 115.04 414.149 114.84C414.069 114.64 413.789 114.28 413.309 113.76C412.829 113.24 412.229 112.78 411.509 112.38C410.789 111.98 409.689 111.62 408.209 111.3C406.769 110.94 405.109 110.76 403.229 110.76C401.349 110.76 399.709 110.92 398.309 111.24C396.909 111.52 395.829 111.88 395.069 112.32C394.349 112.76 393.769 113.32 393.329 114C392.889 114.64 392.609 115.24 392.489 115.8C392.369 116.32 392.309 116.94 392.309 117.66C392.309 118.22 392.349 118.74 392.429 119.22C392.509 119.66 392.669 120.18 392.909 120.78C393.149 121.34 393.529 121.84 394.049 122.28C394.569 122.72 395.209 123.14 395.969 123.54C396.729 123.9 397.729 124.18 398.969 124.38C400.209 124.58 401.629 124.68 403.229 124.68C404.669 124.68 405.969 124.6 407.129 124.44C408.329 124.28 409.289 124.08 410.009 123.84C410.769 123.56 411.429 123.26 411.989 122.94C412.589 122.62 413.029 122.3 413.309 121.98C413.629 121.66 413.869 121.38 414.029 121.14C414.229 120.86 414.349 120.64 414.389 120.48L414.449 120.24L428.369 122.16C428.369 123.52 428.109 124.82 427.589 126.06C427.109 127.26 426.229 128.44 424.949 129.6C423.709 130.76 422.129 131.76 420.209 132.6C418.329 133.44 415.889 134.12 412.889 134.64C409.889 135.12 406.489 135.36 402.689 135.36C398.969 135.36 395.669 135.06 392.789 134.46C389.949 133.86 387.609 133.06 385.769 132.06C383.969 131.02 382.469 129.74 381.269 128.22C380.109 126.7 379.289 125.1 378.809 123.42C378.329 121.7 378.089 119.8 378.089 117.72C378.089 112.12 380.049 107.78 383.969 104.7C387.889 101.58 394.009 100.02 402.329 100.02ZM477.216 107.04C478.096 109.24 478.656 112.18 478.896 115.86C479.176 119.54 479.316 125 479.316 132.24V135H465.336V123.54C465.336 123.46 465.336 123.3 465.336 123.06C465.336 122.3 465.336 121.72 465.336 121.32C465.336 120.88 465.316 120.26 465.276 119.46C465.236 118.66 465.156 118.04 465.036 117.6C464.956 117.12 464.816 116.54 464.616 115.86C464.416 115.14 464.176 114.58 463.896 114.18C463.616 113.74 463.256 113.28 462.816 112.8C462.376 112.28 461.876 111.9 461.316 111.66C460.756 111.38 460.076 111.16 459.276 111C458.516 110.8 457.676 110.7 456.756 110.7C451.076 110.7 446.916 111.94 444.276 114.42V135H430.296V93H444.276V105.18C448.756 101.74 454.176 100.02 460.536 100.02C462.016 100.02 463.296 100.06 464.376 100.14C465.496 100.18 466.776 100.34 468.216 100.62C469.656 100.9 470.896 101.28 471.936 101.76C473.016 102.24 474.036 102.94 474.996 103.86C475.956 104.74 476.696 105.8 477.216 107.04ZM190.278 153.34C190.878 154.82 191.318 156.84 191.598 159.4C191.918 161.92 192.098 164.36 192.138 166.72C192.178 169.08 192.198 172.94 192.198 178.3V181H178.218V169.42C178.218 168.94 178.238 168.28 178.278 167.44C178.318 166.56 178.338 165.84 178.338 165.28C178.378 164.68 178.358 163.98 178.278 163.18C178.238 162.34 178.138 161.66 177.978 161.14C177.818 160.58 177.558 160 177.198 159.4C176.878 158.76 176.438 158.26 175.878 157.9C175.358 157.54 174.678 157.24 173.838 157C173.038 156.76 172.078 156.64 170.958 156.64C168.958 156.64 166.978 157.12 165.018 158.08C163.058 159 161.598 160.06 160.638 161.26C160.838 164.1 160.938 169.78 160.938 178.3V181H147.138V169.42C147.138 168.98 147.158 168.32 147.198 167.44C147.238 166.52 147.258 165.78 147.258 165.22C147.258 164.66 147.218 163.96 147.138 163.12C147.098 162.28 146.998 161.6 146.838 161.08C146.678 160.56 146.418 160 146.058 159.4C145.698 158.76 145.238 158.26 144.678 157.9C144.158 157.54 143.478 157.24 142.638 157C141.798 156.76 140.838 156.64 139.758 156.64C135.558 156.64 132.318 158.26 130.038 161.5V181H116.058V146.26H130.038V150.52C132.198 149.04 134.358 147.92 136.518 147.16C138.678 146.36 141.338 145.96 144.498 145.96C147.818 145.96 150.618 146.38 152.898 147.22C155.218 148.02 157.038 149.6 158.358 151.96C163.038 147.96 168.838 145.96 175.758 145.96C177.118 145.96 178.318 146.02 179.358 146.14C180.398 146.22 181.498 146.42 182.658 146.74C183.858 147.02 184.898 147.42 185.778 147.94C186.658 148.46 187.498 149.18 188.298 150.1C189.098 150.98 189.758 152.06 190.278 153.34ZM220.128 145.42C224.248 145.42 227.828 145.78 230.868 146.5C233.908 147.22 236.548 148.4 238.788 150.04C241.028 151.68 242.668 153.92 243.708 156.76C244.748 159.56 245.108 162.94 244.788 166.9H209.148C209.348 167.98 210.328 168.86 212.088 169.54C213.848 170.22 216.488 170.56 220.008 170.56C223.088 170.56 226.148 170.36 229.188 169.96C232.268 169.56 234.588 169.16 236.148 168.76L238.428 168.16L244.428 177.88C244.308 177.96 244.088 178.08 243.768 178.24C243.448 178.36 242.628 178.6 241.308 178.96C240.028 179.32 238.568 179.64 236.928 179.92C235.288 180.2 233.008 180.46 230.088 180.7C227.168 180.9 223.968 181 220.488 181C216.408 181 212.848 180.72 209.808 180.16C206.808 179.6 204.348 178.82 202.428 177.82C200.548 176.82 199.028 175.56 197.868 174.04C196.708 172.52 195.908 170.9 195.468 169.18C195.028 167.46 194.808 165.46 194.808 163.18C194.808 157.58 196.928 153.22 201.168 150.1C205.448 146.98 211.768 145.42 220.128 145.42ZM220.248 156.16C218.048 156.16 216.168 156.32 214.608 156.64C213.048 156.96 211.908 157.38 211.188 157.9C210.468 158.38 209.948 158.86 209.628 159.34C209.308 159.82 209.148 160.3 209.148 160.78H230.628C230.628 159.46 229.828 158.36 228.228 157.48C226.668 156.6 224.008 156.16 220.248 156.16ZM295.048 153.04C295.928 155.24 296.488 158.18 296.728 161.86C297.008 165.54 297.148 171 297.148 178.24V181H283.168V169.54C283.168 169.46 283.168 169.3 283.168 169.06C283.168 168.3 283.168 167.72 283.168 167.32C283.168 166.88 283.148 166.26 283.108 165.46C283.068 164.66 282.988 164.04 282.868 163.6C282.788 163.12 282.648 162.54 282.448 161.86C282.248 161.14 282.008 160.58 281.728 160.18C281.448 159.74 281.088 159.28 280.648 158.8C280.208 158.28 279.708 157.9 279.148 157.66C278.588 157.38 277.908 157.16 277.108 157C276.348 156.8 275.508 156.7 274.588 156.7C268.908 156.7 264.748 157.94 262.108 160.42V181H248.128V139H262.108V151.18C266.588 147.74 272.008 146.02 278.368 146.02C279.848 146.02 281.128 146.06 282.208 146.14C283.328 146.18 284.608 146.34 286.048 146.62C287.488 146.9 288.728 147.28 289.768 147.76C290.848 148.24 291.868 148.94 292.828 149.86C293.788 150.74 294.528 151.8 295.048 153.04ZM329.192 146.26C334.872 146.26 339.452 147.4 342.932 149.68C343.212 149.84 343.372 149.94 343.412 149.98L338.192 160.66C337.832 160.46 337.312 160.22 336.632 159.94C335.952 159.62 334.672 159.2 332.792 158.68C330.912 158.16 329.132 157.84 327.452 157.72C325.972 157.64 324.572 157.72 323.252 157.96C321.932 158.2 320.892 158.46 320.132 158.74C319.372 158.98 318.512 159.44 317.552 160.12C316.632 160.76 316.052 161.2 315.812 161.44C315.612 161.64 315.152 162.08 314.432 162.76V181H300.452V146.2H301.472H314.432V151.06C316.992 147.86 321.912 146.26 329.192 146.26ZM404.198 181H375.218V139H404.018C406.738 139 409.158 139.16 411.278 139.48C413.398 139.76 415.538 140.36 417.698 141.28C419.858 142.16 421.658 143.36 423.098 144.88C424.538 146.36 425.698 148.38 426.578 150.94C427.498 153.5 427.958 156.52 427.958 160C427.958 163.12 427.478 165.92 426.518 168.4C425.558 170.88 424.298 172.9 422.738 174.46C421.178 175.98 419.338 177.26 417.218 178.3C415.098 179.3 412.958 180 410.798 180.4C408.678 180.8 406.478 181 404.198 181ZM403.238 169.54C405.438 169.54 407.318 169.12 408.878 168.28C410.438 167.4 411.578 166.26 412.298 164.86C413.018 163.46 413.378 161.86 413.378 160.06C413.378 157.18 412.558 154.88 410.918 153.16C409.318 151.4 406.758 150.52 403.238 150.52H389.198V169.54H403.238ZM479.326 181.06H465.526C465.526 180.06 465.506 179 465.466 177.88C461.226 180.4 456.326 181.66 450.766 181.66C449.126 181.66 447.726 181.64 446.566 181.6C445.446 181.56 444.046 181.46 442.366 181.3C440.686 181.14 439.266 180.92 438.106 180.64C436.946 180.36 435.726 179.94 434.446 179.38C433.166 178.82 432.126 178.16 431.326 177.4C430.526 176.6 429.866 175.6 429.346 174.4C428.826 173.16 428.566 171.8 428.566 170.32C428.566 168.44 429.166 166.82 430.366 165.46C431.606 164.06 433.286 162.96 435.406 162.16C437.526 161.36 439.846 160.78 442.366 160.42C444.886 160.02 447.606 159.82 450.526 159.82C455.486 159.82 459.966 160.56 463.966 162.04C463.166 159.64 461.806 158.08 459.886 157.36C458.006 156.6 455.006 156.22 450.886 156.22C447.526 156.22 444.286 156.46 441.166 156.94C438.086 157.38 436.106 157.74 435.226 158.02C434.386 158.26 433.666 158.48 433.066 158.68L429.946 149.2C436.746 146.68 444.006 145.42 451.726 145.42C453.406 145.42 455.046 145.48 456.646 145.6C458.246 145.68 460.146 145.92 462.346 146.32C464.546 146.68 466.506 147.18 468.226 147.82C469.986 148.46 471.646 149.4 473.206 150.64C474.766 151.84 475.906 153.24 476.626 154.84C477.786 157.48 478.526 160.82 478.846 164.86C479.166 168.86 479.326 174.26 479.326 181.06ZM452.326 172.84C455.246 172.84 457.926 172.54 460.366 171.94C462.806 171.3 464.206 170.72 464.566 170.2C464.566 169.84 464.566 169.62 464.566 169.54C463.446 168.5 459.606 167.98 453.046 167.98C449.726 167.98 447.346 168.18 445.906 168.58C444.466 168.94 443.746 169.52 443.746 170.32C443.746 172 446.606 172.84 452.326 172.84ZM136.452 192.26H150.432V227H136.452V192.26ZM136.452 182.78H150.432V189.56H136.452V182.78ZM175.781 205.34C179.901 205.34 183.281 205.44 185.921 205.64C188.601 205.84 190.921 206.16 192.881 206.6C194.881 207.04 196.381 207.7 197.381 208.58C198.421 209.46 199.161 210.52 199.601 211.76C200.081 212.96 200.321 214.5 200.321 216.38C200.321 218.02 200.201 219.4 199.961 220.52C199.761 221.6 199.321 222.62 198.641 223.58C197.961 224.5 197.061 225.24 195.941 225.8C194.861 226.36 193.381 226.84 191.501 227.24C189.661 227.64 187.481 227.92 184.961 228.08C182.481 228.24 179.481 228.32 175.961 228.32C163.761 228.32 156.581 227.32 154.421 225.32L158.321 215.36C159.281 216 161.641 216.54 165.401 216.98C169.161 217.38 172.861 217.58 176.501 217.58C177.141 217.58 178.021 217.58 179.141 217.58C182.461 217.58 184.641 217.54 185.681 217.46C186.721 217.34 187.241 217.04 187.241 216.56C187.241 215.24 183.361 214.58 175.601 214.58C172.441 214.58 169.741 214.5 167.501 214.34C165.301 214.14 163.241 213.8 161.321 213.32C159.441 212.84 157.941 212.2 156.821 211.4C155.701 210.56 154.821 209.5 154.181 208.22C153.581 206.9 153.281 205.34 153.281 203.54C153.281 202.22 153.381 201.04 153.581 200C153.821 198.96 154.201 198.06 154.721 197.3C155.241 196.5 155.821 195.82 156.461 195.26C157.101 194.66 157.941 194.16 158.981 193.76C160.061 193.36 161.141 193.04 162.221 192.8C163.341 192.56 164.721 192.38 166.361 192.26C168.001 192.14 169.601 192.06 171.161 192.02C172.721 191.94 174.601 191.9 176.801 191.9C181.681 191.9 185.641 192.06 188.681 192.38C191.761 192.7 193.961 193.08 195.281 193.52C196.641 193.96 198.081 194.58 199.601 195.38L195.281 204.92C193.401 204.24 190.581 203.66 186.821 203.18C183.101 202.66 179.461 202.4 175.901 202.4C175.581 202.4 175.121 202.4 174.521 202.4C171.201 202.4 169.061 202.46 168.101 202.58C167.141 202.7 166.661 203.06 166.661 203.66C166.701 204.78 169.741 205.34 175.781 205.34ZM226.698 215.6C227.698 215.6 228.778 215.54 229.938 215.42C231.098 215.26 232.138 215.08 233.058 214.88C233.978 214.68 234.818 214.48 235.578 214.28C236.378 214.04 236.998 213.86 237.438 213.74C237.918 213.58 238.138 213.5 238.098 213.5L243.078 224.3C242.478 224.54 241.598 224.82 240.438 225.14C239.278 225.42 236.778 225.84 232.938 226.4C229.138 226.92 225.178 227.18 221.058 227.18C219.098 227.18 217.478 227.12 216.198 227C214.958 226.84 213.818 226.52 212.778 226.04C211.738 225.52 210.938 224.9 210.378 224.18C209.818 223.42 209.338 222.34 208.938 220.94C208.538 219.54 208.278 217.96 208.158 216.2C208.038 214.44 207.978 212.2 207.978 209.48V202.52H201.018V192.08H207.978V184.82H221.898V192.08H238.878V202.52H221.898V209.48C221.898 209.56 221.898 209.68 221.898 209.84C221.898 209.96 221.918 210.24 221.958 210.68C221.998 211.12 222.058 211.54 222.138 211.94C222.258 212.3 222.418 212.72 222.618 213.2C222.858 213.68 223.138 214.1 223.458 214.46C223.818 214.78 224.278 215.06 224.838 215.3C225.398 215.5 226.018 215.6 226.698 215.6ZM320.507 199.34C321.467 201.5 322.047 204.28 322.247 207.68C322.487 211.04 322.607 216.56 322.607 224.24V227H308.627V215.54C308.627 215.42 308.627 215.24 308.627 215C308.627 214.24 308.627 213.66 308.627 213.26C308.627 212.82 308.587 212.2 308.507 211.4C308.467 210.6 308.387 209.98 308.267 209.54C308.187 209.06 308.027 208.48 307.787 207.8C307.587 207.08 307.327 206.52 307.007 206.12C306.727 205.68 306.347 205.22 305.867 204.74C305.427 204.26 304.907 203.88 304.307 203.6C303.707 203.32 302.987 203.1 302.147 202.94C301.307 202.74 300.387 202.64 299.387 202.64C296.827 202.64 294.767 203.02 293.207 203.78C291.687 204.5 290.267 205.54 288.947 206.9V227H274.847V192.26H288.947V197.06C290.227 196.14 291.207 195.48 291.887 195.08C292.607 194.64 293.587 194.14 294.827 193.58C296.107 192.98 297.487 192.56 298.967 192.32C300.447 192.08 302.147 191.96 304.067 191.96C305.947 191.96 307.607 192.04 309.047 192.2C310.487 192.36 311.987 192.68 313.547 193.16C315.147 193.64 316.527 194.4 317.687 195.44C318.887 196.48 319.827 197.78 320.507 199.34ZM349.795 192.02C352.755 192.02 355.415 192.16 357.775 192.44C360.135 192.68 362.495 193.2 364.855 194C367.215 194.76 369.175 195.78 370.735 197.06C372.295 198.34 373.555 200.06 374.515 202.22C375.475 204.34 375.955 206.84 375.955 209.72C375.955 213 375.355 215.8 374.155 218.12C372.995 220.44 371.255 222.28 368.935 223.64C366.615 224.96 363.935 225.92 360.895 226.52C357.855 227.08 354.275 227.36 350.155 227.36C345.955 227.36 342.335 227.06 339.295 226.46C336.255 225.86 333.615 224.9 331.375 223.58C329.135 222.22 327.455 220.4 326.335 218.12C325.255 215.8 324.715 213 324.715 209.72C324.715 206.92 325.155 204.46 326.035 202.34C326.955 200.22 328.155 198.52 329.635 197.24C331.115 195.96 332.955 194.92 335.155 194.12C337.355 193.32 339.615 192.78 341.935 192.5C344.295 192.18 346.915 192.02 349.795 192.02ZM350.275 217.52C353.795 217.52 356.475 216.94 358.315 215.78C360.195 214.58 361.135 212.56 361.135 209.72C361.135 208.16 360.775 206.84 360.055 205.76C359.335 204.64 358.375 203.82 357.175 203.3C356.015 202.78 354.855 202.42 353.695 202.22C352.575 201.98 351.375 201.86 350.095 201.86C349.175 201.86 348.255 201.94 347.335 202.1C346.415 202.22 345.475 202.46 344.515 202.82C343.555 203.18 342.715 203.64 341.995 204.2C341.315 204.76 340.735 205.5 340.255 206.42C339.815 207.3 339.595 208.3 339.595 209.42C339.595 212.18 340.455 214.22 342.175 215.54C343.935 216.86 346.635 217.52 350.275 217.52ZM402.329 192.02C406.089 192.02 409.469 192.28 412.469 192.8C415.469 193.32 417.929 194.02 419.849 194.9C421.809 195.74 423.429 196.74 424.709 197.9C426.029 199.06 426.969 200.26 427.529 201.5C428.089 202.7 428.369 203.94 428.369 205.22L414.329 207.32C414.329 207.2 414.269 207.04 414.149 206.84C414.069 206.64 413.789 206.28 413.309 205.76C412.829 205.24 412.229 204.78 411.509 204.38C410.789 203.98 409.689 203.62 408.209 203.3C406.769 202.94 405.109 202.76 403.229 202.76C401.349 202.76 399.709 202.92 398.309 203.24C396.909 203.52 395.829 203.88 395.069 204.32C394.349 204.76 393.769 205.32 393.329 206C392.889 206.64 392.609 207.24 392.489 207.8C392.369 208.32 392.309 208.94 392.309 209.66C392.309 210.22 392.349 210.74 392.429 211.22C392.509 211.66 392.669 212.18 392.909 212.78C393.149 213.34 393.529 213.84 394.049 214.28C394.569 214.72 395.209 215.14 395.969 215.54C396.729 215.9 397.729 216.18 398.969 216.38C400.209 216.58 401.629 216.68 403.229 216.68C404.669 216.68 405.969 216.6 407.129 216.44C408.329 216.28 409.289 216.08 410.009 215.84C410.769 215.56 411.429 215.26 411.989 214.94C412.589 214.62 413.029 214.3 413.309 213.98C413.629 213.66 413.869 213.38 414.029 213.14C414.229 212.86 414.349 212.64 414.389 212.48L414.449 212.24L428.369 214.16C428.369 215.52 428.109 216.82 427.589 218.06C427.109 219.26 426.229 220.44 424.949 221.6C423.709 222.76 422.129 223.76 420.209 224.6C418.329 225.44 415.889 226.12 412.889 226.64C409.889 227.12 406.489 227.36 402.689 227.36C398.969 227.36 395.669 227.06 392.789 226.46C389.949 225.86 387.609 225.06 385.769 224.06C383.969 223.02 382.469 221.74 381.269 220.22C380.109 218.7 379.289 217.1 378.809 215.42C378.329 213.7 378.089 211.8 378.089 209.72C378.089 204.12 380.049 199.78 383.969 196.7C387.889 193.58 394.009 192.02 402.329 192.02ZM477.216 199.04C478.096 201.24 478.656 204.18 478.896 207.86C479.176 211.54 479.316 217 479.316 224.24V227H465.336V215.54C465.336 215.46 465.336 215.3 465.336 215.06C465.336 214.3 465.336 213.72 465.336 213.32C465.336 212.88 465.316 212.26 465.276 211.46C465.236 210.66 465.156 210.04 465.036 209.6C464.956 209.12 464.816 208.54 464.616 207.86C464.416 207.14 464.176 206.58 463.896 206.18C463.616 205.74 463.256 205.28 462.816 204.8C462.376 204.28 461.876 203.9 461.316 203.66C460.756 203.38 460.076 203.16 459.276 203C458.516 202.8 457.676 202.7 456.756 202.7C451.076 202.7 446.916 203.94 444.276 206.42V227H430.296V185H444.276V197.18C448.756 193.74 454.176 192.02 460.536 192.02C462.016 192.02 463.296 192.06 464.376 192.14C465.496 192.18 466.776 192.34 468.216 192.62C469.656 192.9 470.896 193.28 471.936 193.76C473.016 194.24 474.036 194.94 474.996 195.86C475.956 196.74 476.696 197.8 477.216 199.04ZM190.278 245.34C190.878 246.82 191.318 248.84 191.598 251.4C191.918 253.92 192.098 256.36 192.138 258.72C192.178 261.08 192.198 264.94 192.198 270.3V273H178.218V261.42C178.218 260.94 178.238 260.28 178.278 259.44C178.318 258.56 178.338 257.84 178.338 257.28C178.378 256.68 178.358 255.98 178.278 255.18C178.238 254.34 178.138 253.66 177.978 253.14C177.818 252.58 177.558 252 177.198 251.4C176.878 250.76 176.438 250.26 175.878 249.9C175.358 249.54 174.678 249.24 173.838 249C173.038 248.76 172.078 248.64 170.958 248.64C168.958 248.64 166.978 249.12 165.018 250.08C163.058 251 161.598 252.06 160.638 253.26C160.838 256.1 160.938 261.78 160.938 270.3V273H147.138V261.42C147.138 260.98 147.158 260.32 147.198 259.44C147.238 258.52 147.258 257.78 147.258 257.22C147.258 256.66 147.218 255.96 147.138 255.12C147.098 254.28 146.998 253.6 146.838 253.08C146.678 252.56 146.418 252 146.058 251.4C145.698 250.76 145.238 250.26 144.678 249.9C144.158 249.54 143.478 249.24 142.638 249C141.798 248.76 140.838 248.64 139.758 248.64C135.558 248.64 132.318 250.26 130.038 253.5V273H116.058V238.26H130.038V242.52C132.198 241.04 134.358 239.92 136.518 239.16C138.678 238.36 141.338 237.96 144.498 237.96C147.818 237.96 150.618 238.38 152.898 239.22C155.218 240.02 157.038 241.6 158.358 243.96C163.038 239.96 168.838 237.96 175.758 237.96C177.118 237.96 178.318 238.02 179.358 238.14C180.398 238.22 181.498 238.42 182.658 238.74C183.858 239.02 184.898 239.42 185.778 239.94C186.658 240.46 187.498 241.18 188.298 242.1C189.098 242.98 189.758 244.06 190.278 245.34ZM220.128 237.42C224.248 237.42 227.828 237.78 230.868 238.5C233.908 239.22 236.548 240.4 238.788 242.04C241.028 243.68 242.668 245.92 243.708 248.76C244.748 251.56 245.108 254.94 244.788 258.9H209.148C209.348 259.98 210.328 260.86 212.088 261.54C213.848 262.22 216.488 262.56 220.008 262.56C223.088 262.56 226.148 262.36 229.188 261.96C232.268 261.56 234.588 261.16 236.148 260.76L238.428 260.16L244.428 269.88C244.308 269.96 244.088 270.08 243.768 270.24C243.448 270.36 242.628 270.6 241.308 270.96C240.028 271.32 238.568 271.64 236.928 271.92C235.288 272.2 233.008 272.46 230.088 272.7C227.168 272.9 223.968 273 220.488 273C216.408 273 212.848 272.72 209.808 272.16C206.808 271.6 204.348 270.82 202.428 269.82C200.548 268.82 199.028 267.56 197.868 266.04C196.708 264.52 195.908 262.9 195.468 261.18C195.028 259.46 194.808 257.46 194.808 255.18C194.808 249.58 196.928 245.22 201.168 242.1C205.448 238.98 211.768 237.42 220.128 237.42ZM220.248 248.16C218.048 248.16 216.168 248.32 214.608 248.64C213.048 248.96 211.908 249.38 211.188 249.9C210.468 250.38 209.948 250.86 209.628 251.34C209.308 251.82 209.148 252.3 209.148 252.78H230.628C230.628 251.46 229.828 250.36 228.228 249.48C226.668 248.6 224.008 248.16 220.248 248.16ZM295.048 245.04C295.928 247.24 296.488 250.18 296.728 253.86C297.008 257.54 297.148 263 297.148 270.24V273H283.168V261.54C283.168 261.46 283.168 261.3 283.168 261.06C283.168 260.3 283.168 259.72 283.168 259.32C283.168 258.88 283.148 258.26 283.108 257.46C283.068 256.66 282.988 256.04 282.868 255.6C282.788 255.12 282.648 254.54 282.448 253.86C282.248 253.14 282.008 252.58 281.728 252.18C281.448 251.74 281.088 251.28 280.648 250.8C280.208 250.28 279.708 249.9 279.148 249.66C278.588 249.38 277.908 249.16 277.108 249C276.348 248.8 275.508 248.7 274.588 248.7C268.908 248.7 264.748 249.94 262.108 252.42V273H248.128V231H262.108V243.18C266.588 239.74 272.008 238.02 278.368 238.02C279.848 238.02 281.128 238.06 282.208 238.14C283.328 238.18 284.608 238.34 286.048 238.62C287.488 238.9 288.728 239.28 289.768 239.76C290.848 240.24 291.868 240.94 292.828 241.86C293.788 242.74 294.528 243.8 295.048 245.04ZM329.192 238.26C334.872 238.26 339.452 239.4 342.932 241.68C343.212 241.84 343.372 241.94 343.412 241.98L338.192 252.66C337.832 252.46 337.312 252.22 336.632 251.94C335.952 251.62 334.672 251.2 332.792 250.68C330.912 250.16 329.132 249.84 327.452 249.72C325.972 249.64 324.572 249.72 323.252 249.96C321.932 250.2 320.892 250.46 320.132 250.74C319.372 250.98 318.512 251.44 317.552 252.12C316.632 252.76 316.052 253.2 315.812 253.44C315.612 253.64 315.152 254.08 314.432 254.76V273H300.452V238.2H301.472H314.432V243.06C316.992 239.86 321.912 238.26 329.192 238.26ZM404.198 273H375.218V231H404.018C406.738 231 409.158 231.16 411.278 231.48C413.398 231.76 415.538 232.36 417.698 233.28C419.858 234.16 421.658 235.36 423.098 236.88C424.538 238.36 425.698 240.38 426.578 242.94C427.498 245.5 427.958 248.52 427.958 252C427.958 255.12 427.478 257.92 426.518 260.4C425.558 262.88 424.298 264.9 422.738 266.46C421.178 267.98 419.338 269.26 417.218 270.3C415.098 271.3 412.958 272 410.798 272.4C408.678 272.8 406.478 273 404.198 273ZM403.238 261.54C405.438 261.54 407.318 261.12 408.878 260.28C410.438 259.4 411.578 258.26 412.298 256.86C413.018 255.46 413.378 253.86 413.378 252.06C413.378 249.18 412.558 246.88 410.918 245.16C409.318 243.4 406.758 242.52 403.238 242.52H389.198V261.54H403.238ZM479.326 273.06H465.526C465.526 272.06 465.506 271 465.466 269.88C461.226 272.4 456.326 273.66 450.766 273.66C449.126 273.66 447.726 273.64 446.566 273.6C445.446 273.56 444.046 273.46 442.366 273.3C440.686 273.14 439.266 272.92 438.106 272.64C436.946 272.36 435.726 271.94 434.446 271.38C433.166 270.82 432.126 270.16 431.326 269.4C430.526 268.6 429.866 267.6 429.346 266.4C428.826 265.16 428.566 263.8 428.566 262.32C428.566 260.44 429.166 258.82 430.366 257.46C431.606 256.06 433.286 254.96 435.406 254.16C437.526 253.36 439.846 252.78 442.366 252.42C444.886 252.02 447.606 251.82 450.526 251.82C455.486 251.82 459.966 252.56 463.966 254.04C463.166 251.64 461.806 250.08 459.886 249.36C458.006 248.6 455.006 248.22 450.886 248.22C447.526 248.22 444.286 248.46 441.166 248.94C438.086 249.38 436.106 249.74 435.226 250.02C434.386 250.26 433.666 250.48 433.066 250.68L429.946 241.2C436.746 238.68 444.006 237.42 451.726 237.42C453.406 237.42 455.046 237.48 456.646 237.6C458.246 237.68 460.146 237.92 462.346 238.32C464.546 238.68 466.506 239.18 468.226 239.82C469.986 240.46 471.646 241.4 473.206 242.64C474.766 243.84 475.906 245.24 476.626 246.84C477.786 249.48 478.526 252.82 478.846 256.86C479.166 260.86 479.326 266.26 479.326 273.06ZM452.326 264.84C455.246 264.84 457.926 264.54 460.366 263.94C462.806 263.3 464.206 262.72 464.566 262.2C464.566 261.84 464.566 261.62 464.566 261.54C463.446 260.5 459.606 259.98 453.046 259.98C449.726 259.98 447.346 260.18 445.906 260.58C444.466 260.94 443.746 261.52 443.746 262.32C443.746 264 446.606 264.84 452.326 264.84ZM136.452 284.26H150.432V319H136.452V284.26ZM136.452 274.78H150.432V281.56H136.452V274.78ZM175.781 297.34C179.901 297.34 183.281 297.44 185.921 297.64C188.601 297.84 190.921 298.16 192.881 298.6C194.881 299.04 196.381 299.7 197.381 300.58C198.421 301.46 199.161 302.52 199.601 303.76C200.081 304.96 200.321 306.5 200.321 308.38C200.321 310.02 200.201 311.4 199.961 312.52C199.761 313.6 199.321 314.62 198.641 315.58C197.961 316.5 197.061 317.24 195.941 317.8C194.861 318.36 193.381 318.84 191.501 319.24C189.661 319.64 187.481 319.92 184.961 320.08C182.481 320.24 179.481 320.32 175.961 320.32C163.761 320.32 156.581 319.32 154.421 317.32L158.321 307.36C159.281 308 161.641 308.54 165.401 308.98C169.161 309.38 172.861 309.58 176.501 309.58C177.141 309.58 178.021 309.58 179.141 309.58C182.461 309.58 184.641 309.54 185.681 309.46C186.721 309.34 187.241 309.04 187.241 308.56C187.241 307.24 183.361 306.58 175.601 306.58C172.441 306.58 169.741 306.5 167.501 306.34C165.301 306.14 163.241 305.8 161.321 305.32C159.441 304.84 157.941 304.2 156.821 303.4C155.701 302.56 154.821 301.5 154.181 300.22C153.581 298.9 153.281 297.34 153.281 295.54C153.281 294.22 153.381 293.04 153.581 292C153.821 290.96 154.201 290.06 154.721 289.3C155.241 288.5 155.821 287.82 156.461 287.26C157.101 286.66 157.941 286.16 158.981 285.76C160.061 285.36 161.141 285.04 162.221 284.8C163.341 284.56 164.721 284.38 166.361 284.26C168.001 284.14 169.601 284.06 171.161 284.02C172.721 283.94 174.601 283.9 176.801 283.9C181.681 283.9 185.641 284.06 188.681 284.38C191.761 284.7 193.961 285.08 195.281 285.52C196.641 285.96 198.081 286.58 199.601 287.38L195.281 296.92C193.401 296.24 190.581 295.66 186.821 295.18C183.101 294.66 179.461 294.4 175.901 294.4C175.581 294.4 175.121 294.4 174.521 294.4C171.201 294.4 169.061 294.46 168.101 294.58C167.141 294.7 166.661 295.06 166.661 295.66C166.701 296.78 169.741 297.34 175.781 297.34ZM226.698 307.6C227.698 307.6 228.778 307.54 229.938 307.42C231.098 307.26 232.138 307.08 233.058 306.88C233.978 306.68 234.818 306.48 235.578 306.28C236.378 306.04 236.998 305.86 237.438 305.74C237.918 305.58 238.138 305.5 238.098 305.5L243.078 316.3C242.478 316.54 241.598 316.82 240.438 317.14C239.278 317.42 236.778 317.84 232.938 318.4C229.138 318.92 225.178 319.18 221.058 319.18C219.098 319.18 217.478 319.12 216.198 319C214.958 318.84 213.818 318.52 212.778 318.04C211.738 317.52 210.938 316.9 210.378 316.18C209.818 315.42 209.338 314.34 208.938 312.94C208.538 311.54 208.278 309.96 208.158 308.2C208.038 306.44 207.978 304.2 207.978 301.48V294.52H201.018V284.08H207.978V276.82H221.898V284.08H238.878V294.52H221.898V301.48C221.898 301.56 221.898 301.68 221.898 301.84C221.898 301.96 221.918 302.24 221.958 302.68C221.998 303.12 222.058 303.54 222.138 303.94C222.258 304.3 222.418 304.72 222.618 305.2C222.858 305.68 223.138 306.1 223.458 306.46C223.818 306.78 224.278 307.06 224.838 307.3C225.398 307.5 226.018 307.6 226.698 307.6ZM320.507 291.34C321.467 293.5 322.047 296.28 322.247 299.68C322.487 303.04 322.607 308.56 322.607 316.24V319H308.627V307.54C308.627 307.42 308.627 307.24 308.627 307C308.627 306.24 308.627 305.66 308.627 305.26C308.627 304.82 308.587 304.2 308.507 303.4C308.467 302.6 308.387 301.98 308.267 301.54C308.187 301.06 308.027 300.48 307.787 299.8C307.587 299.08 307.327 298.52 307.007 298.12C306.727 297.68 306.347 297.22 305.867 296.74C305.427 296.26 304.907 295.88 304.307 295.6C303.707 295.32 302.987 295.1 302.147 294.94C301.307 294.74 300.387 294.64 299.387 294.64C296.827 294.64 294.767 295.02 293.207 295.78C291.687 296.5 290.267 297.54 288.947 298.9V319H274.847V284.26H288.947V289.06C290.227 288.14 291.207 287.48 291.887 287.08C292.607 286.64 293.587 286.14 294.827 285.58C296.107 284.98 297.487 284.56 298.967 284.32C300.447 284.08 302.147 283.96 304.067 283.96C305.947 283.96 307.607 284.04 309.047 284.2C310.487 284.36 311.987 284.68 313.547 285.16C315.147 285.64 316.527 286.4 317.687 287.44C318.887 288.48 319.827 289.78 320.507 291.34ZM349.795 284.02C352.755 284.02 355.415 284.16 357.775 284.44C360.135 284.68 362.495 285.2 364.855 286C367.215 286.76 369.175 287.78 370.735 289.06C372.295 290.34 373.555 292.06 374.515 294.22C375.475 296.34 375.955 298.84 375.955 301.72C375.955 305 375.355 307.8 374.155 310.12C372.995 312.44 371.255 314.28 368.935 315.64C366.615 316.96 363.935 317.92 360.895 318.52C357.855 319.08 354.275 319.36 350.155 319.36C345.955 319.36 342.335 319.06 339.295 318.46C336.255 317.86 333.615 316.9 331.375 315.58C329.135 314.22 327.455 312.4 326.335 310.12C325.255 307.8 324.715 305 324.715 301.72C324.715 298.92 325.155 296.46 326.035 294.34C326.955 292.22 328.155 290.52 329.635 289.24C331.115 287.96 332.955 286.92 335.155 286.12C337.355 285.32 339.615 284.78 341.935 284.5C344.295 284.18 346.915 284.02 349.795 284.02ZM350.275 309.52C353.795 309.52 356.475 308.94 358.315 307.78C360.195 306.58 361.135 304.56 361.135 301.72C361.135 300.16 360.775 298.84 360.055 297.76C359.335 296.64 358.375 295.82 357.175 295.3C356.015 294.78 354.855 294.42 353.695 294.22C352.575 293.98 351.375 293.86 350.095 293.86C349.175 293.86 348.255 293.94 347.335 294.1C346.415 294.22 345.475 294.46 344.515 294.82C343.555 295.18 342.715 295.64 341.995 296.2C341.315 296.76 340.735 297.5 340.255 298.42C339.815 299.3 339.595 300.3 339.595 301.42C339.595 304.18 340.455 306.22 342.175 307.54C343.935 308.86 346.635 309.52 350.275 309.52ZM402.329 284.02C406.089 284.02 409.469 284.28 412.469 284.8C415.469 285.32 417.929 286.02 419.849 286.9C421.809 287.74 423.429 288.74 424.709 289.9C426.029 291.06 426.969 292.26 427.529 293.5C428.089 294.7 428.369 295.94 428.369 297.22L414.329 299.32C414.329 299.2 414.269 299.04 414.149 298.84C414.069 298.64 413.789 298.28 413.309 297.76C412.829 297.24 412.229 296.78 411.509 296.38C410.789 295.98 409.689 295.62 408.209 295.3C406.769 294.94 405.109 294.76 403.229 294.76C401.349 294.76 399.709 294.92 398.309 295.24C396.909 295.52 395.829 295.88 395.069 296.32C394.349 296.76 393.769 297.32 393.329 298C392.889 298.64 392.609 299.24 392.489 299.8C392.369 300.32 392.309 300.94 392.309 301.66C392.309 302.22 392.349 302.74 392.429 303.22C392.509 303.66 392.669 304.18 392.909 304.78C393.149 305.34 393.529 305.84 394.049 306.28C394.569 306.72 395.209 307.14 395.969 307.54C396.729 307.9 397.729 308.18 398.969 308.38C400.209 308.58 401.629 308.68 403.229 308.68C404.669 308.68 405.969 308.6 407.129 308.44C408.329 308.28 409.289 308.08 410.009 307.84C410.769 307.56 411.429 307.26 411.989 306.94C412.589 306.62 413.029 306.3 413.309 305.98C413.629 305.66 413.869 305.38 414.029 305.14C414.229 304.86 414.349 304.64 414.389 304.48L414.449 304.24L428.369 306.16C428.369 307.52 428.109 308.82 427.589 310.06C427.109 311.26 426.229 312.44 424.949 313.6C423.709 314.76 422.129 315.76 420.209 316.6C418.329 317.44 415.889 318.12 412.889 318.64C409.889 319.12 406.489 319.36 402.689 319.36C398.969 319.36 395.669 319.06 392.789 318.46C389.949 317.86 387.609 317.06 385.769 316.06C383.969 315.02 382.469 313.74 381.269 312.22C380.109 310.7 379.289 309.1 378.809 307.42C378.329 305.7 378.089 303.8 378.089 301.72C378.089 296.12 380.049 291.78 383.969 288.7C387.889 285.58 394.009 284.02 402.329 284.02ZM477.216 291.04C478.096 293.24 478.656 296.18 478.896 299.86C479.176 303.54 479.316 309 479.316 316.24V319H465.336V307.54C465.336 307.46 465.336 307.3 465.336 307.06C465.336 306.3 465.336 305.72 465.336 305.32C465.336 304.88 465.316 304.26 465.276 303.46C465.236 302.66 465.156 302.04 465.036 301.6C464.956 301.12 464.816 300.54 464.616 299.86C464.416 299.14 464.176 298.58 463.896 298.18C463.616 297.74 463.256 297.28 462.816 296.8C462.376 296.28 461.876 295.9 461.316 295.66C460.756 295.38 460.076 295.16 459.276 295C458.516 294.8 457.676 294.7 456.756 294.7C451.076 294.7 446.916 295.94 444.276 298.42V319H430.296V277H444.276V289.18C448.756 285.74 454.176 284.02 460.536 284.02C462.016 284.02 463.296 284.06 464.376 284.14C465.496 284.18 466.776 284.34 468.216 284.62C469.656 284.9 470.896 285.28 471.936 285.76C473.016 286.24 474.036 286.94 474.996 287.86C475.956 288.74 476.696 289.8 477.216 291.04ZM190.278 337.34C190.878 338.82 191.318 340.84 191.598 343.4C191.918 345.92 192.098 348.36 192.138 350.72C192.178 353.08 192.198 356.94 192.198 362.3V365H178.218V353.42C178.218 352.94 178.238 352.28 178.278 351.44C178.318 350.56 178.338 349.84 178.338 349.28C178.378 348.68 178.358 347.98 178.278 347.18C178.238 346.34 178.138 345.66 177.978 345.14C177.818 344.58 177.558 344 177.198 343.4C176.878 342.76 176.438 342.26 175.878 341.9C175.358 341.54 174.678 341.24 173.838 341C173.038 340.76 172.078 340.64 170.958 340.64C168.958 340.64 166.978 341.12 165.018 342.08C163.058 343 161.598 344.06 160.638 345.26C160.838 348.1 160.938 353.78 160.938 362.3V365H147.138V353.42C147.138 352.98 147.158 352.32 147.198 351.44C147.238 350.52 147.258 349.78 147.258 349.22C147.258 348.66 147.218 347.96 147.138 347.12C147.098 346.28 146.998 345.6 146.838 345.08C146.678 344.56 146.418 344 146.058 343.4C145.698 342.76 145.238 342.26 144.678 341.9C144.158 341.54 143.478 341.24 142.638 341C141.798 340.76 140.838 340.64 139.758 340.64C135.558 340.64 132.318 342.26 130.038 345.5V365H116.058V330.26H130.038V334.52C132.198 333.04 134.358 331.92 136.518 331.16C138.678 330.36 141.338 329.96 144.498 329.96C147.818 329.96 150.618 330.38 152.898 331.22C155.218 332.02 157.038 333.6 158.358 335.96C163.038 331.96 168.838 329.96 175.758 329.96C177.118 329.96 178.318 330.02 179.358 330.14C180.398 330.22 181.498 330.42 182.658 330.74C183.858 331.02 184.898 331.42 185.778 331.94C186.658 332.46 187.498 333.18 188.298 334.1C189.098 334.98 189.758 336.06 190.278 337.34ZM220.128 329.42C224.248 329.42 227.828 329.78 230.868 330.5C233.908 331.22 236.548 332.4 238.788 334.04C241.028 335.68 242.668 337.92 243.708 340.76C244.748 343.56 245.108 346.94 244.788 350.9H209.148C209.348 351.98 210.328 352.86 212.088 353.54C213.848 354.22 216.488 354.56 220.008 354.56C223.088 354.56 226.148 354.36 229.188 353.96C232.268 353.56 234.588 353.16 236.148 352.76L238.428 352.16L244.428 361.88C244.308 361.96 244.088 362.08 243.768 362.24C243.448 362.36 242.628 362.6 241.308 362.96C240.028 363.32 238.568 363.64 236.928 363.92C235.288 364.2 233.008 364.46 230.088 364.7C227.168 364.9 223.968 365 220.488 365C216.408 365 212.848 364.72 209.808 364.16C206.808 363.6 204.348 362.82 202.428 361.82C200.548 360.82 199.028 359.56 197.868 358.04C196.708 356.52 195.908 354.9 195.468 353.18C195.028 351.46 194.808 349.46 194.808 347.18C194.808 341.58 196.928 337.22 201.168 334.1C205.448 330.98 211.768 329.42 220.128 329.42ZM220.248 340.16C218.048 340.16 216.168 340.32 214.608 340.64C213.048 340.96 211.908 341.38 211.188 341.9C210.468 342.38 209.948 342.86 209.628 343.34C209.308 343.82 209.148 344.3 209.148 344.78H230.628C230.628 343.46 229.828 342.36 228.228 341.48C226.668 340.6 224.008 340.16 220.248 340.16ZM295.048 337.04C295.928 339.24 296.488 342.18 296.728 345.86C297.008 349.54 297.148 355 297.148 362.24V365H283.168V353.54C283.168 353.46 283.168 353.3 283.168 353.06C283.168 352.3 283.168 351.72 283.168 351.32C283.168 350.88 283.148 350.26 283.108 349.46C283.068 348.66 282.988 348.04 282.868 347.6C282.788 347.12 282.648 346.54 282.448 345.86C282.248 345.14 282.008 344.58 281.728 344.18C281.448 343.74 281.088 343.28 280.648 342.8C280.208 342.28 279.708 341.9 279.148 341.66C278.588 341.38 277.908 341.16 277.108 341C276.348 340.8 275.508 340.7 274.588 340.7C268.908 340.7 264.748 341.94 262.108 344.42V365H248.128V323H262.108V335.18C266.588 331.74 272.008 330.02 278.368 330.02C279.848 330.02 281.128 330.06 282.208 330.14C283.328 330.18 284.608 330.34 286.048 330.62C287.488 330.9 288.728 331.28 289.768 331.76C290.848 332.24 291.868 332.94 292.828 333.86C293.788 334.74 294.528 335.8 295.048 337.04ZM329.192 330.26C334.872 330.26 339.452 331.4 342.932 333.68C343.212 333.84 343.372 333.94 343.412 333.98L338.192 344.66C337.832 344.46 337.312 344.22 336.632 343.94C335.952 343.62 334.672 343.2 332.792 342.68C330.912 342.16 329.132 341.84 327.452 341.72C325.972 341.64 324.572 341.72 323.252 341.96C321.932 342.2 320.892 342.46 320.132 342.74C319.372 342.98 318.512 343.44 317.552 344.12C316.632 344.76 316.052 345.2 315.812 345.44C315.612 345.64 315.152 346.08 314.432 346.76V365H300.452V330.2H301.472H314.432V335.06C316.992 331.86 321.912 330.26 329.192 330.26ZM404.198 365H375.218V323H404.018C406.738 323 409.158 323.16 411.278 323.48C413.398 323.76 415.538 324.36 417.698 325.28C419.858 326.16 421.658 327.36 423.098 328.88C424.538 330.36 425.698 332.38 426.578 334.94C427.498 337.5 427.958 340.52 427.958 344C427.958 347.12 427.478 349.92 426.518 352.4C425.558 354.88 424.298 356.9 422.738 358.46C421.178 359.98 419.338 361.26 417.218 362.3C415.098 363.3 412.958 364 410.798 364.4C408.678 364.8 406.478 365 404.198 365ZM403.238 353.54C405.438 353.54 407.318 353.12 408.878 352.28C410.438 351.4 411.578 350.26 412.298 348.86C413.018 347.46 413.378 345.86 413.378 344.06C413.378 341.18 412.558 338.88 410.918 337.16C409.318 335.4 406.758 334.52 403.238 334.52H389.198V353.54H403.238ZM479.326 365.06H465.526C465.526 364.06 465.506 363 465.466 361.88C461.226 364.4 456.326 365.66 450.766 365.66C449.126 365.66 447.726 365.64 446.566 365.6C445.446 365.56 444.046 365.46 442.366 365.3C440.686 365.14 439.266 364.92 438.106 364.64C436.946 364.36 435.726 363.94 434.446 363.38C433.166 362.82 432.126 362.16 431.326 361.4C430.526 360.6 429.866 359.6 429.346 358.4C428.826 357.16 428.566 355.8 428.566 354.32C428.566 352.44 429.166 350.82 430.366 349.46C431.606 348.06 433.286 346.96 435.406 346.16C437.526 345.36 439.846 344.78 442.366 344.42C444.886 344.02 447.606 343.82 450.526 343.82C455.486 343.82 459.966 344.56 463.966 346.04C463.166 343.64 461.806 342.08 459.886 341.36C458.006 340.6 455.006 340.22 450.886 340.22C447.526 340.22 444.286 340.46 441.166 340.94C438.086 341.38 436.106 341.74 435.226 342.02C434.386 342.26 433.666 342.48 433.066 342.68L429.946 333.2C436.746 330.68 444.006 329.42 451.726 329.42C453.406 329.42 455.046 329.48 456.646 329.6C458.246 329.68 460.146 329.92 462.346 330.32C464.546 330.68 466.506 331.18 468.226 331.82C469.986 332.46 471.646 333.4 473.206 334.64C474.766 335.84 475.906 337.24 476.626 338.84C477.786 341.48 478.526 344.82 478.846 348.86C479.166 352.86 479.326 358.26 479.326 365.06ZM452.326 356.84C455.246 356.84 457.926 356.54 460.366 355.94C462.806 355.3 464.206 354.72 464.566 354.2C464.566 353.84 464.566 353.62 464.566 353.54C463.446 352.5 459.606 351.98 453.046 351.98C449.726 351.98 447.346 352.18 445.906 352.58C444.466 352.94 443.746 353.52 443.746 354.32C443.746 356 446.606 356.84 452.326 356.84ZM136.452 376.26H150.432V411H136.452V376.26ZM136.452 366.78H150.432V373.56H136.452V366.78ZM175.781 389.34C179.901 389.34 183.281 389.44 185.921 389.64C188.601 389.84 190.921 390.16 192.881 390.6C194.881 391.04 196.381 391.7 197.381 392.58C198.421 393.46 199.161 394.52 199.601 395.76C200.081 396.96 200.321 398.5 200.321 400.38C200.321 402.02 200.201 403.4 199.961 404.52C199.761 405.6 199.321 406.62 198.641 407.58C197.961 408.5 197.061 409.24 195.941 409.8C194.861 410.36 193.381 410.84 191.501 411.24C189.661 411.64 187.481 411.92 184.961 412.08C182.481 412.24 179.481 412.32 175.961 412.32C163.761 412.32 156.581 411.32 154.421 409.32L158.321 399.36C159.281 400 161.641 400.54 165.401 400.98C169.161 401.38 172.861 401.58 176.501 401.58C177.141 401.58 178.021 401.58 179.141 401.58C182.461 401.58 184.641 401.54 185.681 401.46C186.721 401.34 187.241 401.04 187.241 400.56C187.241 399.24 183.361 398.58 175.601 398.58C172.441 398.58 169.741 398.5 167.501 398.34C165.301 398.14 163.241 397.8 161.321 397.32C159.441 396.84 157.941 396.2 156.821 395.4C155.701 394.56 154.821 393.5 154.181 392.22C153.581 390.9 153.281 389.34 153.281 387.54C153.281 386.22 153.381 385.04 153.581 384C153.821 382.96 154.201 382.06 154.721 381.3C155.241 380.5 155.821 379.82 156.461 379.26C157.101 378.66 157.941 378.16 158.981 377.76C160.061 377.36 161.141 377.04 162.221 376.8C163.341 376.56 164.721 376.38 166.361 376.26C168.001 376.14 169.601 376.06 171.161 376.02C172.721 375.94 174.601 375.9 176.801 375.9C181.681 375.9 185.641 376.06 188.681 376.38C191.761 376.7 193.961 377.08 195.281 377.52C196.641 377.96 198.081 378.58 199.601 379.38L195.281 388.92C193.401 388.24 190.581 387.66 186.821 387.18C183.101 386.66 179.461 386.4 175.901 386.4C175.581 386.4 175.121 386.4 174.521 386.4C171.201 386.4 169.061 386.46 168.101 386.58C167.141 386.7 166.661 387.06 166.661 387.66C166.701 388.78 169.741 389.34 175.781 389.34ZM226.698 399.6C227.698 399.6 228.778 399.54 229.938 399.42C231.098 399.26 232.138 399.08 233.058 398.88C233.978 398.68 234.818 398.48 235.578 398.28C236.378 398.04 236.998 397.86 237.438 397.74C237.918 397.58 238.138 397.5 238.098 397.5L243.078 408.3C242.478 408.54 241.598 408.82 240.438 409.14C239.278 409.42 236.778 409.84 232.938 410.4C229.138 410.92 225.178 411.18 221.058 411.18C219.098 411.18 217.478 411.12 216.198 411C214.958 410.84 213.818 410.52 212.778 410.04C211.738 409.52 210.938 408.9 210.378 408.18C209.818 407.42 209.338 406.34 208.938 404.94C208.538 403.54 208.278 401.96 208.158 400.2C208.038 398.44 207.978 396.2 207.978 393.48V386.52H201.018V376.08H207.978V368.82H221.898V376.08H238.878V386.52H221.898V393.48C221.898 393.56 221.898 393.68 221.898 393.84C221.898 393.96 221.918 394.24 221.958 394.68C221.998 395.12 222.058 395.54 222.138 395.94C222.258 396.3 222.418 396.72 222.618 397.2C222.858 397.68 223.138 398.1 223.458 398.46C223.818 398.78 224.278 399.06 224.838 399.3C225.398 399.5 226.018 399.6 226.698 399.6ZM320.507 383.34C321.467 385.5 322.047 388.28 322.247 391.68C322.487 395.04 322.607 400.56 322.607 408.24V411H308.627V399.54C308.627 399.42 308.627 399.24 308.627 399C308.627 398.24 308.627 397.66 308.627 397.26C308.627 396.82 308.587 396.2 308.507 395.4C308.467 394.6 308.387 393.98 308.267 393.54C308.187 393.06 308.027 392.48 307.787 391.8C307.587 391.08 307.327 390.52 307.007 390.12C306.727 389.68 306.347 389.22 305.867 388.74C305.427 388.26 304.907 387.88 304.307 387.6C303.707 387.32 302.987 387.1 302.147 386.94C301.307 386.74 300.387 386.64 299.387 386.64C296.827 386.64 294.767 387.02 293.207 387.78C291.687 388.5 290.267 389.54 288.947 390.9V411H274.847V376.26H288.947V381.06C290.227 380.14 291.207 379.48 291.887 379.08C292.607 378.64 293.587 378.14 294.827 377.58C296.107 376.98 297.487 376.56 298.967 376.32C300.447 376.08 302.147 375.96 304.067 375.96C305.947 375.96 307.607 376.04 309.047 376.2C310.487 376.36 311.987 376.68 313.547 377.16C315.147 377.64 316.527 378.4 317.687 379.44C318.887 380.48 319.827 381.78 320.507 383.34ZM349.795 376.02C352.755 376.02 355.415 376.16 357.775 376.44C360.135 376.68 362.495 377.2 364.855 378C367.215 378.76 369.175 379.78 370.735 381.06C372.295 382.34 373.555 384.06 374.515 386.22C375.475 388.34 375.955 390.84 375.955 393.72C375.955 397 375.355 399.8 374.155 402.12C372.995 404.44 371.255 406.28 368.935 407.64C366.615 408.96 363.935 409.92 360.895 410.52C357.855 411.08 354.275 411.36 350.155 411.36C345.955 411.36 342.335 411.06 339.295 410.46C336.255 409.86 333.615 408.9 331.375 407.58C329.135 406.22 327.455 404.4 326.335 402.12C325.255 399.8 324.715 397 324.715 393.72C324.715 390.92 325.155 388.46 326.035 386.34C326.955 384.22 328.155 382.52 329.635 381.24C331.115 379.96 332.955 378.92 335.155 378.12C337.355 377.32 339.615 376.78 341.935 376.5C344.295 376.18 346.915 376.02 349.795 376.02ZM350.275 401.52C353.795 401.52 356.475 400.94 358.315 399.78C360.195 398.58 361.135 396.56 361.135 393.72C361.135 392.16 360.775 390.84 360.055 389.76C359.335 388.64 358.375 387.82 357.175 387.3C356.015 386.78 354.855 386.42 353.695 386.22C352.575 385.98 351.375 385.86 350.095 385.86C349.175 385.86 348.255 385.94 347.335 386.1C346.415 386.22 345.475 386.46 344.515 386.82C343.555 387.18 342.715 387.64 341.995 388.2C341.315 388.76 340.735 389.5 340.255 390.42C339.815 391.3 339.595 392.3 339.595 393.42C339.595 396.18 340.455 398.22 342.175 399.54C343.935 400.86 346.635 401.52 350.275 401.52ZM402.329 376.02C406.089 376.02 409.469 376.28 412.469 376.8C415.469 377.32 417.929 378.02 419.849 378.9C421.809 379.74 423.429 380.74 424.709 381.9C426.029 383.06 426.969 384.26 427.529 385.5C428.089 386.7 428.369 387.94 428.369 389.22L414.329 391.32C414.329 391.2 414.269 391.04 414.149 390.84C414.069 390.64 413.789 390.28 413.309 389.76C412.829 389.24 412.229 388.78 411.509 388.38C410.789 387.98 409.689 387.62 408.209 387.3C406.769 386.94 405.109 386.76 403.229 386.76C401.349 386.76 399.709 386.92 398.309 387.24C396.909 387.52 395.829 387.88 395.069 388.32C394.349 388.76 393.769 389.32 393.329 390C392.889 390.64 392.609 391.24 392.489 391.8C392.369 392.32 392.309 392.94 392.309 393.66C392.309 394.22 392.349 394.74 392.429 395.22C392.509 395.66 392.669 396.18 392.909 396.78C393.149 397.34 393.529 397.84 394.049 398.28C394.569 398.72 395.209 399.14 395.969 399.54C396.729 399.9 397.729 400.18 398.969 400.38C400.209 400.58 401.629 400.68 403.229 400.68C404.669 400.68 405.969 400.6 407.129 400.44C408.329 400.28 409.289 400.08 410.009 399.84C410.769 399.56 411.429 399.26 411.989 398.94C412.589 398.62 413.029 398.3 413.309 397.98C413.629 397.66 413.869 397.38 414.029 397.14C414.229 396.86 414.349 396.64 414.389 396.48L414.449 396.24L428.369 398.16C428.369 399.52 428.109 400.82 427.589 402.06C427.109 403.26 426.229 404.44 424.949 405.6C423.709 406.76 422.129 407.76 420.209 408.6C418.329 409.44 415.889 410.12 412.889 410.64C409.889 411.12 406.489 411.36 402.689 411.36C398.969 411.36 395.669 411.06 392.789 410.46C389.949 409.86 387.609 409.06 385.769 408.06C383.969 407.02 382.469 405.74 381.269 404.22C380.109 402.7 379.289 401.1 378.809 399.42C378.329 397.7 378.089 395.8 378.089 393.72C378.089 388.12 380.049 383.78 383.969 380.7C387.889 377.58 394.009 376.02 402.329 376.02ZM477.216 383.04C478.096 385.24 478.656 388.18 478.896 391.86C479.176 395.54 479.316 401 479.316 408.24V411H465.336V399.54C465.336 399.46 465.336 399.3 465.336 399.06C465.336 398.3 465.336 397.72 465.336 397.32C465.336 396.88 465.316 396.26 465.276 395.46C465.236 394.66 465.156 394.04 465.036 393.6C464.956 393.12 464.816 392.54 464.616 391.86C464.416 391.14 464.176 390.58 463.896 390.18C463.616 389.74 463.256 389.28 462.816 388.8C462.376 388.28 461.876 387.9 461.316 387.66C460.756 387.38 460.076 387.16 459.276 387C458.516 386.8 457.676 386.7 456.756 386.7C451.076 386.7 446.916 387.94 444.276 390.42V411H430.296V369H444.276V381.18C448.756 377.74 454.176 376.02 460.536 376.02C462.016 376.02 463.296 376.06 464.376 376.14C465.496 376.18 466.776 376.34 468.216 376.62C469.656 376.9 470.896 377.28 471.936 377.76C473.016 378.24 474.036 378.94 474.996 379.86C475.956 380.74 476.696 381.8 477.216 383.04ZM326.156 429.34C326.756 430.82 327.196 432.84 327.476 435.4C327.796 437.92 327.976 440.36 328.016 442.72C328.056 445.08 328.076 448.94 328.076 454.3V457H314.096V445.42C314.096 444.94 314.116 444.28 314.156 443.44C314.196 442.56 314.216 441.84 314.216 441.28C314.256 440.68 314.236 439.98 314.156 439.18C314.116 438.34 314.016 437.66 313.856 437.14C313.696 436.58 313.436 436 313.076 435.4C312.756 434.76 312.316 434.26 311.756 433.9C311.236 433.54 310.556 433.24 309.716 433C308.916 432.76 307.956 432.64 306.836 432.64C304.836 432.64 302.856 433.12 300.896 434.08C298.936 435 297.476 436.06 296.516 437.26C296.716 440.1 296.816 445.78 296.816 454.3V457H283.016V445.42C283.016 444.98 283.036 444.32 283.076 443.44C283.116 442.52 283.136 441.78 283.136 441.22C283.136 440.66 283.096 439.96 283.016 439.12C282.976 438.28 282.876 437.6 282.716 437.08C282.556 436.56 282.296 436 281.936 435.4C281.576 434.76 281.116 434.26 280.556 433.9C280.036 433.54 279.356 433.24 278.516 433C277.676 432.76 276.716 432.64 275.636 432.64C271.436 432.64 268.196 434.26 265.916 437.5V457H251.936V422.26H265.916V426.52C268.076 425.04 270.236 423.92 272.396 423.16C274.556 422.36 277.216 421.96 280.376 421.96C283.696 421.96 286.496 422.38 288.776 423.22C291.096 424.02 292.916 425.6 294.236 427.96C298.916 423.96 304.716 421.96 311.636 421.96C312.996 421.96 314.196 422.02 315.236 422.14C316.276 422.22 317.376 422.42 318.536 422.74C319.736 423.02 320.776 423.42 321.656 423.94C322.536 424.46 323.376 425.18 324.176 426.1C324.976 426.98 325.636 428.06 326.156 429.34ZM356.006 421.42C360.126 421.42 363.706 421.78 366.746 422.5C369.786 423.22 372.426 424.4 374.666 426.04C376.906 427.68 378.546 429.92 379.586 432.76C380.626 435.56 380.986 438.94 380.666 442.9H345.026C345.226 443.98 346.206 444.86 347.966 445.54C349.726 446.22 352.366 446.56 355.886 446.56C358.966 446.56 362.026 446.36 365.066 445.96C368.146 445.56 370.466 445.16 372.026 444.76L374.306 444.16L380.306 453.88C380.186 453.96 379.966 454.08 379.646 454.24C379.326 454.36 378.506 454.6 377.186 454.96C375.906 455.32 374.446 455.64 372.806 455.92C371.166 456.2 368.886 456.46 365.966 456.7C363.046 456.9 359.846 457 356.366 457C352.286 457 348.726 456.72 345.686 456.16C342.686 455.6 340.226 454.82 338.306 453.82C336.426 452.82 334.906 451.56 333.746 450.04C332.586 448.52 331.786 446.9 331.346 445.18C330.906 443.46 330.686 441.46 330.686 439.18C330.686 433.58 332.806 429.22 337.046 426.1C341.326 422.98 347.646 421.42 356.006 421.42ZM356.126 432.16C353.926 432.16 352.046 432.32 350.486 432.64C348.926 432.96 347.786 433.38 347.066 433.9C346.346 434.38 345.826 434.86 345.506 435.34C345.186 435.82 345.026 436.3 345.026 436.78H366.506C366.506 435.46 365.706 434.36 364.106 433.48C362.546 432.6 359.886 432.16 356.126 432.16ZM430.927 429.04C431.807 431.24 432.367 434.18 432.607 437.86C432.887 441.54 433.027 447 433.027 454.24V457H419.047V445.54C419.047 445.46 419.047 445.3 419.047 445.06C419.047 444.3 419.047 443.72 419.047 443.32C419.047 442.88 419.027 442.26 418.987 441.46C418.947 440.66 418.867 440.04 418.747 439.6C418.667 439.12 418.527 438.54 418.327 437.86C418.127 437.14 417.887 436.58 417.607 436.18C417.327 435.74 416.967 435.28 416.527 434.8C416.087 434.28 415.587 433.9 415.027 433.66C414.467 433.38 413.787 433.16 412.987 433C412.227 432.8 411.387 432.7 410.467 432.7C404.787 432.7 400.627 433.94 397.987 436.42V457H384.007V415H397.987V427.18C402.467 423.74 407.887 422.02 414.247 422.02C415.727 422.02 417.007 422.06 418.087 422.14C419.207 422.18 420.487 422.34 421.927 422.62C423.367 422.9 424.607 423.28 425.647 423.76C426.727 424.24 427.747 424.94 428.707 425.86C429.667 426.74 430.407 427.8 430.927 429.04ZM465.071 422.26C470.751 422.26 475.331 423.4 478.811 425.68C479.091 425.84 479.251 425.94 479.291 425.98L474.071 436.66C473.711 436.46 473.191 436.22 472.511 435.94C471.831 435.62 470.551 435.2 468.671 434.68C466.791 434.16 465.011 433.84 463.331 433.72C461.851 433.64 460.451 433.72 459.131 433.96C457.811 434.2 456.771 434.46 456.011 434.74C455.251 434.98 454.391 435.44 453.431 436.12C452.511 436.76 451.931 437.2 451.691 437.44C451.491 437.64 451.031 438.08 450.311 438.76V457H436.331V422.2H437.351H450.311V427.06C452.871 423.86 457.791 422.26 465.071 422.26Z" fill="black"/>
</svg>
