<svg width="48" height="48" viewBox="0 0 48 48" fill="none" xmlns="http://www.w3.org/2000/svg">
<g filter="url(#filter0_d)">
<circle cx="24" cy="24" r="20" fill="#F5F5F5"/>
<g clip-path="url(#clip0)">
<path d="M15.7292 19.9848C17.5062 19.9848 18.9467 18.5443 18.9467 16.7673C18.9467 14.9903 17.5062 13.5498 15.7292 13.5498C13.9522 13.5498 12.5117 14.9903 12.5117 16.7673C12.5117 18.5443 13.9522 19.9848 15.7292 19.9848Z" fill="black"/>
<path d="M17.5459 27.7943L17.8484 25.3193C18.0134 24.0268 18.6459 22.9268 19.5809 22.1568C18.9484 21.3593 17.9859 20.8643 16.9134 20.8643H14.5209C12.7884 20.8643 11.3309 22.1568 11.1384 23.8893L10.8084 26.6393C10.7534 26.9968 11.0009 27.3268 11.3584 27.4093C12.7334 27.7118 14.2184 27.8493 15.7309 27.8493C16.3634 27.8768 16.9684 27.8493 17.5459 27.7943Z" fill="black"/>
<path d="M32.0105 19.9848C33.7874 19.9848 35.228 18.5443 35.228 16.7673C35.228 14.9903 33.7874 13.5498 32.0105 13.5498C30.2335 13.5498 28.793 14.9903 28.793 16.7673C28.793 18.5443 30.2335 19.9848 32.0105 19.9848Z" fill="black"/>
<path d="M36.6027 23.8619C36.4102 22.1294 34.9252 20.8369 33.2202 20.8369H30.8277C29.7552 20.8369 28.7927 21.3319 28.1602 22.1294C29.0952 22.8994 29.7552 23.9994 29.8927 25.2919L30.1952 27.7669C30.7727 27.8219 31.4052 27.8494 32.0102 27.8494C33.5502 27.8494 35.0077 27.6844 36.3827 27.4094C36.7402 27.3269 36.9602 26.9969 36.9327 26.6394L36.6027 23.8619Z" fill="black"/>
<path d="M28.7939 28.2623L28.4639 25.4848C28.2714 23.7798 26.8139 22.4873 25.0814 22.4873H22.6889C20.9564 22.4873 19.4989 23.7798 19.3064 25.4848L18.9764 28.2623C18.9214 28.6198 19.1689 28.9773 19.5264 29.0323C20.9014 29.3348 22.3864 29.4723 23.8989 29.4723C25.4389 29.4723 26.8964 29.3073 28.2714 29.0323C28.6014 28.9773 28.8214 28.6198 28.7939 28.2623Z" fill="black"/>
<path d="M23.8698 21.6079C25.6468 21.6079 27.0873 20.1673 27.0873 18.3904C27.0873 16.6134 25.6468 15.1729 23.8698 15.1729C22.0929 15.1729 20.6523 16.6134 20.6523 18.3904C20.6523 20.1673 22.0929 21.6079 23.8698 21.6079Z" fill="black"/>
<path d="M26.8947 33.0748L25.4922 32.9648C25.2722 32.9373 25.0522 32.7998 24.9697 32.5798L24.4197 31.2873C24.1997 30.7923 23.4847 30.7923 23.2922 31.2873L22.7422 32.5798C22.6597 32.7998 22.4672 32.9373 22.2197 32.9648L20.8447 33.0748C20.2947 33.1298 20.0747 33.7898 20.4872 34.1473L21.5597 35.0548C21.7247 35.1923 21.8072 35.4398 21.7522 35.6598L21.4222 37.0348C21.2847 37.5573 21.8622 37.9698 22.3297 37.6948L23.5397 36.9523C23.7322 36.8423 23.9797 36.8423 24.1722 36.9523L25.3822 37.6948C25.8497 37.9698 26.4272 37.5573 26.2897 37.0348L25.9597 35.6598C25.9047 35.4398 25.9872 35.1923 26.1522 35.0548L27.2247 34.1473C27.6647 33.7898 27.4447 33.1298 26.8947 33.0748Z" fill="black"/>
<path d="M35.0353 31.4517L33.6328 31.3417C33.4128 31.3142 33.1928 31.1767 33.1103 30.9567L32.5603 29.6642C32.3403 29.1692 31.6253 29.1692 31.4328 29.6642L30.8828 30.9567C30.8003 31.1767 30.6078 31.3142 30.3603 31.3417L28.9853 31.4517C28.4353 31.5067 28.2153 32.1667 28.6278 32.5242L29.7003 33.4317C29.8653 33.5692 29.9478 33.8167 29.8928 34.0367L29.5628 35.4117C29.4253 35.9342 30.0028 36.3742 30.4703 36.0717L31.6803 35.3292C31.8728 35.2192 32.1203 35.2192 32.3128 35.3292L33.5228 36.0717C33.9903 36.3467 34.5678 35.9342 34.4303 35.4117L34.1003 34.0367C34.0453 33.8167 34.1278 33.5692 34.2928 33.4317L35.3653 32.5242C35.8053 32.1667 35.5853 31.5067 35.0353 31.4517Z" fill="black"/>
<path d="M18.754 31.4517L17.3515 31.3417C17.1315 31.3142 16.9115 31.1767 16.829 30.9567L16.279 29.6642C16.059 29.1692 15.344 29.1692 15.1515 29.6642L14.6015 30.9567C14.519 31.1767 14.3265 31.3142 14.079 31.3417L12.704 31.4517C12.154 31.5067 11.934 32.1667 12.3465 32.5242L13.419 33.4317C13.584 33.5692 13.6665 33.8167 13.6115 34.0367L13.2815 35.4117C13.144 35.9342 13.7215 36.3742 14.189 36.0717L15.399 35.3292C15.5915 35.2192 15.839 35.2192 16.0315 35.3292L17.2415 36.0717C17.709 36.3467 18.2865 35.9342 18.149 35.4117L17.819 34.0367C17.764 33.8167 17.8465 33.5692 18.0115 33.4317L19.084 32.5242C19.524 32.1667 19.304 31.5067 18.754 31.4517Z" fill="black"/>
</g>
</g>
<defs>
<filter id="filter0_d" x="0" y="0" width="48" height="48" filterUnits="userSpaceOnUse" color-interpolation-filters="sRGB">
<feFlood flood-opacity="0" result="BackgroundImageFix"/>
<feColorMatrix in="SourceAlpha" type="matrix" values="0 0 0 0 0 0 0 0 0 0 0 0 0 0 0 0 0 0 127 0"/>
<feOffset/>
<feGaussianBlur stdDeviation="2"/>
<feColorMatrix type="matrix" values="0 0 0 0 0 0 0 0 0 0 0 0 0 0 0 0 0 0 0.25 0"/>
<feBlend mode="normal" in2="BackgroundImageFix" result="effect1_dropShadow"/>
<feBlend mode="normal" in="SourceGraphic" in2="effect1_dropShadow" result="shape"/>
</filter>
<clipPath id="clip0">
<rect width="27.5" height="27.5" fill="white" transform="translate(10.25 10.25)"/>
</clipPath>
</defs>
</svg>
